<?xml version="1.0" encoding="UTF-8"?>
<svg xmlns="http://www.w3.org/2000/svg" width="1200" height="630" viewBox="0 0 1200 630">
  <rect width="1200" height="630" fill="#ffffff"/>
  <g transform="translate(413 263) scale(0.13)">
    <path fill="#000000" fill-rule="evenodd" d="M391.8,734c1.4,31.3-9.8,51.5-33.2,61-13.7,5.4-22.2,5-36.5,5H77.9c-14.3,0-22.8.4-36.5-5-23.5-9.4-34.7-29.6-33.2-61C-4.4,392.9-.9,346.7,8.2,305.9c13.1-58.5,35.4-73.8,44.3-80.2,24.9-17.9,53.7-19.7,68.3-45.1,7.6-13.3,7.9-27,7.1-36.3V8.3c0-4.6,4-8.3,8.9-8.3h126.4c4.9,0,8.9,3.7,8.9,8.3v136c-.8,9.3-.5,23.1,7.1,36.3,14.6,25.5,43.3,27.2,68.3,45.1,9,6.5,31.3,21.7,44.3,80.2,9.1,40.7,12.6,87,0,428.1Z"/>
  </g>
  <text
    x="485"
    y="375"
    fill="#000000"
    font-family="Arial, Helvetica, sans-serif"
    font-size="96"
    font-weight="700"
    letter-spacing="-2.8"
  >Brandy</text>
</svg>
