<?xml version="1.0" encoding="UTF-8"?>
<svg xmlns="http://www.w3.org/2000/svg" xmlns:xlink="http://www.w3.org/1999/xlink" viewBox="0 0 1200 1200" width="1200" height="1200">
  <defs>
    <style>
      .cls-1 {
        fill: none;
      }

      .cls-2 {
        mask: url(#mask);
      }

      .cls-3 {
        fill: #030302;
      }

      .cls-4 {
        isolation: isolate;
      }

      .cls-5 {
        fill: #fff;
      }

      .cls-6 {
        mix-blend-mode: overlay;
      }

      .cls-7 {
        fill: #282826;
      }
    </style>
    <mask id="mask" x="14660.17" y="13707.54" width="232.64" height="232.64" maskUnits="userSpaceOnUse">
      <g id="cs_mask_1_star-8" data-name="cs mask 1 star-8">
        <path class="cls-5" d="M14776.49,13707.54c14.45,72.56,43.34,101.73,116.32,116.32-73,14.59-101.88,43.76-116.32,116.32-14.45-72.56-43.34-101.75-116.32-116.32,73-14.59,101.88-43.76,116.32-116.32Z"/>
      </g>
    </mask>
  </defs>
  <g transform="translate(-4126.766 -8594.202) scale(0.642731)">
    <g>
        <path d="M7610.02,14434.11c-3-3.15-8.79-5-13.11-5.39-49.39,3-103.22-3.85-152.08,0-12.76,1.01-23.62,8.17-25.38,21.62-2.2,16.83,2.19,24.71-7.28,41.72-20.69,37.15-72.08,41.48-98.78,8.17-22.92-28.58-7.68-92.28-11.77-127.72,5.24-28.17,28.33-49.67,57.2-51.8h338.09c65.98,10.3,69.1,60.64,54.17,115.25-56.07,205.05-275.01,329.78-480.71,269.28-213.74-62.87-328-292.12-267.5-504.49,68.3-239.76,332.62-356.69,556.52-241.52,62.53,32.16,132.85,97.09,160.15,162.85,20.61,49.63-12.52,102-67.57,95.57-29.08-3.4-34.15-24.29-46.8-45.2-103.69-171.49-350.01-174.21-455.23-2.61-87.14,142.11-29.3,340.47,123.75,408.1,121.34,53.62,264,5.17,330.48-107.87,6.11-10.39,16.29-24.98,5.84-35.96Z"/>
        <path d="M7361.17,14159.06c79.25-4.34,90.18,111.73,14.45,124.44-87.4,14.67-101.75-119.66-14.45-124.44Z"/>
      </g>
  </g>
</svg>
