<?xml version="1.0" encoding="UTF-8"?>
<svg xmlns="http://www.w3.org/2000/svg" xmlns:xlink="http://www.w3.org/1999/xlink" viewBox="0 0 1200 1200" width="1200" height="1200">
  <defs>
    <style>
      .cls-1 {
        fill: none;
      }

      .cls-2 {
        mask: url(#mask);
      }

      .cls-3 {
        fill: #030302;
      }

      .cls-4 {
        isolation: isolate;
      }

      .cls-5 {
        fill: #fff;
      }

      .cls-6 {
        mix-blend-mode: overlay;
      }

      .cls-7 {
        fill: #282826;
      }
    </style>
    <mask id="mask" x="14660.17" y="13707.54" width="232.64" height="232.64" maskUnits="userSpaceOnUse">
      <g id="cs_mask_1_star-8" data-name="cs mask 1 star-8">
        <path class="cls-5" d="M14776.49,13707.54c14.45,72.56,43.34,101.73,116.32,116.32-73,14.59-101.88,43.76-116.32,116.32-14.45-72.56-43.34-101.75-116.32-116.32,73-14.59,101.88-43.76,116.32-116.32Z"/>
      </g>
    </mask>
  </defs>
  <g transform="translate(-12674.521 -13615.560) scale(1.118633)">
    <path d="M12110.63,12451.09v108.33h-261.15c-3.55,0-19.19,7.86-22.71,10.49-23.72,17.68-34.54,62.66-35.81,90.86h275.12c4.56,8.93,2.77,23.59,2.69,34.14-.09,12.72-1.63,27.19-1.89,40.02-.12,5.8,3.02,12.86.07,20.19h-277.74c4.65,30.78,13.39,70.91,39.35,90.82,4.58,3.52,17.39,10.53,22.67,10.53h259.4v108.33l-269.96.07c-201.13-22.08-217.82-350.65-100.42-469.27,17.46-17.64,59.7-44.51,84.77-44.51h285.6Z"/>
  </g>
</svg>
