<?xml version="1.0" encoding="UTF-8"?>
<svg xmlns="http://www.w3.org/2000/svg" xmlns:xlink="http://www.w3.org/1999/xlink" viewBox="0 0 1200 1200" width="1200" height="1200">
  <defs>
    <style>
      .cls-1 {
        fill: none;
      }

      .cls-2 {
        mask: url(#mask);
      }

      .cls-3 {
        fill: #030302;
      }

      .cls-4 {
        isolation: isolate;
      }

      .cls-5 {
        fill: #fff;
      }

      .cls-6 {
        mix-blend-mode: overlay;
      }

      .cls-7 {
        fill: #282826;
      }
    </style>
    <mask id="mask" x="14660.17" y="13707.54" width="232.64" height="232.64" maskUnits="userSpaceOnUse">
      <g id="cs_mask_1_star-8" data-name="cs mask 1 star-8">
        <path class="cls-5" d="M14776.49,13707.54c14.45,72.56,43.34,101.73,116.32,116.32-73,14.59-101.88,43.76-116.32,116.32-14.45-72.56-43.34-101.75-116.32-116.32,73-14.59,101.88-43.76,116.32-116.32Z"/>
      </g>
    </mask>
  </defs>
  <g transform="translate(-189.203 -450.149) scale(0.786740)">
    <path d="M762.8,1108.27l216.68,95.77,31.53,5.03,272.75-120.03c8.4-7.53,10.81-15.82,12.07-26.69,3.32-28.61,2.77-92.2.12-121.45-.86-9.49-.71-18.68-7.54-26.36l-22.37-7.23-260.07,109.84c-3.17,9.96-12.38,61.24,1.46,61.93l235.01-101.62v70.25l-239.72,104.37-254.4-109.55c-14.85-5.96-35.6,3.62-38.71,19.81-2.77,14.41-1.59,143.49,2.41,152.43,2.03,4.54,8.14,9.02,12.46,11.76l273.78,119.11,244.19-101.71v82.36l-239.82,101.41c-83.77-29.41-166.53-80.22-249.7-108.63-20.88-7.13-39.31-5.68-42.96,19.61-2.57,17.84-2.81,136.61,2.05,147.42,2.67,5.94,12.47,12.23,18.34,15.57l268.04,115.19,244.05-101.61v87.21l-237.6,104.3-4.62,55.55,288.08-126.1c7-7.68,6.79-16.7,7.65-26.26,2.84-31.38,3.46-100.47-.13-131.12-2.66-22.64-15.57-35.8-38.9-29.31l-254.3,109.63-239.82-104.45v-70.25l243.52,100.96,279.58-122.91c7.48-6.51,8.84-14.71,9.92-23.99,2.62-22.55,3.16-125.27-2.28-143.25-4.43-14.66-17.41-23.04-32.89-18.16l-258.04,109.79-239.82-101.08v-77.52Z"/>
  </g>
</svg>
