<?xml version="1.0" encoding="UTF-8"?>
<svg xmlns="http://www.w3.org/2000/svg" xmlns:xlink="http://www.w3.org/1999/xlink" viewBox="0 0 1200 1200" width="1200" height="1200">
  <defs>
    <style>
      .cls-1 {
        fill: none;
      }

      .cls-2 {
        mask: url(#mask);
      }

      .cls-3 {
        fill: #030302;
      }

      .cls-4 {
        isolation: isolate;
      }

      .cls-5 {
        fill: #fff;
      }

      .cls-6 {
        mix-blend-mode: overlay;
      }

      .cls-7 {
        fill: #282826;
      }
    </style>
    <mask id="mask" x="14660.17" y="13707.54" width="232.64" height="232.64" maskUnits="userSpaceOnUse">
      <g id="cs_mask_1_star-8" data-name="cs mask 1 star-8">
        <path class="cls-5" d="M14776.49,13707.54c14.45,72.56,43.34,101.73,116.32,116.32-73,14.59-101.88,43.76-116.32,116.32-14.45-72.56-43.34-101.75-116.32-116.32,73-14.59,101.88-43.76,116.32-116.32Z"/>
      </g>
    </mask>
  </defs>
  <g transform="translate(-20857.138 -16606.209) scale(1.652335)">
    <path d="M13191.7,10273.88c.26,3.46-1.26,6.47-2.44,9.58-5.87,15.4-18.1,43.17-26.08,57.23-1.34,2.37-2.87,4.51-5.15,6.07l-177.04.81-3.19,1.61-13.61,30.45h164.22l1.71,4.88-25.35,56.39-4.42,5.19-164.2.82c-6.14,1.14-13.18,25.99-16.82,32.05h192.26c-3.54,14.62-11.97,34.47-21.61,46.48-8.12,10.12-31.92,27.22-44.88,27.22h-265.16l107.66-239.21c7.19-16.07,37.74-39.56,54.96-39.56h249.14Z"/>
  </g>
</svg>
