<?xml version="1.0" encoding="UTF-8"?>
<svg xmlns="http://www.w3.org/2000/svg" xmlns:xlink="http://www.w3.org/1999/xlink" viewBox="0 0 1200 1200" width="1200" height="1200">
  <defs>
    <style>
      .cls-1 {
        fill: none;
      }

      .cls-2 {
        mask: url(#mask);
      }

      .cls-3 {
        fill: #030302;
      }

      .cls-4 {
        isolation: isolate;
      }

      .cls-5 {
        fill: #fff;
      }

      .cls-6 {
        mix-blend-mode: overlay;
      }

      .cls-7 {
        fill: #282826;
      }
    </style>
    <mask id="mask" x="14660.17" y="13707.54" width="232.64" height="232.64" maskUnits="userSpaceOnUse">
      <g id="cs_mask_1_star-8" data-name="cs mask 1 star-8">
        <path class="cls-5" d="M14776.49,13707.54c14.45,72.56,43.34,101.73,116.32,116.32-73,14.59-101.88,43.76-116.32,116.32-14.45-72.56-43.34-101.75-116.32-116.32,73-14.59,101.88-43.76,116.32-116.32Z"/>
      </g>
    </mask>
  </defs>
  <g transform="translate(-4260.014 -8249.007) scale(0.661739)">
    <g>
        <path d="M7335,12957.21c141.02-8.13,281.23,60.75,350.38,185.04,14.7,26.42,26.22,49.18,9,78.34-16.81,28.47-44.89,32.63-75.66,30.32-39.66-2.99-43.32-33.76-63.12-60.88-121.17-165.95-375.35-111.8-432.66,83.12-50.8,172.78,82.01,354.85,266.64,334.64,52.11-5.7,121.95-38.58,154.6-80.4,10.01-12.83,8.19-34.5-9.16-38.79-4.22-1.04-13.49-1.51-18.27-1.73-26.1-1.21-53.13.12-79,0-29.48-.13-65.47,2.65-94.03.02-72.32-6.66-73.55-117.17-.74-126.7l331.61-.17c92.7,21.29,34.67,155.98,3.03,207.81-100.23,164.17-311.54,227.79-484.44,137.6-199.17-103.89-271.86-363.96-161.15-559.19,61.31-108.11,178.04-181.84,302.97-189.03Z"/>
        <path d="M7358.04,13203.16c44.85-1.32,73.65,48.32,50.59,86.67-24.01,39.92-83.72,35.56-101.6-7.24-15.36-36.77,11.04-78.26,51.01-79.43Z"/>
      </g>
  </g>
</svg>
