<?xml version="1.0" encoding="UTF-8"?>
<svg xmlns="http://www.w3.org/2000/svg" xmlns:xlink="http://www.w3.org/1999/xlink" viewBox="0 0 1200 1200" width="1200" height="1200">
  <defs>
    <style>
      .cls-1 {
        fill: none;
      }

      .cls-2 {
        mask: url(#mask);
      }

      .cls-3 {
        fill: #030302;
      }

      .cls-4 {
        isolation: isolate;
      }

      .cls-5 {
        fill: #fff;
      }

      .cls-6 {
        mix-blend-mode: overlay;
      }

      .cls-7 {
        fill: #282826;
      }
    </style>
    <mask id="mask" x="14660.17" y="13707.54" width="232.64" height="232.64" maskUnits="userSpaceOnUse">
      <g id="cs_mask_1_star-8" data-name="cs mask 1 star-8">
        <path class="cls-5" d="M14776.49,13707.54c14.45,72.56,43.34,101.73,116.32,116.32-73,14.59-101.88,43.76-116.32,116.32-14.45-72.56-43.34-101.75-116.32-116.32,73-14.59,101.88-43.76,116.32-116.32Z"/>
      </g>
    </mask>
  </defs>
  <g transform="translate(-1619.592 -10190.912) scale(0.889224)">
    <path d="M2220.86,11810.45l547.78-.29c16.77,1.44,30.55,14.82,32.5,31.5v585.08c-1.43,19.15-17.58,32.92-36.5,33.5h-536.09c-18.86-.32-34.8-13.73-37.49-32.5v-585.08c1.41-16.28,14.05-29.18,29.8-32.21ZM2705.1,11902.19h-418l1.14,464.86,416.87.14-1.5-97h-260c-1.43-.88-1.38-1.99-1.55-3.45-2.17-18.44.25-46.03,1.09-65.01.26-5.82-.27-11.73-.04-17.54h243v-99h-243v-86h260.5l1.5-1.5v-95.5Z"/>
  </g>
</svg>
