<?xml version="1.0" encoding="UTF-8"?>
<svg xmlns="http://www.w3.org/2000/svg" xmlns:xlink="http://www.w3.org/1999/xlink" viewBox="0 0 1200 1200" width="1200" height="1200">
  <defs>
    <style>
      .cls-1 {
        fill: none;
      }

      .cls-2 {
        mask: url(#mask);
      }

      .cls-3 {
        fill: #030302;
      }

      .cls-4 {
        isolation: isolate;
      }

      .cls-5 {
        fill: #fff;
      }

      .cls-6 {
        mix-blend-mode: overlay;
      }

      .cls-7 {
        fill: #282826;
      }
    </style>
    <mask id="mask" x="14660.17" y="13707.54" width="232.64" height="232.64" maskUnits="userSpaceOnUse">
      <g id="cs_mask_1_star-8" data-name="cs mask 1 star-8">
        <path class="cls-5" d="M14776.49,13707.54c14.45,72.56,43.34,101.73,116.32,116.32-73,14.59-101.88,43.76-116.32,116.32-14.45-72.56-43.34-101.75-116.32-116.32,73-14.59,101.88-43.76,116.32-116.32Z"/>
      </g>
    </mask>
  </defs>
  <g transform="translate(-18320.369 -13237.731) scale(1.536508)">
    <path d="M12254.16,9036.2c-4.27,16.53-23.89,41.74,5.46,44.66,21.15,2.11,87.07-.61,103.19-13.72,4.82-3.92,5.35-6.43,7.56-11.96l104.71-4.72c-8.16,28.55-21.58,49.11-48.03,63.3-54.81,29.42-184.8,45.23-245.22,33.67-84.96-16.25-45.92-89.84-21.05-142.93,41.81-89.26,69.9-119.2,171.12-131.69,57.68-7.12,198.98-19.88,182.83,73.88-1.78,10.32-25.21,75.83-31.62,78.93l-228.95,10.58ZM12402.74,8968.47c6.31-15.85,18.86-33.11-5.76-37.78-20.44-3.88-68.29-.3-87.5,7.81-15.23,6.43-20.63,21.57-28.25,35.02l121.51-5.05Z"/>
  </g>
</svg>
