<?xml version="1.0" encoding="UTF-8"?>
<svg xmlns="http://www.w3.org/2000/svg" xmlns:xlink="http://www.w3.org/1999/xlink" viewBox="0 0 1200 1200" width="1200" height="1200">
  <defs>
    <style>
      .cls-1 {
        fill: none;
      }

      .cls-2 {
        mask: url(#mask);
      }

      .cls-3 {
        fill: #030302;
      }

      .cls-4 {
        isolation: isolate;
      }

      .cls-5 {
        fill: #fff;
      }

      .cls-6 {
        mix-blend-mode: overlay;
      }

      .cls-7 {
        fill: #282826;
      }
    </style>
    <mask id="mask" x="14660.17" y="13707.54" width="232.64" height="232.64" maskUnits="userSpaceOnUse">
      <g id="cs_mask_1_star-8" data-name="cs mask 1 star-8">
        <path class="cls-5" d="M14776.49,13707.54c14.45,72.56,43.34,101.73,116.32,116.32-73,14.59-101.88,43.76-116.32,116.32-14.45-72.56-43.34-101.75-116.32-116.32,73-14.59,101.88-43.76,116.32-116.32Z"/>
      </g>
    </mask>
  </defs>
  <g transform="translate(-4898.779 -2998.361) scale(0.855892)">
    <path d="M6739.64,4197.93h-441.2v71.43h441.2c-10.99,116.5-106.98,214.9-221.66,234.25-239.11,40.35-408.38-228.46-273.37-428.84,141.68-210.28,471.52-126.5,495.03,123.16ZM6617.79,4113.89c-1.11-10.63-15.03-22.61-23.01-29.51-69.75-60.34-185.06-59.33-252.32,4.19-6.9,6.52-18.48,15.13-18.8,25.32h294.14ZM6617.79,4353.4h-289.93c.22,10.07,11.97,19.17,19,25.12,81.55,69.05,205.01,59.29,270.93-25.12Z"/>
  </g>
</svg>
