<?xml version="1.0" encoding="UTF-8"?>
<svg xmlns="http://www.w3.org/2000/svg" xmlns:xlink="http://www.w3.org/1999/xlink" viewBox="0 0 1200 1200" width="1200" height="1200">
  <defs>
    <style>
      .cls-1 {
        fill: none;
      }

      .cls-2 {
        mask: url(#mask);
      }

      .cls-3 {
        fill: #030302;
      }

      .cls-4 {
        isolation: isolate;
      }

      .cls-5 {
        fill: #fff;
      }

      .cls-6 {
        mix-blend-mode: overlay;
      }

      .cls-7 {
        fill: #282826;
      }
    </style>
    <mask id="mask" x="14660.17" y="13707.54" width="232.64" height="232.64" maskUnits="userSpaceOnUse">
      <g id="cs_mask_1_star-8" data-name="cs mask 1 star-8">
        <path class="cls-5" d="M14776.49,13707.54c14.45,72.56,43.34,101.73,116.32,116.32-73,14.59-101.88,43.76-116.32,116.32-14.45-72.56-43.34-101.75-116.32-116.32,73-14.59,101.88-43.76,116.32-116.32Z"/>
      </g>
    </mask>
  </defs>
  <g transform="translate(-13495.007 -11845.474) scale(1.030845)">
    <path d="M13851.87,12218.51c.74.65-3.4,6.31-4.08,7.33-21.89,32.86-46.2,66.14-69.24,98.35-4.06,5.67-9.32,14.56-13.67,19.37-.8.88-1.47,1.68-2.66,2.06-29.25.49-58.54.54-87.81.39-43.1-.22-91.23,1.63-133.75-.79-44.4-2.53-88.91-25.6-105.02-68.86-17.31-46.47,4.43-92.74,13.78-138.19-.13-.63-.99-1.96-1.51-2.33-3.34-2.35-30.01.47-36.85-.91-3.44-.69-6.52-4.33-5.95-7.87l44.04-100.8c5.88-9.33,20.66.11,24.44-7.82,9.87-34.88,13.87-73.36,31.46-105.44,62.79-114.49,203.89-72.07,310.19-81.63l126.34.41.38,2-79.58,112.4-3.8.92-184.96-.07c-24.47,2.41-43.43,18.4-51.54,41.3-2.31,6.53-7.85,24.66-8.47,30.94-.44,4.51.92,4.1,4.17,4.1h225.02l.8,2.36-77.28,109.98-182.02.51c-2.24.95-3.25,2.31-4.13,4.52-3.2,8.04-8.21,31.2-7.62,39.57,1.4,19.78,19.62,38.17,39.72,38.17h239.57Z"/>
  </g>
</svg>
