<?xml version="1.0" encoding="UTF-8"?>
<svg xmlns="http://www.w3.org/2000/svg" xmlns:xlink="http://www.w3.org/1999/xlink" viewBox="0 0 1200 1200" width="1200" height="1200">
  <defs>
    <style>
      .cls-1 {
        fill: none;
      }

      .cls-2 {
        mask: url(#mask);
      }

      .cls-3 {
        fill: #030302;
      }

      .cls-4 {
        isolation: isolate;
      }

      .cls-5 {
        fill: #fff;
      }

      .cls-6 {
        mix-blend-mode: overlay;
      }

      .cls-7 {
        fill: #282826;
      }
    </style>
    <mask id="mask" x="14660.17" y="13707.54" width="232.64" height="232.64" maskUnits="userSpaceOnUse">
      <g id="cs_mask_1_star-8" data-name="cs mask 1 star-8">
        <path class="cls-5" d="M14776.49,13707.54c14.45,72.56,43.34,101.73,116.32,116.32-73,14.59-101.88,43.76-116.32,116.32-14.45-72.56-43.34-101.75-116.32-116.32,73-14.59,101.88-43.76,116.32-116.32Z"/>
      </g>
    </mask>
  </defs>
  <g transform="translate(-2873.335 -3661.764) scale(0.596942)">
    <path d="M6201.42,7286.08c-8.79,26.87-22.51,51.95-37.78,75.64l-.59,2.6,40.45,64.55-88.66,90.01-4.01-.32-62.83-40.33c-42.64,28.78-90.87,49.23-141.24,60.33l-16.58,73.8-134.54.09-15.35-75.01c-48.84-10.9-95.43-31.28-136.6-59.45l-66.47,41.23-90.05-89.67,41.86-67.34c-26.99-41.88-45.95-88.55-56.8-137.26l-78.53-16.76-.18-132.9c21.29-5.52,43.18-9.1,64.49-14.53,3.19-.81,13.55-2.68,14.95-4.76,10.02-47.8,29.65-92.96,55.15-134.35l-42.19-65.53,89.53-92.07,67.33,40.78c41.25-28.92,88.18-48.65,137.24-60.14l16.82-78.48h133.35s15.78,74.59,15.78,74.59l1.93,3.55c50.18,10.58,96.8,32.04,139.62,59.68l65.74-41.3,89.86,90.64-41.87,66.28c33.03,51.33,54.63,109.48,62.08,170.35h60.25v109.54h-742.69c11.97,74.8,60.86,145.33,123.64,186.91,127.19,84.23,298.12,56.54,391.16-63.72,9.06-11.71,16.73-24.22,24.69-36.65h121.04ZM6109.41,7090c-12.31-76.35-56.02-145.12-119.05-189.3-91.65-64.24-212.25-69.82-309.58-14.22-74.24,42.41-128.2,118.41-140.98,203.52h569.61Z"/>
  </g>
</svg>
