<?xml version="1.0" encoding="UTF-8"?>
<svg xmlns="http://www.w3.org/2000/svg" xmlns:xlink="http://www.w3.org/1999/xlink" viewBox="0 0 1200 1200" width="1200" height="1200">
  <defs>
    <style>
      .cls-1 {
        fill: none;
      }

      .cls-2 {
        mask: url(#mask);
      }

      .cls-3 {
        fill: #030302;
      }

      .cls-4 {
        isolation: isolate;
      }

      .cls-5 {
        fill: #fff;
      }

      .cls-6 {
        mix-blend-mode: overlay;
      }

      .cls-7 {
        fill: #282826;
      }
    </style>
    <mask id="mask" x="14660.17" y="13707.54" width="232.64" height="232.64" maskUnits="userSpaceOnUse">
      <g id="cs_mask_1_star-8" data-name="cs mask 1 star-8">
        <path class="cls-5" d="M14776.49,13707.54c14.45,72.56,43.34,101.73,116.32,116.32-73,14.59-101.88,43.76-116.32,116.32-14.45-72.56-43.34-101.75-116.32-116.32,73-14.59,101.88-43.76,116.32-116.32Z"/>
      </g>
    </mask>
  </defs>
  <g transform="translate(-4687.136 -3709.695) scale(0.752602)">
    <path d="M7373.75,5746.17h-299.53c-1.25.99-.37,3.81-.14,5.44,6.43,44.62,37.4,87.67,78.79,105.88,71.66,31.54,149.47-10.42,172.55-82.19h45.01c-19.58,128.85-115.13,237.31-240.8,271.87-238.71,65.64-462.69-147.97-413.65-389.16,40.5-199.18,244.68-318.03,438.34-248.77,137.73,49.26,229.03,190.77,219.42,336.94ZM6817.72,5544.94h109.55c20.86-39.8,48.92-75.09,80.42-106.91-.06-.61-1.11-.35-1.67-.35-7.28-.09-21.38,3.17-28.9,4.87-55.49,12.53-108.84,44.09-146.5,86.5-4.51,5.08-8.71,10.55-12.9,15.9ZM7271.8,5556.19c.48-.48-3.74-5.71-4.36-6.55-43.03-57.41-109.33-100.21-180.97-110.61,28.1,32.74,52.71,68.6,72.23,107.15,37.88-8.04,77.7-6.46,113.1,10ZM7107.65,5544.94c-16.17-31.26-35.01-61.62-59.91-86.69-27.9,25.03-52.14,54.32-71.16,86.69h131.06ZM7331.38,5702.48c-5.21-39.34-26.94-75.29-60.15-97.06-36.72-24.08-84.71-27.2-124.01-7.34-39.69,20.06-67.1,60.13-73.34,104.06l257.5.34ZM6907.75,5587.31l-116.51-.34c-18.93,35.61-30.41,75.2-33.75,115.52h125.11c2.05-39.54,11.62-78.21,25.15-115.17ZM7085.47,5587.3h-130.4c-16.22,36.15-26.55,75.48-28.8,115.18,3.65.91,6.95,0,10.24-.03,14.16-.15,28.3.03,42.36,0,16.45-.04,32.95-.21,49.37.41,5.33-38.26,20.7-73.88,45.97-102.99,3.56-4.1,7.74-9.17,12.25-11.92v-.97c-.1-.94-.82.32-.99.32ZM6882.59,5746.17h-124.11c-.62.47-.85.68-.87,1.49-.03,1.21.4,4.55.54,6.12,3.45,39.26,17.57,80.43,37.4,114.19h114.18c-15.08-38.88-24.89-79.96-27.14-121.8ZM7028.22,5746.17h-101.94c1.72,42.01,12.85,83.79,30.12,121.8h131.39c-8.42-9.18-17.08-18.11-24.37-28.26-19.52-27.16-32.29-60.04-35.21-93.54ZM7270.49,5898.42c-5.12,1.17-9.74,3.84-14.7,5.48-30.71,10.15-63,10.78-94.54,4.05-18.06,37.93-42.73,72.47-71.47,102.99,72.19-11.75,137.85-53.79,180.71-112.52ZM6929.59,5909.67h-104.59c.22,1.47,1.72,3.13,2.67,4.28,36.83,45.02,97.54,81.26,154.21,94.02,7.98,1.8,16.5,3.57,24.5,3.97-29.93-30.39-56.73-64.48-76.78-102.27ZM6979.56,5909.67l-.67,1.31c15.25,24.08,32.57,46.94,52.29,67.54,1.98,2.07,15.41,15.9,16.56,15.9,26.71-23.47,47.48-53.03,65.19-83.76.02-.56-1.84-.99-2.3-.99h-131.06Z"/>
  </g>
</svg>
