<?xml version="1.0" encoding="UTF-8"?>
<svg xmlns="http://www.w3.org/2000/svg" xmlns:xlink="http://www.w3.org/1999/xlink" viewBox="0 0 1200 1200" width="1200" height="1200">
  <defs>
    <style>
      .cls-1 {
        fill: none;
      }

      .cls-2 {
        mask: url(#mask);
      }

      .cls-3 {
        fill: #030302;
      }

      .cls-4 {
        isolation: isolate;
      }

      .cls-5 {
        fill: #fff;
      }

      .cls-6 {
        mix-blend-mode: overlay;
      }

      .cls-7 {
        fill: #282826;
      }
    </style>
    <mask id="mask" x="14660.17" y="13707.54" width="232.64" height="232.64" maskUnits="userSpaceOnUse">
      <g id="cs_mask_1_star-8" data-name="cs mask 1 star-8">
        <path class="cls-5" d="M14776.49,13707.54c14.45,72.56,43.34,101.73,116.32,116.32-73,14.59-101.88,43.76-116.32,116.32-14.45-72.56-43.34-101.75-116.32-116.32,73-14.59,101.88-43.76,116.32-116.32Z"/>
      </g>
    </mask>
  </defs>
  <g transform="translate(-11608.562 -1550.783) scale(0.864494)">
    <g>
        <path d="M14480.44,2195.07v585.67h-253.03l-1.05-1.39c-2.84-17.48-8.15-34.38-13.97-51.02-9.47-27.12-24.35-52.26-26-81.22-.52-9.14,1.5-18.29-2.29-26.95-5.77-13.21-13.81-12.15-23.97-19.08-15.08-10.29-37.19-34.24-38.72-53.07-2.09-25.67,12.22-43.23,28.83-60.5,2.04-.27.95.57.85,1.66-1.25,14.12-3.18,28.37-2.11,42.64,1.7,22.68,24.05,49.49,47.52,50.77,5.43.3,22.18-2.44,25.39.2,2.16,1.78,8.11,14.72,10.45,18.38,5.52,8.6,12.46,15.4,19.82,22.42,8.43,8.04,30.44,24.24,35.76,32.47,3.34,5.17,7.15,20.33,10.67,27.51,7.2,14.7,8.25,10.31,23.07,11.05,1.73.09,3.27.75,4.85.84,11.16.61,22.4.55,33.53,1.45,9.89-15.46,23.44-29.75,33.32-45.05,1.13-1.75,3.44-4.29,3.46-6.33.02-1.93-6.89-16.35-8.3-19.4-7.3-15.77-16.23-30.81-23.02-46.83-12.1-28.52-21.99-58.79-33.35-87.67-2.72-8.13,8.41-22.37,6.58-29.3l-36.97-62.12,103.13-135.25-8.9.43-119.77,92.92-15.06-27.21c-.1-22.37,3.02-44.63,4-66.96-14.19,16.06-26.56,33.79-40.63,49.93-1.98,2.28-8.77,10.4-10.95,10.98-7.77-10.41-16.55-20.48-27.42-27.8-33.08-22.27-75.6-15.73-113.1-13.63-7.41.41-14.93.27-22.33.83,7.34,6.12,16.8,9.79,24.64,15.56,8.73,6.44,17.3,14.93,16.78,26.66-25.21-6.16-52.14-12.59-78.27-8.82-34.14,4.92-80.97,36.32-107.31,58.4-32.74,27.44-57.8,62.96-66.21,105.58,21.79-22.64,43.71-45.12,69.59-63.21,14.31-10,39.91-26.03,57.51-26.2,18.91-.19,14.48,18.2,5.71,28.5-55.98,65.75-134.25,105.78-138.55,204.24-.95,21.83,4.98,43.77,10.61,64.61,1.1.24.89-.83,1.2-1.61,3.83-9.54,5.91-19.78,10.28-29.54,9.24-20.63,31.34-51.17,50.63-63.09,3.72-2.3,8.08-5.23,12.61-4.84-12.54,38.31-19.8,78.15-30.45,116.97-7.04,25.66-15.46,54.17-34.94,73.1h-88.54c-.28,0-1.21-1.09-2.04-.82.02-.52.82-1.01.82-1.21v-583.64h715.64Z"/>
        <path d="M14265.76,2459.31c1.66,1.31,7.44,10.09,9.01,12.5,2.97,4.55,5.42,9.44,8.28,14.05-9.39-.08-21.01-1.04-29.67-4.84-13.19-5.79-18.42-22.74-23.93-34.95l36.32,13.23Z"/>
      </g>
  </g>
</svg>
