<?xml version="1.0" encoding="UTF-8"?>
<svg xmlns="http://www.w3.org/2000/svg" xmlns:xlink="http://www.w3.org/1999/xlink" viewBox="0 0 1200 1200" width="1200" height="1200">
  <defs>
    <style>
      .cls-1 {
        fill: none;
      }

      .cls-2 {
        mask: url(#mask);
      }

      .cls-3 {
        fill: #030302;
      }

      .cls-4 {
        isolation: isolate;
      }

      .cls-5 {
        fill: #fff;
      }

      .cls-6 {
        mix-blend-mode: overlay;
      }

      .cls-7 {
        fill: #282826;
      }
    </style>
    <mask id="mask" x="14660.17" y="13707.54" width="232.64" height="232.64" maskUnits="userSpaceOnUse">
      <g id="cs_mask_1_star-8" data-name="cs mask 1 star-8">
        <path class="cls-5" d="M14776.49,13707.54c14.45,72.56,43.34,101.73,116.32,116.32-73,14.59-101.88,43.76-116.32,116.32-14.45-72.56-43.34-101.75-116.32-116.32,73-14.59,101.88-43.76,116.32-116.32Z"/>
      </g>
    </mask>
  </defs>
  <g transform="translate(-7699.753 -4085.674) scale(0.648083)">
    <path d="M13386.19,7264.52h-144.37c-12.5,0-25.33-15.02-26.15-27.12-.87-12.75,10.53-31.47,24.02-31.47h216.82c13.6,90.44-38.96,178.65-121.81,214.29-104.01,44.75-226.21-3.29-270.78-106.74-6.85-15.9-10.69-32.36-15.12-49.01h-323.78c-47.21,1.94-64.8,53.88-28.2,84.74,6.87,5.8,24.77,15.43,33.58,15.43h242.39v69.24l-232.85.04c-76.8-2.02-148.27-66.39-132.29-147.26,1.49-7.56,4.59-14.62,6.08-22.15h-331.89c-12.64,0-31.14,14.03-36.63,25.16-13.95,28.24,4.39,58.5,31.11,69.84,2.87,1.22,13.79,5.13,16.17,5.13h218.95v67.64l-3.67,1.65c-67.53-2.61-137.42,3.28-204.67-.01-23.31-1.14-46.01-6.62-66.57-17.6-69.14-36.93-90.24-120.69-40.64-183.43-5.61-9.28-11.77-18.3-16-28.37-36.77-87.55,43.02-164.78,127.47-168.02l204.09.05v64.98h-209.36c-39.18,0-81.85,52.62-47.94,86.28,3.9,3.87,18.31,12.79,23.43,12.79h337.22c-28.5-72.44,26.05-139.59,94.6-158.41,11.29-3.1,22.2-4.41,33.8-5.62h229.6s0,64.97,0,64.97h-232.8c-11.08,0-31.05,8.61-39.87,15.53-34.55,27.15-27.01,77.3,18.51,83.58l331.93-.05c21.36-130.2,166.44-205.47,287.34-152.51,30.17,13.22,63.5,38.76,81.56,66.53.96,1.48,3.62,4.33,2.5,6.1l-55.48,34.89c-23.6-31.12-59.3-54.7-99.04-58.37-139.69-12.9-211.52,162.23-98.3,245.28,79.71,58.46,194.44,17.58,217.06-78Z"/>
  </g>
</svg>
