<?xml version="1.0" encoding="UTF-8"?>
<svg xmlns="http://www.w3.org/2000/svg" xmlns:xlink="http://www.w3.org/1999/xlink" viewBox="0 0 1200 1200" width="1200" height="1200">
  <defs>
    <style>
      .cls-1 {
        fill: none;
      }

      .cls-2 {
        mask: url(#mask);
      }

      .cls-3 {
        fill: #030302;
      }

      .cls-4 {
        isolation: isolate;
      }

      .cls-5 {
        fill: #fff;
      }

      .cls-6 {
        mix-blend-mode: overlay;
      }

      .cls-7 {
        fill: #282826;
      }
    </style>
    <mask id="mask" x="14660.17" y="13707.54" width="232.64" height="232.64" maskUnits="userSpaceOnUse">
      <g id="cs_mask_1_star-8" data-name="cs mask 1 star-8">
        <path class="cls-5" d="M14776.49,13707.54c14.45,72.56,43.34,101.73,116.32,116.32-73,14.59-101.88,43.76-116.32,116.32-14.45-72.56-43.34-101.75-116.32-116.32,73-14.59,101.88-43.76,116.32-116.32Z"/>
      </g>
    </mask>
  </defs>
  <g transform="translate(-5050.039 -5272.282) scale(0.714112)">
    <g>
        <path d="M8088.15,8196.09h0c-7.04-25.56-19.63-46.35-35.66-62.36-1.34-1.33-2.7-2.63-4.08-3.9-1.39-1.27-2.79-2.5-4.22-3.7-1.03-.87-2.07-1.72-3.12-2.54-1.14-.9-2.28-1.78-3.44-2.64-2.24-1.65-4.51-3.23-6.83-4.73-1.16-.75-2.33-1.49-3.51-2.2s-2.36-1.41-3.56-2.08c-.8-.45-1.6-.89-2.41-1.33-.61-.32-1.21-.64-1.82-.96-1.22-.63-2.44-1.25-3.68-1.84-.61-.3-1.23-.59-1.85-.88-.83-.38-1.67-.76-2.5-1.13-1.67-.73-3.35-1.43-5.04-2.1-1.16-.46-2.33-.9-3.5-1.33-1.18-.42-2.36-.84-3.54-1.23-.43-.14-.85-.29-1.28-.42-.71-.23-1.43-.46-2.14-.67-.69-.22-1.37-.42-2.06-.62-.7-.21-1.4-.41-2.11-.6-1.41-.39-2.83-.75-4.25-1.09-.67-.17-1.35-.32-2.02-.47-.63-.15-1.26-.29-1.89-.42-.84-.18-1.67-.35-2.51-.51-1.92-.37-3.84-.7-5.76-.99-.27-.04-.54-.08-.8-.12-1.66-.24-3.32-.46-4.98-.64-.2-.03-.39-.05-.58-.07-1.43-.15-2.86-.29-4.3-.4-.53-.04-1.05-.08-1.58-.11-1.31-.1-2.62-.17-3.93-.21-.65-.03-1.31-.05-1.96-.07-.68-.02-1.37-.03-2.05-.04-1.32-.01-2.63-.01-3.95,0-1.37.02-2.75.06-4.12.12-.69.03-1.38.06-2.07.1-.62.04-1.25.08-1.88.12-.16.01-.31.02-.45.03-.6.05-1.19.09-1.78.14-1.37.12-2.74.25-4.11.41t-.02,0c-.78.09-1.56.19-2.34.29-.58.08-1.17.16-1.75.24-1.17.16-2.33.34-3.49.54h-.01c-1.16.2-2.31.41-3.47.63-1.16.22-2.31.46-3.46.72-.57.13-1.15.26-1.72.39-.77.18-1.53.36-2.29.55t-.01,0c-2.28.58-4.55,1.21-6.8,1.89-.76.23-1.51.47-2.26.71-1.49.49-2.98,1-4.45,1.53h-.01c-1,.37-2,.74-3,1.13-.03.01-.05.02-.08.03-.9.35-1.8.71-2.69,1.08-.28.11-.55.23-.82.34-.82.34-1.63.69-2.43,1.05-.86.38-1.71.77-2.56,1.18-.23.1-.45.2-.68.32-.88.41-1.76.85-2.64,1.29-.93.47-1.86.95-2.79,1.45-.14.07-.28.15-.43.23-.6.32-1.19.65-1.78.98-.5.27-.99.55-1.48.84-.7.4-1.39.81-2.08,1.22-.78.47-1.55.94-2.31,1.42-1.53.97-3.05,1.97-4.55,3-.94.65-1.86,1.31-2.78,1.98-.87.64-1.73,1.28-2.59,1.94-.1.08-.21.16-.31.24-.85.66-1.69,1.33-2.52,2.01-.89.72-1.77,1.45-2.64,2.2-1.4,1.2-2.77,2.44-4.12,3.7-.67.64-1.34,1.28-2,1.93-8.61,8.44-16.2,18.31-22.45,29.58-.96,1.73-1.89,3.5-2.78,5.3-.45.9-.89,1.81-1.33,2.74-1.72,3.67-3.32,7.47-4.76,11.41-.37.98-.72,1.98-1.06,2.98-1.38,4.01-2.61,8.15-3.68,12.42h176.87v73.85h-176.87c.11.42.23.84.35,1.25.16.58.32,1.15.49,1.72.04.18.1.36.16.54.22.8.46,1.59.72,2.38.05.21.12.41.19.61.29.95.59,1.88.91,2.81.34,1.01.69,2.01,1.05,3,.36,1,.73,1.98,1.11,2.96.64,1.66,1.3,3.3,2,4.91.93,2.18,1.91,4.32,2.93,6.41.89,1.82,1.81,3.6,2.76,5.36,1.13,2.09,2.31,4.13,3.54,6.12,1.85,3.03,3.8,5.96,5.85,8.78,1.13,1.55,2.29,3.08,3.48,4.57,1.77,2.23,3.61,4.4,5.51,6.48,1.27,1.4,2.56,2.76,3.87,4.08,5.9,5.97,12.29,11.26,19.05,15.88,2.25,1.54,4.55,3.01,6.88,4.4.97.58,1.95,1.15,2.94,1.7.98.55,1.97,1.09,2.97,1.62h.01c.99.53,2,1.05,3.01,1.55,1,.51,2.02,1,3.04,1.47,3.26,1.53,6.58,2.92,9.95,4.18.74.28,1.47.55,2.21.81,1.49.53,2.97,1.03,4.47,1.5,1.5.48,3,.93,4.51,1.35,1.51.43,3.03.83,4.55,1.2.76.19,1.53.37,2.29.54.66.15,1.31.3,1.97.43.46.1.93.2,1.39.29,1.05.22,2.1.42,3.16.61.46.08.93.16,1.39.24.66.11,1.33.22,1.99.32,1.32.21,2.65.39,3.99.56.06.01.11.01.17.02.94.12,1.89.23,2.84.32,1,.11,2,.2,3.01.29,1.11.09,2.22.17,3.33.24.9.05,1.8.1,2.7.13,1.11.05,2.23.09,3.36.1.9.02,1.79.03,2.69.03.77,0,1.54-.01,2.3-.02.47,0,.94-.01,1.4-.03.61-.01,1.22-.03,1.83-.06.61-.02,1.23-.05,1.85-.08.61-.03,1.23-.06,1.84-.1.64-.04,1.29-.09,1.93-.14.43-.03.85-.06,1.27-.1,1.47-.13,2.93-.27,4.39-.45.7-.08,1.4-.16,2.1-.26.44-.05.89-.12,1.33-.18.61-.08,1.22-.17,1.83-.27.23-.03.47-.07.71-.11.52-.08,1.05-.17,1.57-.26,1.67-.28,3.34-.6,5-.94.88-.18,1.76-.37,2.63-.57,2.62-.59,5.22-1.26,7.8-2,1.73-.5,3.46-1.03,5.17-1.6,1.7-.55,3.39-1.14,5.07-1.77,1.7-.63,3.38-1.3,5.05-2,1.66-.69,3.3-1.41,4.93-2.17t.02,0c1.63-.76,3.25-1.55,4.86-2.37.89-.46,1.78-.93,2.66-1.41,1.39-.75,2.76-1.52,4.12-2.33,7.97-4.68,15.51-10.21,22.49-16.61,1.37-1.25,2.71-2.53,4.03-3.85,2.01-2,3.95-4.07,5.84-6.21,1.14-1.29,2.25-2.59,3.33-3.93,2.16-2.64,4.23-5.38,6.2-8.23.91-1.3,1.79-2.61,2.65-3.95.07-.12.15-.23.22-.34.47-.74.94-1.48,1.39-2.23,3.12-5.07,5.96-10.44,8.5-16.11.43-.94.85-1.9,1.25-2.86.42-.96.82-1.93,1.2-2.91.78-1.94,1.52-3.92,2.23-5.93,0-.01,0-.02,0-.03,1.07-3.02,2.05-6.12,2.95-9.29h69.75c-1.51,8.95-3.47,17.55-5.83,25.8-.47,1.64-.96,3.27-1.46,4.88-1.82,5.82-3.84,11.45-6.06,16.91-.51,1.25-1.03,2.5-1.55,3.73l-1.17,2.67c-.66,1.47-1.34,2.93-2.02,4.38-.35.73-.7,1.46-1.06,2.19-.88,1.8-1.78,3.57-2.7,5.32h-.01c-.92,1.76-1.87,3.49-2.83,5.2-.46.81-.92,1.62-1.39,2.42-.33.56-.66,1.11-.99,1.66-.8,1.34-1.61,2.67-2.44,3.98-1.24,1.96-2.51,3.9-3.8,5.8-.44.64-.88,1.28-1.33,1.91-1.2,1.71-2.41,3.39-3.65,5.05-.27.35-.53.7-.8,1.05-.78,1.03-1.57,2.05-2.37,3.06-.95,1.19-1.9,2.37-2.87,3.53-1.93,2.32-3.9,4.58-5.92,6.78h0c-1.02,1.11-2.04,2.2-3.06,3.27-1.04,1.07-2.08,2.13-3.13,3.18-6.85,6.81-14.13,13.03-21.79,18.65-1.17.86-2.35,1.71-3.54,2.55-1.2.84-2.41,1.66-3.62,2.47-1.21.81-2.43,1.6-3.65,2.39-2.46,1.56-4.95,3.07-7.46,4.52-1.88,1.08-3.78,2.14-5.7,3.17h0c-1.91,1.02-3.84,2.01-5.79,2.98h-.01c-3.24,1.6-6.52,3.11-9.84,4.55h-.01c-1.99.85-4,1.68-6.01,2.48h-.01c-2.02.79-4.04,1.55-6.08,2.29h-.01c-.76.27-1.53.54-2.3.81-1.54.53-3.08,1.04-4.63,1.54-.77.24-1.55.49-2.32.73-1.56.47-3.12.94-4.68,1.38-1.57.44-3.13.87-4.71,1.28h-.01c-4.55,1.18-9.14,2.21-13.76,3.09-3.45.66-6.93,1.24-10.41,1.74-1.17.16-2.35.32-3.52.47-2.32.29-4.65.55-6.98.77h-.03c-9.1.86-18.25,1.16-27.39.91-2.24-.07-4.49-.16-6.73-.29-.03,0-.05,0-.08,0-1.79-.11-3.57-.24-5.35-.38h-.01c-1.79-.15-3.57-.32-5.35-.5-1.43-.16-2.86-.32-4.3-.5-.71-.09-1.42-.18-2.14-.28-1.43-.2-2.86-.4-4.29-.62-4.99-.78-9.95-1.72-14.88-2.83-.1-.03-.21-.05-.32-.07-2.71-.62-5.4-1.29-8.08-2-.7-.19-1.39-.38-2.09-.57-.7-.2-1.39-.39-2.08-.59-2.78-.81-5.53-1.66-8.27-2.57-.15-.05-.3-.1-.45-.15-1.22-.41-2.44-.83-3.65-1.26-.68-.24-1.36-.49-2.04-.74-.46-.17-.93-.34-1.4-.52-.88-.32-1.76-.66-2.65-1.01-1.25-.49-2.5-.99-3.74-1.5-3.63-1.49-7.22-3.09-10.77-4.79-1.11-.54-2.21-1.08-3.31-1.63-.56-.28-1.11-.56-1.67-.84-.29-.15-.59-.31-.89-.46-1.08-.56-2.15-1.13-3.22-1.71-.63-.34-1.27-.69-1.9-1.04-.85-.48-1.7-.96-2.55-1.44-1-.58-2.01-1.17-3-1.76-1.28-.77-2.55-1.55-3.82-2.34-.61-.39-1.22-.78-1.83-1.17-.62-.39-1.22-.79-1.83-1.19-.6-.39-1.2-.79-1.8-1.2-4.82-3.26-9.53-6.74-14.09-10.44-.44-.35-.87-.71-1.31-1.07-.69-.58-1.38-1.16-2.07-1.74-.56-.47-1.12-.95-1.67-1.44-.81-.71-1.63-1.43-2.44-2.16-.56-.5-1.1-1-1.65-1.5s-1.09-1.01-1.63-1.52c-.54-.51-1.08-1.03-1.62-1.54-.45-.43-.89-.87-1.34-1.3-.34-.35-.69-.69-1.04-1.04-.52-.52-1.04-1.05-1.56-1.58-.82-.85-1.65-1.7-2.47-2.56-.39-.43-.79-.85-1.19-1.28-.31-.34-.63-.69-.94-1.03-.42-.45-.83-.9-1.24-1.36-.86-.97-1.71-1.94-2.56-2.93-.5-.57-.98-1.15-1.47-1.73-.46-.55-.92-1.1-1.38-1.66-.27-.33-.54-.66-.81-1-.41-.51-.82-1.02-1.23-1.53-.29-.37-.58-.75-.88-1.12-.43-.55-.85-1.09-1.27-1.64-1.43-1.88-2.83-3.8-4.21-5.74-.4-.56-.79-1.12-1.18-1.69-.26-.37-.51-.74-.76-1.11-.4-.58-.79-1.16-1.17-1.74-3.27-4.92-6.35-10.04-9.23-15.36-.3-.55-.6-1.1-.9-1.66-.95-1.82-1.89-3.66-2.8-5.52-.33-.66-.65-1.33-.97-2-.25-.52-.49-1.04-.73-1.55-.3-.65-.6-1.3-.9-1.95-.52-1.16-1.04-2.33-1.54-3.5-.27-.61-.54-1.23-.79-1.85-.32-.75-.63-1.5-.94-2.26-1.16-2.85-2.26-5.75-3.31-8.7-.28-.79-.56-1.58-.83-2.38-.18-.51-.35-1.02-.52-1.54-.37-1.08-.72-2.17-1.07-3.27-.21-.64-.41-1.28-.6-1.93-.31-.99-.6-1.98-.89-2.97-.24-.82-.48-1.65-.71-2.48-.15-.52-.29-1.04-.43-1.57-.13-.46-.26-.93-.38-1.4-.27-1.03-.54-2.06-.8-3.1-.16-.64-.32-1.29-.47-1.94-.61-2.54-1.19-5.11-1.72-7.71-.18-.86-.35-1.73-.52-2.61-.17-.87-.34-1.75-.5-2.63-.01-.04-.01-.08-.02-.12-.02-.11-.04-.22-.06-.34-.02-.12-.04-.24-.05-.37-1.64-12.52-2.46-25.26-2.46-38.24s.86-26.53,2.59-39.39c6.82-40.54,23.06-73.83,45.32-99.87.74-.86,1.48-1.7,2.22-2.54.49-.55.98-1.1,1.47-1.64,1.98-2.17,3.99-4.29,6.05-6.36,1.03-1.03,2.07-2.05,3.12-3.06.52-.5,1.05-1,1.58-1.49,1.01-.95,2.04-1.89,3.07-2.82,3.28-2.94,6.65-5.76,10.1-8.45.58-.45,1.16-.9,1.74-1.34.58-.44,1.16-.88,1.75-1.32,1.76-1.31,3.53-2.58,5.33-3.83,2.24-1.56,4.52-3.07,6.82-4.53,2.3-1.45,4.63-2.86,6.98-4.22.94-.54,1.89-1.08,2.84-1.61.63-.35,1.27-.7,1.91-1.05,1.91-1.03,3.83-2.04,5.77-3.02,1.3-.65,2.6-1.28,3.91-1.91.65-.31,1.31-.62,1.96-.92,1.15-.53,2.3-1.05,3.46-1.57,2.32-1.02,4.66-2,7.01-2.94,1.17-.46,2.35-.92,3.54-1.37.68-.26,1.36-.51,2.04-.76,1.35-.5,2.72-.98,4.09-1.45s2.74-.93,4.12-1.37c1.92-.62,3.86-1.21,5.81-1.78,1.52-.44,3.06-.87,4.6-1.28.7-.19,1.4-.37,2.1-.55,3.5-.9,7.03-1.71,10.58-2.44.71-.14,1.42-.28,2.13-.42.8-.16,1.6-.31,2.4-.46.63-.11,1.25-.22,1.87-.33.72-.12,1.43-.25,2.15-.36,1.35-.23,2.71-.44,4.07-.64,5.19-.75,10.41-1.33,15.65-1.72,1.03-.08,2.05-.15,3.08-.21,61.54-3.78,124.73,17.44,167.97,63.61,1.02,1.09,2.03,2.2,3.04,3.32,12.02,13.47,22.39,28.95,30.6,46.45.68,1.46,1.35,2.93,2.01,4.42.32.74.65,1.49.97,2.24.64,1.5,1.26,3.01,1.87,4.54.3.77.6,1.53.9,2.3.59,1.55,1.17,3.1,1.73,4.67.56,1.57,1.1,3.16,1.63,4.76.26.8.52,1.6.78,2.4,1.27,4.04,2.45,8.15,3.52,12.36,1.7,6.73,3.13,13.68,4.27,20.85h0s-69.75,0-69.75,0Z"/>
        <path d="M8287.99,8199.36c-21.85-246.94-295.78-383.43-508.85-256.89-244.66,145.28-206.58,516.54,61.79,609.57,226.18,78.41,447.77-87.88,448.5-318.97.04-11.09-.43-22.34-1.44-33.71ZM8215.36,8269.95c-23.73,167.88-196.25,273.12-356.93,211.25-3.13-1.2-6.23-2.47-9.3-3.79-1.02-.43-2.04-.87-3.06-1.33-1.35-.6-2.7-1.21-4.05-1.84-1.34-.61-2.68-1.25-4.02-1.9-1.33-.65-2.67-1.3-3.99-1.97-1.32-.66-2.64-1.34-3.95-2.04-2.31-1.21-4.6-2.45-6.87-3.73-1.18-.66-2.35-1.33-3.52-2.02-68.63-39.88-119.31-109.31-129.63-189.26-.84-6.41-1.47-12.88-1.9-19.41-.43-6.52-.64-13.11-.64-19.76,0-13.39.86-26.61,2.59-39.52,6.22-55.32,32.34-105.91,70.42-145.26,13.36-13.81,28.2-26.23,44.17-36.97.99-.68,1.99-1.34,3-1.99,1-.66,2.01-1.32,3.03-1.96,2.2-1.41,4.42-2.78,6.66-4.11,2.24-1.34,4.49-2.65,6.77-3.91,1.14-.64,2.28-1.27,3.43-1.89,5.3-2.87,10.69-5.56,16.17-8.05.08-.04.15-.08.23-.11,1.49-.68,2.98-1.35,4.48-1.99,1.58-.69,3.17-1.36,4.76-2.01.79-.33,1.59-.65,2.39-.97.07-.03.13-.05.19-.08,1.54-.61,3.08-1.21,4.63-1.79,1.61-.61,3.23-1.2,4.85-1.77.81-.29,1.63-.58,2.44-.85,3.25-1.12,6.53-2.17,9.83-3.16.82-.25,1.65-.49,2.48-.73,7.45-2.15,15.01-3.96,22.64-5.42,149.78-28.61,293.02,73.56,312.7,224.47h0c1.68,12.06,2.55,24.3,2.55,36.79s-.86,24.96-2.58,37.08h.03Z"/>
      </g>
  </g>
</svg>
