<?xml version="1.0" encoding="UTF-8"?>
<svg xmlns="http://www.w3.org/2000/svg" xmlns:xlink="http://www.w3.org/1999/xlink" viewBox="0 0 1200 1200" width="1200" height="1200">
  <defs>
    <style>
      .cls-1 {
        fill: none;
      }

      .cls-2 {
        mask: url(#mask);
      }

      .cls-3 {
        fill: #030302;
      }

      .cls-4 {
        isolation: isolate;
      }

      .cls-5 {
        fill: #fff;
      }

      .cls-6 {
        mix-blend-mode: overlay;
      }

      .cls-7 {
        fill: #282826;
      }
    </style>
    <mask id="mask" x="14660.17" y="13707.54" width="232.64" height="232.64" maskUnits="userSpaceOnUse">
      <g id="cs_mask_1_star-8" data-name="cs mask 1 star-8">
        <path class="cls-5" d="M14776.49,13707.54c14.45,72.56,43.34,101.73,116.32,116.32-73,14.59-101.88,43.76-116.32,116.32-14.45-72.56-43.34-101.75-116.32-116.32,73-14.59,101.88-43.76,116.32-116.32Z"/>
      </g>
    </mask>
  </defs>
  <g transform="translate(-1296.285 -2845.842) scale(1.057451)">
    <g>
        <path d="M2066.98,3395.26c-4.11,30.38-31.86,59-61.25,66.17-143.81,6.26-288.8.7-433.02,2.83-17.93,3.84-31.9,12.35-43.22,26.66l-11.44,22.47v-87.32c0-27.02,44.48-66.77,70.93-66.77h478c-1.08,11.32,1.49,24.98,0,35.95Z"/>
        <path d="M1518.05,3312.05v-38.01c0-24.37,42.52-66.77,66.82-66.77h482.12v35.95c0,30.42-45.16,68.83-75.04,68.83h-473.89Z"/>
        <path d="M1518.05,3157.96v-35.95c0-25.76,38.62-64.69,65.3-66.24l414.74-.56c25.38-1.8,46.56-9.71,60.31-32.18l8.58-19.16v87.32c0,9.44-15.46,36.04-22.52,43.24-6.34,6.47-34.27,23.53-42.24,23.53h-484.17Z"/>
      </g>
  </g>
</svg>
