<?xml version="1.0" encoding="UTF-8"?>
<svg xmlns="http://www.w3.org/2000/svg" xmlns:xlink="http://www.w3.org/1999/xlink" viewBox="0 0 1200 1200" width="1200" height="1200">
  <defs>
    <style>
      .cls-1 {
        fill: none;
      }

      .cls-2 {
        mask: url(#mask);
      }

      .cls-3 {
        fill: #030302;
      }

      .cls-4 {
        isolation: isolate;
      }

      .cls-5 {
        fill: #fff;
      }

      .cls-6 {
        mix-blend-mode: overlay;
      }

      .cls-7 {
        fill: #282826;
      }
    </style>
    <mask id="mask" x="14660.17" y="13707.54" width="232.64" height="232.64" maskUnits="userSpaceOnUse">
      <g id="cs_mask_1_star-8" data-name="cs mask 1 star-8">
        <path class="cls-5" d="M14776.49,13707.54c14.45,72.56,43.34,101.73,116.32,116.32-73,14.59-101.88,43.76-116.32,116.32-14.45-72.56-43.34-101.75-116.32-116.32,73-14.59,101.88-43.76,116.32-116.32Z"/>
      </g>
    </mask>
  </defs>
  <g transform="translate(-12208.076 -86.826) scale(0.874447)">
    <path d="M14230.39,807.11c-1.17-1.02,3-6.25,4-7.54,3.8-4.88,47.96-35.68,55.54-39.85,24.2-13.34,49.46-13.12,75.48-5.32,26.82,8.04,56.83,32.61,85.6,29.46,44.55-4.88,117.35-102.68,150.13-136.03,89.95-91.51,161.57-98.72,285.5-102.21,54.68-1.54,119.66-5.56,173.81-1.6,2.29.17,4.45-1.2,3.81,2.29l-52.28,56.96c-16.86,15.19-34.19,26.75-57.65,28.5-74.18,5.56-162.94-19.22-224.64,30.76l-17.74,16.88h235.4c-.18,3.39-3.29,6.71-5.36,9.25-21.55,26.41-55.03,66.44-90.74,69.27-51.46,4.07-108.32-3.58-160.13-.12-36.81,2.46-61.75,20.35-83.77,48.55-.39,4.71,1.67.75,2.3.75h231.55c-1.26,4.22-5.58,8.89-8.44,12.33-89.84,108.05-171.36,211.38-323.38,131.02-57.47-30.38-175.03-143.35-230.52-143.35h-48.46Z"/>
  </g>
</svg>
