<?xml version="1.0" encoding="UTF-8"?>
<svg xmlns="http://www.w3.org/2000/svg" xmlns:xlink="http://www.w3.org/1999/xlink" viewBox="0 0 1200 1200" width="1200" height="1200">
  <defs>
    <style>
      .cls-1 {
        fill: none;
      }

      .cls-2 {
        mask: url(#mask);
      }

      .cls-3 {
        fill: #030302;
      }

      .cls-4 {
        isolation: isolate;
      }

      .cls-5 {
        fill: #fff;
      }

      .cls-6 {
        mix-blend-mode: overlay;
      }

      .cls-7 {
        fill: #282826;
      }
    </style>
    <mask id="mask" x="14660.17" y="13707.54" width="232.64" height="232.64" maskUnits="userSpaceOnUse">
      <g id="cs_mask_1_star-8" data-name="cs mask 1 star-8">
        <path class="cls-5" d="M14776.49,13707.54c14.45,72.56,43.34,101.73,116.32,116.32-73,14.59-101.88,43.76-116.32,116.32-14.45-72.56-43.34-101.75-116.32-116.32,73-14.59,101.88-43.76,116.32-116.32Z"/>
      </g>
    </mask>
  </defs>
  <g transform="translate(-16501.793 -14470.434) scale(1.363314)">
    <path d="M12749.14,11096.12h-299.53c-1.39,0-.26,3.47-.23,4.35,1.41,47.54,28.05,77.02,76.32,78.97l221.67-.05,1.77.8v79.96h-258.9c-81.68-3.76-143.69-60.04-148.86-142.7-1.98-31.68-1.6-70.05-.03-101.83,4.36-88.1,67.58-161.35,158.12-165.84,28.28-1.4,61.57-.79,90.03,0,92.76,2.59,156.71,65.69,159.66,158.63l-.02,87.69ZM12642.7,11015.39c-.49-19.59-5.63-37.96-17.79-53.42-17.7-22.51-41.38-30.44-69.34-31.44-34.54-1.24-66.07-.36-88.93,28.87-12.35,15.79-17.46,36.1-17.28,56h193.34Z"/>
  </g>
</svg>
