<?xml version="1.0" encoding="UTF-8"?>
<svg xmlns="http://www.w3.org/2000/svg" xmlns:xlink="http://www.w3.org/1999/xlink" viewBox="0 0 1200 1200" width="1200" height="1200">
  <defs>
    <style>
      .cls-1 {
        fill: none;
      }

      .cls-2 {
        mask: url(#mask);
      }

      .cls-3 {
        fill: #030302;
      }

      .cls-4 {
        isolation: isolate;
      }

      .cls-5 {
        fill: #fff;
      }

      .cls-6 {
        mix-blend-mode: overlay;
      }

      .cls-7 {
        fill: #282826;
      }
    </style>
    <mask id="mask" x="14660.17" y="13707.54" width="232.64" height="232.64" maskUnits="userSpaceOnUse">
      <g id="cs_mask_1_star-8" data-name="cs mask 1 star-8">
        <path class="cls-5" d="M14776.49,13707.54c14.45,72.56,43.34,101.73,116.32,116.32-73,14.59-101.88,43.76-116.32,116.32-14.45-72.56-43.34-101.75-116.32-116.32,73-14.59,101.88-43.76,116.32-116.32Z"/>
      </g>
    </mask>
  </defs>
  <g transform="translate(1200 0) scale(-1 1)">
    <g transform="translate(-9934.296 -1485.677) scale(0.832875)">
      <path d="M12487.87,2810.69h-208.5l125-123h-111l111-110h-105c15.5-15.93,31.39-31.67,47.47-47.03,59.21-56.53,120.52-117.66,199.01-145.99,29.55-10.66,60.47-16.62,91.46-21.54l50.56-44.44-1.5,43.99,64.99-34.99-12.85,44.29c3.95,3.92,25.42,29.26,29.2,28.59l249.15-202.88-211.33,242.51,61.82,62.49h-56l104.58,183.99-28.72,58.37c-2.23,2.77-13.31,4.38-17.33,4.67-9.03.67-20.83.84-29.99,1.01-4.09.07-25.8.54-27.56-.52l-15.95-40.05-84.07-68.92c-3.98-3.24-8.92.16-13.47.43-30.54,1.8-55.04-11.89-68.86-39.11-3.09-6.09-8.62-20.91-8.62-27.38v-44.5c-8.49,9.92-13.19,24.76-14.88,37.62-7.53,57.2,40.97,107.5,97.74,105.52l46.14,136.86h-229M12701.97,2487.91c10.42,9.86,20.98,37.45,20.98,48.99h36.71M12862.09,2667.98c-2.36-1.93-12.46-1.75-12.79.33l13.57,39.38,13.46-19.5c-.08-2.42-8.34-10.91-10.39-13.56-1.28-1.65-2.59-5.6-3.85-6.64Z"/>
    </g>
  </g>
</svg>
