<?xml version="1.0" encoding="UTF-8"?>
<svg xmlns="http://www.w3.org/2000/svg" xmlns:xlink="http://www.w3.org/1999/xlink" viewBox="0 0 1200 1200" width="1200" height="1200">
  <defs>
    <style>
      .cls-1 {
        fill: none;
      }

      .cls-2 {
        mask: url(#mask);
      }

      .cls-3 {
        fill: #030302;
      }

      .cls-4 {
        isolation: isolate;
      }

      .cls-5 {
        fill: #fff;
      }

      .cls-6 {
        mix-blend-mode: overlay;
      }

      .cls-7 {
        fill: #282826;
      }
    </style>
    <mask id="mask" x="14660.17" y="13707.54" width="232.64" height="232.64" maskUnits="userSpaceOnUse">
      <g id="cs_mask_1_star-8" data-name="cs mask 1 star-8">
        <path class="cls-5" d="M14776.49,13707.54c14.45,72.56,43.34,101.73,116.32,116.32-73,14.59-101.88,43.76-116.32,116.32-14.45-72.56-43.34-101.75-116.32-116.32,73-14.59,101.88-43.76,116.32-116.32Z"/>
      </g>
    </mask>
  </defs>
  <g transform="translate(-11783.152 -10617.381) scale(0.877575)">
    <path d="M14402.49,12433.43l-25.17,141.45-277.47,79.63c-3.99,1.34-6.21,4.7-7.24,8.66-4.06,15.6-4.16,34.3-8.14,50.19-.04,2.84,1.51,3.78,4.23,3.6l278.66-81.47-23.27,141.03-274,80.79c-4.57,1.9-6.99,6.58-8,11.22-2.58,11.81-5.93,32.96-6.77,44.9-.09,1.26-.3,4.85.28,5.66l3.33.63,271.96-80.54,3.34-.29-18.74,113.42c-2.29,15.24-11.83,28.37-26.32,33.97-80.29,24.46-160.81,48.22-240.99,73.05-76.52,23.69-152.56,49.02-229.38,71.73l82.99-524.87c7.77-34.06,34.36-38.93,62.9-47.08,145.99-41.67,292.06-83.14,437.78-125.68Z"/>
  </g>
</svg>
