<?xml version="1.0" encoding="UTF-8"?>
<svg xmlns="http://www.w3.org/2000/svg" xmlns:xlink="http://www.w3.org/1999/xlink" viewBox="0 0 1200 1200" width="1200" height="1200">
  <defs>
    <style>
      .cls-1 {
        fill: none;
      }

      .cls-2 {
        mask: url(#mask);
      }

      .cls-3 {
        fill: #030302;
      }

      .cls-4 {
        isolation: isolate;
      }

      .cls-5 {
        fill: #fff;
      }

      .cls-6 {
        mix-blend-mode: overlay;
      }

      .cls-7 {
        fill: #282826;
      }
    </style>
    <mask id="mask" x="14660.17" y="13707.54" width="232.64" height="232.64" maskUnits="userSpaceOnUse">
      <g id="cs_mask_1_star-8" data-name="cs mask 1 star-8">
        <path class="cls-5" d="M14776.49,13707.54c14.45,72.56,43.34,101.73,116.32,116.32-73,14.59-101.88,43.76-116.32,116.32-14.45-72.56-43.34-101.75-116.32-116.32,73-14.59,101.88-43.76,116.32-116.32Z"/>
      </g>
    </mask>
  </defs>
  <g transform="translate(-2761.958 -6430.022) scale(0.538721)">
    <g>
        <path d="M6729.81,12947.47h-122.86c-38.5-107.53-144.31-184.33-256.85-199.21-283.34-37.46-480.45,270.63-316.94,510.28,145.68,213.51,497.02,190.28,586.07-59.29h-170.47c-2.75,0-35.08,27.21-44.48,32.3-114.69,62.05-262.28-1.02-276.49-133.62h628.12c1.53,0,5.06,5.07,4.71,7.64-15.17,278.16-265.37,463.06-537.72,408.52-380.38-76.17-502.61-574.21-179-805.55,249.3-178.23,606.71-55,685.91,238.93Z"/>
        <path d="M6477.95,13024.24h-342.47l-3.28-6.24c55.65-165.82,299.03-164.6,345.75,6.24Z"/>
      </g>
  </g>
</svg>
