<?xml version="1.0" encoding="UTF-8"?>
<svg xmlns="http://www.w3.org/2000/svg" xmlns:xlink="http://www.w3.org/1999/xlink" viewBox="0 0 1200 1200" width="1200" height="1200">
  <defs>
    <style>
      .cls-1 {
        fill: none;
      }

      .cls-2 {
        mask: url(#mask);
      }

      .cls-3 {
        fill: #030302;
      }

      .cls-4 {
        isolation: isolate;
      }

      .cls-5 {
        fill: #fff;
      }

      .cls-6 {
        mix-blend-mode: overlay;
      }

      .cls-7 {
        fill: #282826;
      }
    </style>
    <mask id="mask" x="14660.17" y="13707.54" width="232.64" height="232.64" maskUnits="userSpaceOnUse">
      <g id="cs_mask_1_star-8" data-name="cs mask 1 star-8">
        <path class="cls-5" d="M14776.49,13707.54c14.45,72.56,43.34,101.73,116.32,116.32-73,14.59-101.88,43.76-116.32,116.32-14.45-72.56-43.34-101.75-116.32-116.32,73-14.59,101.88-43.76,116.32-116.32Z"/>
      </g>
    </mask>
  </defs>
  <g transform="translate(-8867.670 -312.081) scale(0.845294)">
    <path d="M11515.86,870.97l-420.61-4.31-46.36,75.39,466.97,4.25-54.48,88.59c-156.11-2.53-312.35-2.24-468.44-2.82-5.7,9.1-10.82,18.75-16.59,28.01-6.58,10.56-12.9,20.85-19.32,31.49-1.39,2.3-12.19,14.24-9.33,15.98l466.54,4.01-163.96,266.62-291.98-3.73-53.68-98.51,1.6-1.42,302.3,1.67,47.67-77.52-385.3-1.47-3.32-2.16-33.89-66.83,214.16-347.62,4.18-.75,515.18,7.66-51.34,83.48Z"/>
  </g>
</svg>
