<?xml version="1.0" encoding="UTF-8"?>
<svg xmlns="http://www.w3.org/2000/svg" xmlns:xlink="http://www.w3.org/1999/xlink" viewBox="0 0 1200 1200" width="1200" height="1200">
  <defs>
    <style>
      .cls-1 {
        fill: none;
      }

      .cls-2 {
        mask: url(#mask);
      }

      .cls-3 {
        fill: #030302;
      }

      .cls-4 {
        isolation: isolate;
      }

      .cls-5 {
        fill: #fff;
      }

      .cls-6 {
        mix-blend-mode: overlay;
      }

      .cls-7 {
        fill: #282826;
      }
    </style>
    <mask id="mask" x="14660.17" y="13707.54" width="232.64" height="232.64" maskUnits="userSpaceOnUse">
      <g id="cs_mask_1_star-8" data-name="cs mask 1 star-8">
        <path class="cls-5" d="M14776.49,13707.54c14.45,72.56,43.34,101.73,116.32,116.32-73,14.59-101.88,43.76-116.32,116.32-14.45-72.56-43.34-101.75-116.32-116.32,73-14.59,101.88-43.76,116.32-116.32Z"/>
      </g>
    </mask>
  </defs>
  <g transform="translate(-25423.222 -19418.088) scale(2.210801)">
    <path d="M11862.08,9032.12c.44.12,6.01,5.64,6.37,6.43,3.35,7.29-4.52,32.85-13.18,34.79l-127.74.47c-8.25,1.58-12.16,25.55-4.97,30.53,6.19,4.28,61.73,4,72.02,2.88,15.8-1.71,22.8-12.87,30.73-14.13,9.49-1.5,46.73-2.22,50.07,9.07,1.92,6.5-10,36.5-14.38,42.65-6.28,8.82-15.81,11.53-26.11,12.34-55.72-2.78-114.64,3.49-169.97.02-23.74-1.49-45.35-9.37-42.19-37.56,17.09-40.62,27.85-93.25,47.6-131.83,12.66-24.74,35.12-34.11,61.9-35.83,45.25-2.92,115.28-3.24,160.35,0,10.73.77,25.81,4.16,27.88,16.97,1.86,11.48-4.91,40.15-18.42,42.28-11.41,1.8-48.77,1.41-60.82.09-11.02-1.21-7.58-12.26-20.9-14.32-9.44-1.46-46.43-1.46-55.87,0-14.88,2.3-21.59,22.56-24.94,35.14h122.57Z"/>
  </g>
</svg>
