<?xml version="1.0" encoding="UTF-8"?>
<svg xmlns="http://www.w3.org/2000/svg" xmlns:xlink="http://www.w3.org/1999/xlink" viewBox="0 0 1200 1200" width="1200" height="1200">
  <defs>
    <style>
      .cls-1 {
        fill: none;
      }

      .cls-2 {
        mask: url(#mask);
      }

      .cls-3 {
        fill: #030302;
      }

      .cls-4 {
        isolation: isolate;
      }

      .cls-5 {
        fill: #fff;
      }

      .cls-6 {
        mix-blend-mode: overlay;
      }

      .cls-7 {
        fill: #282826;
      }
    </style>
    <mask id="mask" x="14660.17" y="13707.54" width="232.64" height="232.64" maskUnits="userSpaceOnUse">
      <g id="cs_mask_1_star-8" data-name="cs mask 1 star-8">
        <path class="cls-5" d="M14776.49,13707.54c14.45,72.56,43.34,101.73,116.32,116.32-73,14.59-101.88,43.76-116.32,116.32-14.45-72.56-43.34-101.75-116.32-116.32,73-14.59,101.88-43.76,116.32-116.32Z"/>
      </g>
    </mask>
  </defs>
  <g transform="translate(-21956.163 -15601.426) scale(1.659326)">
    <path d="M13811.63,9633.28l-25.09,65.43-219.06.16-10.59,30.54h208.28l-22.81,56.5-5.95,5.27-202.5.65-10.67,30.51h221.1c-3.63,24.39-23.64,54.53-46.47,64.88-4.54,2.06-22.18,7.22-26.43,7.22h-295.6c-.33-5.29,1.97-10,3.61-14.81,19.54-57.21,44.21-120.21,67.28-176.25,10.03-24.37,17.01-44.16,41.76-57.57,8.07-4.37,31.79-12.52,40.35-12.52h282.78Z"/>
  </g>
</svg>
