<?xml version="1.0" encoding="UTF-8"?>
<svg xmlns="http://www.w3.org/2000/svg" xmlns:xlink="http://www.w3.org/1999/xlink" viewBox="0 0 1200 1200" width="1200" height="1200">
  <defs>
    <style>
      .cls-1 {
        fill: none;
      }

      .cls-2 {
        mask: url(#mask);
      }

      .cls-3 {
        fill: #030302;
      }

      .cls-4 {
        isolation: isolate;
      }

      .cls-5 {
        fill: #fff;
      }

      .cls-6 {
        mix-blend-mode: overlay;
      }

      .cls-7 {
        fill: #282826;
      }
    </style>
    <mask id="mask" x="14660.17" y="13707.54" width="232.64" height="232.64" maskUnits="userSpaceOnUse">
      <g id="cs_mask_1_star-8" data-name="cs mask 1 star-8">
        <path class="cls-5" d="M14776.49,13707.54c14.45,72.56,43.34,101.73,116.32,116.32-73,14.59-101.88,43.76-116.32,116.32-14.45-72.56-43.34-101.75-116.32-116.32,73-14.59,101.88-43.76,116.32-116.32Z"/>
      </g>
    </mask>
  </defs>
  <g transform="translate(-3133.139 -2909.908) scale(0.608209)">
    <path d="M6569.02,5786.94h-338.57c-.57,0-4.89,1.21-5.04,1.97,16.91,72.57,84.49,121.66,159.26,113.69,53.41-5.69,98.43-42,119.42-90.63l60.52.67,1.66.75c1.52,2.17-4.59,30.62-5.66,35.41-55.6,248.48-325.27,394.63-562.17,287.44-217.94-98.61-309.03-366.08-194.24-577.96,97.56-180.07,304.8-259.92,499.37-190.65,168.44,59.97,282.87,240.71,265.46,419.31ZM6173.83,5448.76c-1.59-2.26-4.3-4.25-6.49-5.95-10.17-7.85-50.8-32.81-62.18-32.66-4.56.06-13.32,2.48-18.23,3.52-60.24,12.74-118.68,43.76-161.3,88.1,32.15,1.74,64.06,4.93,95.85,9.78,9.62,1.47,19.19,4.34,28.88,4.52,12.92-9.26,24.89-19.71,38.21-28.45,25.76-16.9,55.24-31.51,85.25-38.86ZM6295.11,5437.54c-4.32-1.29-6.67-5.54-10.17-7.91-8.8-5.98-43.74-16.22-54.69-17.59-2.17-.27-5.05-.96-6.6.99-.11,2.04,21.15,21.5,24.85,23.33,14.95-.25,29.74,1.26,44.6,2.01.88.04,2.24.44,2.02-.83ZM6224.28,5499.59c-7.87.53-19.51,3.56-27.33,5.64-25.48,6.75-50.98,18.18-72.1,33.91,21.59,9.58,43.42,18.54,64.26,29.7,11.74,6.29,26.59,17.65,37.7,22.54,1.38.61,2.58,1.61,4.24,1.03l43.9-30.63c-9.44-17.43-20.78-35.63-33.66-50.74-4.78-5.61-8.9-12-17-11.45ZM6397.93,5542.74c-25.24-20.25-56.84-32.14-88.35-38.54l21.81,39.22c22.17-2.27,44.4-4.41,66.54-.68ZM5820.8,5725.09h123.7c.88,0,2.18-1.32,2.46-2.33,1.35-4.91,1.22-11.88,2.09-17.21,8-49.25,26.32-94.8,54.34-135.89-.19-2.61-11.75-3.99-14.01-4.31-17.69-2.5-39-3.63-56.89-4.16-18.98-.56-38.15.04-57.08.83l-1.59.82c-24.56,37.97-42.36,80.52-50.76,125.15-2.21,11.73-4.16,23.82-4.3,35.74.12.5,1.64,1.29,2.04,1.35ZM6011.17,5725.09h145.39c.72,0,3.21-1.23,4.43-1.19,3.03-9.83,4.39-20.42,7.28-30.47,5.23-18.2,13.25-35.63,22.88-51.86.48-1.1.54-2.13-.02-3.23-.88-1.74-17.01-11.29-19.97-12.99-22.08-12.68-48.64-24.82-72.63-33.4-4.37-1.56-23.04-8.37-26.2-8.02-3.59.39-17.98,20.11-20.76,24.11-16.88,24.27-30.15,53.73-37.18,82.5-2.61,10.69-5.18,22.22-5.24,33.2.12.5,1.64,1.29,2.04,1.35ZM6512.8,5724.28c-18.51-84.48-101.89-139.27-186.97-113.46-50.96,15.46-91.76,60.54-101.41,113.06l288.38.41ZM6004.34,5940.35l-20.5-33.71c-14.83-28.2-25.85-58.5-32.28-89.81-.82-4-4.01-27.67-5.03-28.71-3.21-3.25-8.42-1.06-11.67-1.11-29.19-.44-59.21.53-88.36-.86l-27.61,1.69c3.63,44.76,16.66,88.7,37.24,128.45,3.44,6.64,7.73,14.98,11.8,21.13,3.78,5.71,4.95,8.79,12.28,9.41,25.82,2.18,63.06.45,89.18-1.64,11.69-.93,23.46-2.67,34.94-4.82ZM6162.58,5787.75h-152.6c-1.87,1.79,5.38,31.68,6.64,36.31,8.4,30.7,22.98,60.17,42.38,85.34,2,2.59,10.58,13.77,12.52,14.79,3.77,1.99,8.99-.2,12.96-1.29,30.42-8.36,76.86-27.99,102.63-45.97,2.15-1.5,7.79-4.37,6.21-7-15.56-24.91-26.53-52.97-30.74-82.18ZM6276.54,5945.31l-43.59-26.65c-33.65,19.63-67.95,38.14-104.41,52.17l-.49,1.65c31.61,19.16,66.46,31.73,103.17,36.98,12.17-9.69,22.25-23.61,30.81-36.72,2.27-3.48,15.92-25.02,14.5-27.43ZM6398.74,5966.07c-13.79.22-27.58,1.3-41.4.83-7.79-.26-16.07-2.24-23.94-1.51l-22.22,39.22c16.94-2.39,33.93-8.21,49.54-15.11,13.18-5.83,27.89-13.23,38.01-23.43ZM6174.63,6061.66c-33.52-11.89-65.96-26.08-95.03-46.75-9.5-6.75-18.14-14.58-27.48-21.53-28.88,4.37-57.57,9.66-86.74,12.03-3.45.28-6.97-.23-10.43.02-10.03.72-20.11,1.63-30.13,2.41,42.17,43.85,101.54,76.99,161.3,89.71,5.7,1.21,15.12,3.63,20.63,3.53,11.75-.21,52.67-26.07,62.99-34.27.96-.76,5.67-4.11,4.89-5.14ZM6225.24,6099.39c12.36-.45,24.94-4.2,36.76-7.81s25.98-8.44,37.13-13.48c1.34-.61,8.04-3.68,8.03-4.81-1.36-1.74-3.79-2.82-6-2.82-8.03,0-18.18,1.97-26.52,2.41-7.35.38-14.79-.57-22.12.37l-27.27,26.14Z"/>
  </g>
</svg>
