<?xml version="1.0" encoding="UTF-8"?>
<svg xmlns="http://www.w3.org/2000/svg" xmlns:xlink="http://www.w3.org/1999/xlink" viewBox="0 0 1200 1200" width="1200" height="1200">
  <defs>
    <style>
      .cls-1 {
        fill: none;
      }

      .cls-2 {
        mask: url(#mask);
      }

      .cls-3 {
        fill: #030302;
      }

      .cls-4 {
        isolation: isolate;
      }

      .cls-5 {
        fill: #fff;
      }

      .cls-6 {
        mix-blend-mode: overlay;
      }

      .cls-7 {
        fill: #282826;
      }
    </style>
    <mask id="mask" x="14660.17" y="13707.54" width="232.64" height="232.64" maskUnits="userSpaceOnUse">
      <g id="cs_mask_1_star-8" data-name="cs mask 1 star-8">
        <path class="cls-5" d="M14776.49,13707.54c14.45,72.56,43.34,101.73,116.32,116.32-73,14.59-101.88,43.76-116.32,116.32-14.45-72.56-43.34-101.75-116.32-116.32,73-14.59,101.88-43.76,116.32-116.32Z"/>
      </g>
    </mask>
  </defs>
  <g transform="translate(-22255.110 -16510.345) scale(1.766910)">
    <path d="M13123.64,9552.08c2.13,2.03-18.62,49.6-21.29,54.81s-5.14,10.95-11.19,12.84l-158.98,1.24c-2.01.05-2.8,1.05-3.87,2.54-4.16,5.82-7.49,20.85-11.35,27.9h120.16c-7.97,17.54-13.87,39.72-22.9,56.41-4.17,7.71-7.27,10.11-16.27,10.96l-108.75-.14-12.3,27.3h176.24c.3,1.78-.21,3.21-.74,4.87-3.49,10.99-17.37,44.43-22.97,53.93-2.21,3.75-6.71,8.77-11.07,9.75-23.96.96-47.99.11-71.83.28-50.49.36-101.76.55-152.07,0-16.3-.18-32.64.28-48.93.06-1.16-1.09,6.07-17.81,7.25-20.77,28.88-71.84,59.89-154.99,93.39-223.84,2.62-5.38,8.48-18.14,15.5-18.14h261.96Z"/>
  </g>
</svg>
