<?xml version="1.0" encoding="UTF-8"?>
<svg xmlns="http://www.w3.org/2000/svg" xmlns:xlink="http://www.w3.org/1999/xlink" viewBox="0 0 1200 1200" width="1200" height="1200">
  <defs>
    <style>
      .cls-1 {
        fill: #fff;
      }
    </style>
  </defs>
  <g transform="translate(-1016.265 -1756.840) scale(2.549575)">
    <g>
    <polygon points="589.99 971.43 564.06 1013.34 544.4 1013.34 570.31 971.43 589.99 971.43"/>
    <polygon points="685.68 971.43 660.62 1013.34 567.43 1013.34 593.35 971.43 685.68 971.43"/>
    <polygon points="623.42 835.47 513.41 1013.34 498.32 1013.34 608.33 835.47 623.42 835.47"/>
    <polygon points="648.74 835.47 538.74 1013.34 521.36 1013.34 631.37 835.47 648.74 835.47"/>
    <polygon points="632.35 902.94 606.43 944.84 586.74 944.87 612.68 902.94 632.35 902.94"/>
    <path d="M727.62,902.94c-1.47,7.73-7.93,15.23-12.08,22.18-3.78,6.33-7.6,12.81-10.59,19.57l-72.09.11-23.06.04,25.91-41.9h91.91Z"/>
    <polygon points="674.07 835.47 648.16 877.37 628.47 877.4 654.4 835.47 674.07 835.47"/>
    <polygon points="769.55 835.47 746.5 875.3 744.29 877.19 674.59 877.32 651.53 877.37 677.45 835.47 769.55 835.47"/>
  </g>
  </g>
</svg>
