<?xml version="1.0" encoding="UTF-8"?>
<svg xmlns="http://www.w3.org/2000/svg" xmlns:xlink="http://www.w3.org/1999/xlink" viewBox="0 0 1200 1200" width="1200" height="1200">
  <defs>
    <style>
      .cls-1 {
        fill: none;
      }

      .cls-2 {
        mask: url(#mask);
      }

      .cls-3 {
        fill: #030302;
      }

      .cls-4 {
        isolation: isolate;
      }

      .cls-5 {
        fill: #fff;
      }

      .cls-6 {
        mix-blend-mode: overlay;
      }

      .cls-7 {
        fill: #282826;
      }
    </style>
    <mask id="mask" x="14660.17" y="13707.54" width="232.64" height="232.64" maskUnits="userSpaceOnUse">
      <g id="cs_mask_1_star-8" data-name="cs mask 1 star-8">
        <path class="cls-5" d="M14776.49,13707.54c14.45,72.56,43.34,101.73,116.32,116.32-73,14.59-101.88,43.76-116.32,116.32-14.45-72.56-43.34-101.75-116.32-116.32,73-14.59,101.88-43.76,116.32-116.32Z"/>
      </g>
    </mask>
  </defs>
  <g transform="translate(-4405.473 -6772.516) scale(0.668290)">
    <path d="M7697.76,11112.32h162.08c-63.31,294.94-442.4,394.2-644.22,166.41-66.85-75.44-95.52-162.37-94.51-246.82-1.01-84.45,27.66-171.38,94.51-246.82,201.82-227.79,580.91-128.52,644.22,166.41h-162.08c-72.15-181.74-339.69-184.81-402.03,4.21h277.85v152.39h-277.85c62.35,189.02,329.88,185.95,402.03,4.21Z"/>
  </g>
</svg>
