<?xml version="1.0" encoding="UTF-8"?>
<svg xmlns="http://www.w3.org/2000/svg" xmlns:xlink="http://www.w3.org/1999/xlink" viewBox="0 0 1200 1200" width="1200" height="1200">
  <defs>
    <style>
      .cls-1 {
        fill: none;
      }

      .cls-2 {
        mask: url(#mask);
      }

      .cls-3 {
        fill: #030302;
      }

      .cls-4 {
        isolation: isolate;
      }

      .cls-5 {
        fill: #fff;
      }

      .cls-6 {
        mix-blend-mode: overlay;
      }

      .cls-7 {
        fill: #282826;
      }
    </style>
    <mask id="mask" x="14660.17" y="13707.54" width="232.64" height="232.64" maskUnits="userSpaceOnUse">
      <g id="cs_mask_1_star-8" data-name="cs mask 1 star-8">
        <path class="cls-5" d="M14776.49,13707.54c14.45,72.56,43.34,101.73,116.32,116.32-73,14.59-101.88,43.76-116.32,116.32-14.45-72.56-43.34-101.75-116.32-116.32,73-14.59,101.88-43.76,116.32-116.32Z"/>
      </g>
    </mask>
  </defs>
  <g transform="translate(-9629.045 -10803.584) scale(0.825011)">
    <path d="M12280.56,13743.24h316.51v158.21h-309.1l-7.42,7.42v138.43l7.42,7.42h393.17v150.79c0,1.73,8.77,5.48-2.47,12.36h-257.17l-138.47-158.21h-168.15l-7.42-7.42v-467.2h178.04l128.58-158.21h264.59c4.63,3.13,7.42,12.38,7.42,17.3v133.49l-7.42,7.42h-390.7l-7.42,7.42v150.79Z"/>
  </g>
</svg>
