<?xml version="1.0" encoding="UTF-8"?>
<svg xmlns="http://www.w3.org/2000/svg" xmlns:xlink="http://www.w3.org/1999/xlink" viewBox="0 0 1200 1200" width="1200" height="1200">
  <defs>
    <style>
      .cls-1 {
        fill: none;
      }

      .cls-2 {
        mask: url(#mask);
      }

      .cls-3 {
        fill: #030302;
      }

      .cls-4 {
        isolation: isolate;
      }

      .cls-5 {
        fill: #fff;
      }

      .cls-6 {
        mix-blend-mode: overlay;
      }

      .cls-7 {
        fill: #282826;
      }
    </style>
    <mask id="mask" x="14660.17" y="13707.54" width="232.64" height="232.64" maskUnits="userSpaceOnUse">
      <g id="cs_mask_1_star-8" data-name="cs mask 1 star-8">
        <path class="cls-5" d="M14776.49,13707.54c14.45,72.56,43.34,101.73,116.32,116.32-73,14.59-101.88,43.76-116.32,116.32-14.45-72.56-43.34-101.75-116.32-116.32,73-14.59,101.88-43.76,116.32-116.32Z"/>
      </g>
    </mask>
  </defs>
  <g transform="translate(-16518.973 -14828.251) scale(1.475866)">
    <path d="M11822.22,10292.25l-22.96,80.83-211.02,1.8c-11.42,2.2-14.79,31.77-17.16,42.94h194.76l-20.75,74.05-195.46.59-14.42,40.67h230.64c-9.24,19.49-12.02,53.46-22.48,71.06-2.08,3.51-12.13,10.95-14.68,10.95h-352.36l89.59-296.08c1.66-9.02,15.13-26.81,24.44-26.81h331.86Z"/>
  </g>
</svg>
