<?xml version="1.0" encoding="UTF-8"?>
<svg xmlns="http://www.w3.org/2000/svg" xmlns:xlink="http://www.w3.org/1999/xlink" viewBox="0 0 1200 1200" width="1200" height="1200">
  <defs>
    <style>
      .cls-1 {
        fill: #ed1c24;
      }
    </style>
  </defs>
  <g transform="translate(-6328.666 -3283.280) scale(1.934131)">
    <path d="M3718.06,2050.52l-130.26,76.34c-3.2,1.87-7.21,2.14-12.02-.8l-61.95-34.45v-33.11l63.02,37.92c3.47,1.87,8.01,1.07,11.48-.8l129.67-74.45-.05-30.92-129.88,73.59c-1.01.85-2.19,1.23-3.44,1.31-.03.03-.05.03-.08,0-3.15.64-6.17-.45-8.76-1.84l-10.09-5.61-51.86-28.84v-31.51l63.55,35.52c4.27,2.14,6.94,1.6,10.41-.27l101.74-58.75c3.04-2.03,25.72-14.37,28.33-15.65l-.03-20.4c-.27-7.21-3.47-12.28-9.35-15.22l-118.03-66.22c-5.07-2.94-11.48-2.94-16.82-.27l-117.76,65.69c-5.61,2.94-9.35,8.81-9.35,15.22v138.32c0,6.14,3.47,12.02,8.81,15.22l116.69,66.76c5.88,3.2,12.02,4.81,18.96.8l117.23-65.96c5.87-3.47,9.88-8.28,9.88-15.22l-.05-26.41ZM3475.22,1924.32l103.82-56.86c2.17-1.19,4.8-1.18,6.95.03l101.48,56.93c2.73,1.53,2.73,5.47,0,7l-101.38,56.93c-2.16,1.21-4.78,1.22-6.95.03l-103.93-57.02c-2.78-1.52-2.78-5.52,0-7.04Z"/>
  </g>
</svg>
