<?xml version="1.0" encoding="UTF-8"?>
<svg xmlns="http://www.w3.org/2000/svg" xmlns:xlink="http://www.w3.org/1999/xlink" viewBox="0 0 1200 1200" width="1200" height="1200">
  
  <g transform="translate(-729.943 -1091.370) scale(0.969972)">
    <path d="M1600.73,1898.68c20.77-19.7,40.66-40.36,61.29-60.2,2.77-2.65,7.44-5.05,8.64-8.97h-164.95l26.74-41.86,78.96-.52,60.75-66.33c-31.59-1.11-64.14,1.45-95.63.02-68.09-3.07-103.05-58.08-162.68-63-3.92-.32-14.3,1.54-15.93-2.07-5.14-21.5-15.3-41.95-30.16-58.32-3.1-3.42-16.1-16.15-19.88-16.86-1.49-.28-1.01.19-1.13,1.12l-5.25,75.74c-.82,1.99-7.48,6.04-9.81,7.44-1.76,1.06-6.74,4.51-8.4,4.08-73.82-60.19-146.7-121.72-222.55-179.38-8.07-6.13-16.17-12.48-24.43-18.32-.89-.62-5.74-4.32-6.24-3.88l203.18,236.55-43.07,43.07,4.46,30.76-101.77,114.18-.38,5.23,16.5,61.87,37.29,16.31,5.45.19,43.63-30.6c3.32-6.29,3.47-17.91,7.15-23.59,1.31-2.02,5.51-4.97,7.58-6.67,11.02-8.99,23.09-16.87,34.17-25.81,6.33-3.21,22.45-.38,30.6-.89,46.72-2.92,84.51-34.14,97.48-78.72,3.18-10.95,3.76-20.87,5.81-31.69.14-.69.31-2.24,1.3-2.05,10.15,35.19,4.58,69.2-15.57,99.51-23.53,35.39-61.96,55.91-90.92,86.03-16.96,17.65-30.6,37.76-40.59,59.48h316.76c18.11-17.87,36.77-35.3,54.91-53.06,7.8-7.66,15.19-15.81,23.39-23.05.51-.45,1.43.05.96-1.72h-175.45c11.17-13.82,20.87-28.62,29.98-43.87l77.77-.17ZM1309.05,1779.05l-39.51,15.22c-.53-.55,2.83-5.05,3.45-5.92,7.54-10.55,15.66-20.82,23.92-30.82l38.61-15.75-26.47,37.26Z"/>
  </g>
</svg>
