<?xml version="1.0" encoding="UTF-8"?>
<svg xmlns="http://www.w3.org/2000/svg" xmlns:xlink="http://www.w3.org/1999/xlink" viewBox="0 0 1200 1200" width="1200" height="1200">
  <defs>
    <style>
      .cls-1 {
        fill: none;
      }

      .cls-2 {
        mask: url(#mask);
      }

      .cls-3 {
        fill: #030302;
      }

      .cls-4 {
        isolation: isolate;
      }

      .cls-5 {
        fill: #fff;
      }

      .cls-6 {
        mix-blend-mode: overlay;
      }

      .cls-7 {
        fill: #282826;
      }
    </style>
    <mask id="mask" x="14660.17" y="13707.54" width="232.64" height="232.64" maskUnits="userSpaceOnUse">
      <g id="cs_mask_1_star-8" data-name="cs mask 1 star-8">
        <path class="cls-5" d="M14776.49,13707.54c14.45,72.56,43.34,101.73,116.32,116.32-73,14.59-101.88,43.76-116.32,116.32-14.45-72.56-43.34-101.75-116.32-116.32,73-14.59,101.88-43.76,116.32-116.32Z"/>
      </g>
    </mask>
  </defs>
  <g transform="translate(-1042.024 -6201.425) scale(0.627115)">
    <path d="M2595.15,10424.48l18.26-.52c302.89,10.14,477.79,354.06,299.84,604.87-169.13,238.38-533.37,202.77-653.89-62.54-113.8-250.51,63.05-533.76,335.79-541.8ZM2775.83,10577.98h-254.21c-22.31,0-59.91,23.91-75.45,39.61-104.49,105.58-89.64,398.03,89.38,417.68l240.28-.07v-96.42h-230.89c-4.7,0-16.09-6.24-20.17-9.37-23.1-17.72-30.88-53.44-35.02-80.83h247.21c2.62-6.53-.17-12.8-.07-17.97.24-11.42,1.6-24.29,1.68-35.62.07-9.39,1.66-22.45-2.4-30.39h-244.88c1.13-25.1,10.77-65.13,31.88-80.87,3.13-2.33,17.05-9.33,20.21-9.33h232.44v-96.42Z"/>
  </g>
</svg>
