<?xml version="1.0" encoding="UTF-8"?>
<svg xmlns="http://www.w3.org/2000/svg" xmlns:xlink="http://www.w3.org/1999/xlink" viewBox="0 0 1200 1200" width="1200" height="1200">
  
  <g transform="translate(-1670.560 -2222.177) scale(1.196773)">
    <g>
    <path d="M1880.74,2197.7c.6.53-3.25,6.68-3.89,7.73-9.79,16.01-20.19,31.85-30.29,47.69-56.53,88.69-114.61,176.41-170.51,265.48h-119.96l205.06-320.9h119.59Z"/>
    <path d="M2085.43,2438.38l-55.48,80.23h-310.41c2.25-5.65,6.05-11.31,9.44-16.43,14.4-21.7,30.95-42.06,45.29-63.8h311.16Z"/>
    <path d="M2238.38,2197.7l-54.89,77.81c-13.81,1.15-27.62.84-41.49.95-70.43.54-141.84-.13-212.13,0-18.34.03-36.93.52-55.14-.79,3.86-6.9,8.02-13.61,12.43-20.17,11.1-16.5,24.44-36.36,36.74-51.73,1.65-2.06,3.34-4.16,5.18-6.06h309.28Z"/>
    <path d="M2161.9,2318.41l-54.73,77.98h-309.66c16.35-27.12,35.94-52.22,54.36-77.98h310.03Z"/>
  </g>
  </g>
</svg>
