<?xml version="1.0" encoding="UTF-8"?>
<svg xmlns="http://www.w3.org/2000/svg" xmlns:xlink="http://www.w3.org/1999/xlink" viewBox="0 0 1200 1200" width="1200" height="1200">
  <defs>
    <style>
      .cls-1 {
        fill: none;
      }

      .cls-2 {
        mask: url(#mask);
      }

      .cls-3 {
        fill: #030302;
      }

      .cls-4 {
        isolation: isolate;
      }

      .cls-5 {
        fill: #fff;
      }

      .cls-6 {
        mix-blend-mode: overlay;
      }

      .cls-7 {
        fill: #282826;
      }
    </style>
    <mask id="mask" x="14660.17" y="13707.54" width="232.64" height="232.64" maskUnits="userSpaceOnUse">
      <g id="cs_mask_1_star-8" data-name="cs mask 1 star-8">
        <path class="cls-5" d="M14776.49,13707.54c14.45,72.56,43.34,101.73,116.32,116.32-73,14.59-101.88,43.76-116.32,116.32-14.45-72.56-43.34-101.75-116.32-116.32,73-14.59,101.88-43.76,116.32-116.32Z"/>
      </g>
    </mask>
  </defs>
  <g transform="translate(-3304.673 -3394.406) scale(0.562024)">
    <g>
        <path d="M7359.53,7043.35c1.92,1.87,43.14,12.78,51.11,15.83,16.06,6.14,31.77,7.83,33.98,27.47,1.13,10.08,1.92,48.86-4.49,54.76-14.45,13.3-58.85,22.46-78.31,28.13-5.82,8.57-12.88,29.51-8.28,38.93,1.07,2.19,33.28,23.16,39.45,28.57,10.66,9.34,25.58,19.94,22.03,35.08-1.61,6.86-18.88,47.52-22.95,51.66-2.76,2.81-4.05,2.79-7.69,3.28-10.35,1.38-30.76.52-41.9-.02-9.06-.44-29.69-6.19-36.74-4.08-7.72,2.31-23.05,27.78-21,35.3.67,2.44,14.59,20.93,17.6,26.47,4.21,7.75,20.71,38.39,21.02,44.65.45,9.01-41.18,45.03-51.11,51.26-26.7-9.61-51.95-22.8-75.45-38.58-14.36,3.52-26.05,12.94-34.81,24.51,3.24,18.27,14.06,65.68,6.67,81.51-2.26,4.84-8.51,6.73-12.97,8.97-7.12,3.58-40.96,18.32-46.79,19.19-8.17,1.22-24.01-16.86-29.73-23.23-5.84-6.5-26.82-38.4-28.92-39.66-8.6-5.15-36.7.16-41.22,8.96-3.57,6.94-6.23,29-9.35,38.93-2.34,7.42-12.47,36.73-17.25,39.81-5.44,3.51-50.13,3.49-59.09,2.46-13.65-1.58-16.29-11.95-20.85-23.04-7.65-18.59-11.7-38.66-16.51-58.11-8.03-8.85-29.16-15.26-39.55-9.03-3.9,2.34-22.39,30.75-28.35,37.49-4,4.52-23.16,24.33-27.22,25.25-12.13-3.93-60.54-19.92-64.95-29.7-1.85-8.51-1.55-18.58-1.11-27.38.54-10.77,9.23-48.18,7.81-53.89-1.52-6.12-23.85-21.77-29.78-23.18-5.33-1.26-17.13,9.68-22.67,12.68-8.49,4.6-51.08,26.52-56.94,25.62-10.27-8.32-48.31-37.55-49.9-49.22-.89-6.54,9.9-27.49,13.49-34.63,4.3-8.54,22.08-32.93,23.4-38.18,2.23-8.92-12.46-34.43-20.52-35.7l-70.11,6.63c-4.25-.81-10.55-1.28-14.16-3.39-7.4-4.31-27.88-54.8-26.48-63.42,1.03-6.31,23.49-24.6,29.72-29.68,6.13-5,33.18-22.42,35.03-26.43,3.76-8.13-2.46-32.21-11.41-36.83-7.67-3.95-28.46-7.53-39.09-11.39-8.19-2.98-36.72-13.24-40.15-19.1-4.54-7.76-3.49-58.42,1.6-65.61,9.03-6.39,19.52-10.28,29.77-14.12,12.29-4.6,41.47-9.79,49.34-14.3,5.98-3.43,11.32-27.05,10.69-34.54-2.31-8.09-60.95-42.07-65.07-55.84-2.76-9.23,19.82-63.77,28.15-67.53,27.93-3.68,56.42.86,84.05,5.61,3.04-5.8,8.91-9.66,12.12-14.78,15.73-25.18,2.97-24.29-8.79-45.35-5.14-9.2-23.55-42.27-21.18-50.35,1.33-4.54,36.72-39.25,42.41-43.28,11.4-8.09,24.86,1.53,37,6.88,15.73,6.93,30.93,15.58,45.23,25.09,8.79,2.45,29.84-14.41,34.66-22.36-2.85-16.22-7.38-33.8-8.23-50.25-.86-16.65-4-29.6,11.61-38.83,7.74-4.58,47.99-20.52,55.2-19.34,4.33.71,24.43,21.44,28.68,26.34,19.01,21.96,23.46,50.81,59.67,31.2,10.18-5.51,11.25-30.18,14.92-42.14,3.05-9.95,12.07-41.93,21.99-43.85,8.92-1.73,47.09-1.25,57.06-.09,15.81,1.85,21.53,28.51,25.78,42.26,2.59,8.38,6.45,34.55,9.38,38.9,3.99,5.93,27.7,12.37,34.93,11.06,7.58-1.38,29.58-35.48,37.37-43.92,10.9-11.81,16.67-22.36,33.66-18.21,7.53,1.84,43.59,16.65,49.52,20.69,8.18,5.58,6.28,26.57,5.84,36.05-.77,16.23-4.52,34.54-8.05,50.46.74,5.33,24.33,20.73,29.92,22.08,7.19,1.73,22.82-11.54,30.67-15.61,8.79-4.57,37.79-19.45,45.63-20.43,7.21-.9,17.58,9.65,23.6,14.93,4.72,4.14,25.31,23.62,27.48,27.37,6.7,11.53-8.2,36.16-14.33,47.36-3.68,6.73-19.82,28.45-20.57,32.3-1.65,8.39,13.95,34.8,22.74,35.69,6.93.7,31.49-5.94,41.69-6.56,14.53-.89,36.02-3.92,44.59,8.04,5.45,7.6,23.63,50.9,22.35,58.77-.97,6-25.65,26.73-31.92,31.87-4.68,3.84-29.84,20.29-30.67,21.99-3.01,6.2,1.63,32.59,5.99,36.83ZM6924.04,6836.02c-193.93,16.46-305.71,230.44-214.24,401.67,99.8,186.83,372.63,189.7,476.22,5.16,108.12-192.62-42.68-425.44-261.98-406.83Z"/>
        <path d="M6843.28,7133.84c1.32,39.27,11.03,74.05,44.5,97.06,58.01,39.88,137.31,15.17,167.29-46.58h105.34c5.42,6.17-2.04,20.54-5.11,27.81-51.2,121.52-221.71,151.08-328.86,88.88-76.98-44.69-108.64-117.62-103.96-205.67,14.62-275.28,435.09-285.17,452.28-13.17.93,14.77,2.78,39.79-5.58,51.67h-325.91ZM7056.16,7070.19c-5.57-138.73-201.31-135.04-212.88,0h212.88Z"/>
      </g>
  </g>
</svg>
