<?xml version="1.0" encoding="UTF-8"?>
<svg xmlns="http://www.w3.org/2000/svg" xmlns:xlink="http://www.w3.org/1999/xlink" viewBox="0 0 1200 1200" width="1200" height="1200">
  <defs>
    <style>
      .cls-1 {
        fill: none;
      }

      .cls-2 {
        mask: url(#mask);
      }

      .cls-3 {
        fill: #030302;
      }

      .cls-4 {
        isolation: isolate;
      }

      .cls-5 {
        fill: #fff;
      }

      .cls-6 {
        mix-blend-mode: overlay;
      }

      .cls-7 {
        fill: #282826;
      }
    </style>
    <mask id="mask" x="14660.17" y="13707.54" width="232.64" height="232.64" maskUnits="userSpaceOnUse">
      <g id="cs_mask_1_star-8" data-name="cs mask 1 star-8">
        <path class="cls-5" d="M14776.49,13707.54c14.45,72.56,43.34,101.73,116.32,116.32-73,14.59-101.88,43.76-116.32,116.32-14.45-72.56-43.34-101.75-116.32-116.32,73-14.59,101.88-43.76,116.32-116.32Z"/>
      </g>
    </mask>
  </defs>
  <g transform="translate(-11597.549 -1455.281) scale(0.812173)">
    <g>
        <path d="M14937.65,2741.79l158.78-.3c15.64,1.43,46,26.59,53.63,40.37,20.45,36.91-4.43,79.47-45.68,82.66-55.4,4.28-116.07-3.21-172.03.05-50.46-4.11-71.73-62.86-33.99-98.07,7.16-6.68,30.26-23.41,39.29-24.71Z"/>
        <path d="M14925.65,2196.79c58.94,2.64,122.36-4.4,180.79-.3,44.01,3.09,66.22,55,38.43,89.52-7.25,9-34.72,28.14-45.92,30.08h-162.1c-9.74-1.78-36.59-19.98-43.46-27.54-29.66-32.66-10.36-84.46,32.27-91.75Z"/>
        <path d="M14820.56,2261.91c52.01-.8,60.66,55.9,50.83,95.62l-79.48,136.52c-7.13,7.99-30.61,21.03-41.03,23.97-46.75,13.2-83.9-35.71-63.18-78.18l89.8-155.2c8.75-12.85,27.51-22.49,43.06-22.73Z"/>
        <path d="M15245.24,2495.18c-7.53-7.64-18-30.74-24.18-41.32-17.58-30.09-40.33-63.93-55.34-94.66-6.82-13.96-5.47-53.36,1.63-67.71,20.69-41.79,72.95-36.75,96.34.73,29.66,47.54,54.66,99.74,84.74,147.26,21.41,43.67-18.08,93.83-65.77,77.77-8.76-2.95-31.02-15.58-37.42-22.08Z"/>
        <path d="M15299.72,2543.78c40.57-1.13,67.02,43.62,49.18,79.27-28.7,46.99-54.02,96.27-82.84,143.16-15.58,25.34-39.38,41.5-70.16,29.82-36.9-14.01-37.57-55.54-31.8-88.78l78.79-136.21c14.08-12.56,37.57-26.72,56.83-27.25Z"/>
        <path d="M14733.72,2543.78c21.14-.62,42.57,13.39,58.56,25.86l80.09,137.91c3.77,32.98,6.53,70.69-28.79,87.16-27.54,12.84-54.93.05-70.49-23.88-30.21-46.44-54.64-99.35-84.91-146.09-18.63-34.53,5.73-79.8,45.55-80.97Z"/>
      </g>
  </g>
</svg>
