<?xml version="1.0" encoding="UTF-8"?>
<svg xmlns="http://www.w3.org/2000/svg" xmlns:xlink="http://www.w3.org/1999/xlink" viewBox="0 0 1200 1200" width="1200" height="1200">
  <defs>
    <style>
      .cls-1 {
        fill: none;
      }

      .cls-2 {
        mask: url(#mask);
      }

      .cls-3 {
        fill: #030302;
      }

      .cls-4 {
        isolation: isolate;
      }

      .cls-5 {
        fill: #fff;
      }

      .cls-6 {
        mix-blend-mode: overlay;
      }

      .cls-7 {
        fill: #282826;
      }
    </style>
    <mask id="mask" x="14660.17" y="13707.54" width="232.64" height="232.64" maskUnits="userSpaceOnUse">
      <g id="cs_mask_1_star-8" data-name="cs mask 1 star-8">
        <path class="cls-5" d="M14776.49,13707.54c14.45,72.56,43.34,101.73,116.32,116.32-73,14.59-101.88,43.76-116.32,116.32-14.45-72.56-43.34-101.75-116.32-116.32,73-14.59,101.88-43.76,116.32-116.32Z"/>
      </g>
    </mask>
  </defs>
  <g transform="translate(-12723.557 -12158.302) scale(1.001478)">
    <path d="M13650.68,12514.07l-58.41,100.95-5.59,4.77-300.14.55c-3.87.15-5.54,2.55-7.74,5.22-11.71,14.18-24.29,42.5-32.49,59.5h298.11c-3.72,19.57-20.11,38.59-30.61,56.2-9.57,16.05-19.28,32.47-26.83,49.6l-306.7.49c-5.03.62-7.45,4.35-10.26,7.89-12.15,15.32-23.64,41.51-32.58,59.41h300.7l-63.51,106.22h-414.76l-2.78-5.28,274.96-445.51h418.64Z"/>
  </g>
</svg>
