<?xml version="1.0" encoding="UTF-8"?>
<svg xmlns="http://www.w3.org/2000/svg" xmlns:xlink="http://www.w3.org/1999/xlink" viewBox="0 0 1200 1200" width="1200" height="1200">
  <defs>
    <style>
      .cls-1 {
        fill: none;
      }

      .cls-2 {
        mask: url(#mask);
      }

      .cls-3 {
        fill: #030302;
      }

      .cls-4 {
        isolation: isolate;
      }

      .cls-5 {
        fill: #fff;
      }

      .cls-6 {
        mix-blend-mode: overlay;
      }

      .cls-7 {
        fill: #282826;
      }
    </style>
    <mask id="mask" x="14660.17" y="13707.54" width="232.64" height="232.64" maskUnits="userSpaceOnUse">
      <g id="cs_mask_1_star-8" data-name="cs mask 1 star-8">
        <path class="cls-5" d="M14776.49,13707.54c14.45,72.56,43.34,101.73,116.32,116.32-73,14.59-101.88,43.76-116.32,116.32-14.45-72.56-43.34-101.75-116.32-116.32,73-14.59,101.88-43.76,116.32-116.32Z"/>
      </g>
    </mask>
  </defs>
  <g transform="translate(-15207.536 -14865.230) scale(1.402405)">
    <path d="M11303.47,10828.41c-24.67-.58-51.78-.85-75.31.31-88.03,4.36-149.51,75.59-153.75,161.26-1.53,30.9-1.9,68.21.03,99.01,5.03,80.38,65.33,135.09,144.75,138.75h249.55c1.21,0,2.2-.98,2.2-2.19v-74.13c0-.86-.51-1.65-1.3-2h0c-.28-.13-.59-.19-.9-.19l-215.07.05c-46.93-1.91-72.84-30.56-74.2-76.79-.03-.85-1.13-4.23.22-4.23h242.56c26.89,0,48.7-21.8,48.71-48.69v-36.58s0-152.37,0-152.37c0-1.21-.98-2.2-2.2-2.2h-165.29ZM11181.63,10989.75c-1.23,0-2.21-1-2.2-2.23.22-18.62,5.25-37.45,16.8-52.22,22.23-28.43,52.89-29.29,86.48-28.08,27.19.98,50.21,8.69,67.42,30.58,11.35,14.43,16.41,31.46,17.22,49.65.06,1.25-.94,2.3-2.2,2.3h-183.52Z"/>
  </g>
</svg>
