<?xml version="1.0" encoding="UTF-8"?>
<svg xmlns="http://www.w3.org/2000/svg" xmlns:xlink="http://www.w3.org/1999/xlink" viewBox="0 0 1200 1200" width="1200" height="1200">
  <defs>
    <style>
      .cls-1 {
        fill: none;
      }

      .cls-2 {
        mask: url(#mask);
      }

      .cls-3 {
        fill: #030302;
      }

      .cls-4 {
        isolation: isolate;
      }

      .cls-5 {
        fill: #fff;
      }

      .cls-6 {
        mix-blend-mode: overlay;
      }

      .cls-7 {
        fill: #282826;
      }
    </style>
    <mask id="mask" x="14660.17" y="13707.54" width="232.64" height="232.64" maskUnits="userSpaceOnUse">
      <g id="cs_mask_1_star-8" data-name="cs mask 1 star-8">
        <path class="cls-5" d="M14776.49,13707.54c14.45,72.56,43.34,101.73,116.32,116.32-73,14.59-101.88,43.76-116.32,116.32-14.45-72.56-43.34-101.75-116.32-116.32,73-14.59,101.88-43.76,116.32-116.32Z"/>
      </g>
    </mask>
  </defs>
  <g transform="translate(-12102.133 -1817.872) scale(0.951371)">
    <path d="M13135.21,2809.49h-106.95l111.96-97.39h-111.05l113.78-96.48h-112.87c2.86-3.14,6.72-5.93,10.11-8.55,58.37-45.19,118.01-92.16,177.49-135.62,17.75-12.97,28.86-18.27,51.35-20.56l78.62-1.03c6.25-19.92,18.04-39.28,33.77-53.15,2.36-2.08,11.82-9.72,14.14-10.44,1.68-.52,1.22.31,1.35,1.33,1.17,9.51.04,16.51-.04,25.47-.12,13.91.04,27.85.18,41.76.29.85,13.8,9.34,15.98,7.21,74.34-53.39,146.27-110.38,221.16-163,13-9.14,25.93-18.82,40.34-25.64l-221.02,222.53,37.55,45.04-9.98,26.36c18.31,24.83,38.75,47.99,59.18,71.06,10.08,11.39,22.53,22.9,31.88,34.57,3.95,4.93,4.01,5.78,2.73,11.85-2.94,13.9-9.03,36.64-13.86,49.85-.54,1.49-.83,3.16-2.1,4.28l-34.51,12.82-6.39-.09c-14.58-10.57-26.44-24.69-42.84-32.71-2.43-10.2-1.51-19.01-9.09-27.32-4.33-4.75-30.78-23.49-36.59-25.3-9.48-2.97-20.45-.94-30.3-1.56-47.58-2.98-75.57-36.82-86.87-80.61l-4.61-23.14c-11.73,35.48-9.76,70.7,13.27,100.95,13.69,17.99,32.31,24.67,50.18,37.2,36.94,25.89,65.71,62.91,63.97,110.34h-265.78M13446.96,2578.29l-27.73-31.88-33.24-12.72c-.45,1.63.72,1.82,1.37,2.72,7.94,10.96,17.52,20.87,25.57,31.77l34.03,10.1Z"/>
  </g>
</svg>
