<?xml version="1.0" encoding="UTF-8"?>
<svg xmlns="http://www.w3.org/2000/svg" xmlns:xlink="http://www.w3.org/1999/xlink" viewBox="0 0 1200 1200" width="1200" height="1200">
  <defs>
    <style>
      .cls-1 {
        fill: none;
      }

      .cls-2 {
        mask: url(#mask);
      }

      .cls-3 {
        fill: #030302;
      }

      .cls-4 {
        isolation: isolate;
      }

      .cls-5 {
        fill: #fff;
      }

      .cls-6 {
        mix-blend-mode: overlay;
      }

      .cls-7 {
        fill: #282826;
      }
    </style>
    <mask id="mask" x="14660.17" y="13707.54" width="232.64" height="232.64" maskUnits="userSpaceOnUse">
      <g id="cs_mask_1_star-8" data-name="cs mask 1 star-8">
        <path class="cls-5" d="M14776.49,13707.54c14.45,72.56,43.34,101.73,116.32,116.32-73,14.59-101.88,43.76-116.32,116.32-14.45-72.56-43.34-101.75-116.32-116.32,73-14.59,101.88-43.76,116.32-116.32Z"/>
      </g>
    </mask>
  </defs>
  <g transform="translate(-5635.959 -7640.809) scale(0.749819)">
    <path d="M8282.13,10656.67c248.33-21.97,426.52,239.02,310.71,461.81-116.73,224.55-439.41,227.63-560.1,4.87-108.14-199.61,24.21-446.76,249.38-466.68ZM8142.55,10907.41h230.24c6.2,41.55,5.45,87.81,0,129.51h-230.24c72.61,187.14,356.12,132.52,345.51-73.92-9.97-194.08-275.48-230.53-345.51-55.59Z"/>
  </g>
</svg>
