<?xml version="1.0" encoding="UTF-8"?>
<svg xmlns="http://www.w3.org/2000/svg" xmlns:xlink="http://www.w3.org/1999/xlink" viewBox="0 0 1200 1200" width="1200" height="1200">
  <defs>
    <style>
      .cls-1 {
        fill: #fff;
      }
    </style>
  </defs>
  <g transform="translate(-1654.297 -778.922) scale(2.730430)">
    <path d="M776.82,481.41v41.23h29.34v-41.23h-29.34ZM725.4,459.53v88.91c.52,1.14,1.07,2.28,1.64,3.4v-95.68c-.57,1.11-1.12,2.23-1.64,3.37ZM745.97,430.07v148.2c1.2,1.22,2.42,2.41,3.68,3.57v-155.27c-1.25,1.13-2.48,2.3-3.68,3.5ZM735.69,442.04v124.03c.87,1.19,1.75,2.36,2.65,3.52v-131.01c-.91,1.13-1.79,2.28-2.65,3.46ZM756.25,421.1v166.36c1.53,1.2,3.09,2.36,4.7,3.48v-173.2c-1.59,1.07-3.17,2.19-4.7,3.37ZM875.86,418.21c-17.89-12.37-38.06-18.12-57.91-18.05-.16,0-.32,0-.48,0-3.28.02-6.55.21-9.8.56v48.23c3.29-.7,6.57-1.05,9.8-1.07.17,0,.32,0,.48,0,20.55.02,39.1,13.08,45.6,33.53h-86.74v41.23h141.89c7.14-39.8-9.71-81.51-42.84-104.43ZM905.19,559.49c-27.25-.57-54.74.89-81.94-.27-1.82-.08-3.57-.15-5.29-.26-.16,0-.32-.02-.48-.03-2.74-.18-5.45-.47-8.34-1.07-.49-.1-.98-.21-1.46-.33-.51-.11-1-.24-1.5-.38-3.07-.81-6.01-1.9-8.78-3.23-.86-.41-1.71-.84-2.53-1.3-2.79-1.55-5.39-3.37-7.76-5.43-1.24-1.08-2.43-2.23-3.54-3.44-2.64-2.85-4.91-6.06-6.74-9.57v65.88c2.23,1.03,4.48,1.98,6.74,2.84,1.18.44,2.36.87,3.54,1.26,2.57.87,5.16,1.63,7.76,2.28.84.21,1.69.42,2.53.61,2.91.65,5.84,1.17,8.78,1.56.5.07,1,.13,1.5.19,3.27.38,6.54.61,9.8.66.16,0,.32,0,.48,0,34.81.49,68.72-17.13,87.61-49.59l-.38-.38ZM776.82,408.97v62.1c1.88-3.17,4.15-6.11,6.74-8.76v-56.04c-2.28.82-4.52,1.72-6.74,2.71ZM797.39,402.35v50.07c2.47-1.18,5.04-2.13,7.67-2.84.37-.1.74-.19,1.1-.28v-48.4c-2.95.35-5.88.84-8.78,1.45ZM787.1,459.02c2.41-2.02,5.01-3.8,7.76-5.32v-50.79c-2.61.61-5.2,1.33-7.76,2.15v53.96ZM766.53,414.23v180.34c1.89,1.15,3.79,2.22,5.72,3.23v-186.68c-1.94.97-3.85,2.01-5.72,3.1Z"/>
  </g>
</svg>
