<?xml version="1.0" encoding="UTF-8"?>
<svg xmlns="http://www.w3.org/2000/svg" xmlns:xlink="http://www.w3.org/1999/xlink" viewBox="0 0 1200 1200" width="1200" height="1200">
  <defs>
    <style>
      .cls-1 {
        fill: none;
      }

      .cls-2 {
        mask: url(#mask);
      }

      .cls-3 {
        fill: #030302;
      }

      .cls-4 {
        isolation: isolate;
      }

      .cls-5 {
        fill: #fff;
      }

      .cls-6 {
        mix-blend-mode: overlay;
      }

      .cls-7 {
        fill: #282826;
      }
    </style>
    <mask id="mask" x="14660.17" y="13707.54" width="232.64" height="232.64" maskUnits="userSpaceOnUse">
      <g id="cs_mask_1_star-8" data-name="cs mask 1 star-8">
        <path class="cls-5" d="M14776.49,13707.54c14.45,72.56,43.34,101.73,116.32,116.32-73,14.59-101.88,43.76-116.32,116.32-14.45-72.56-43.34-101.75-116.32-116.32,73-14.59,101.88-43.76,116.32-116.32Z"/>
      </g>
    </mask>
  </defs>
  <g transform="translate(-13804.422 -1097.683) scale(1.055071)">
    <path d="M13655.01,1266.05l73.56,263.39,128.88,216.68-153.05-85.12c-13.36,96.35-35.17,191.33-49.44,287.52-.64,4.3,1.32,4.15-4.87,3.73l-51.87-291.26-150.54,83.89,127.68-214.16c28.19-86,48.42-174.49,74.68-261.03,1.06-3.51-1.56-4.37,4.96-3.64Z"/>
  </g>
</svg>
