<?xml version="1.0" encoding="UTF-8"?>
<svg xmlns="http://www.w3.org/2000/svg" xmlns:xlink="http://www.w3.org/1999/xlink" viewBox="0 0 1200 1200" width="1200" height="1200">
  <defs>
    <style>
      .cls-1 {
        fill: none;
      }

      .cls-2 {
        mask: url(#mask);
      }

      .cls-3 {
        fill: #030302;
      }

      .cls-4 {
        isolation: isolate;
      }

      .cls-5 {
        fill: #fff;
      }

      .cls-6 {
        mix-blend-mode: overlay;
      }

      .cls-7 {
        fill: #282826;
      }
    </style>
    <mask id="mask" x="14660.17" y="13707.54" width="232.64" height="232.64" maskUnits="userSpaceOnUse">
      <g id="cs_mask_1_star-8" data-name="cs mask 1 star-8">
        <path class="cls-5" d="M14776.49,13707.54c14.45,72.56,43.34,101.73,116.32,116.32-73,14.59-101.88,43.76-116.32,116.32-14.45-72.56-43.34-101.75-116.32-116.32,73-14.59,101.88-43.76,116.32-116.32Z"/>
      </g>
    </mask>
  </defs>
  <g transform="translate(-12471.683 -1015.384) scale(1.043179)">
    <path d="M12756.11,1867.88c-1.46.14-1.33-1.07-1.68-1.72-5.02-9.15-8.89-18.54-14.04-27.69-29.26-51.95-105.3-154.41-209.77-154.19-104.47-.22-180.51,102.25-209.77,154.19-5.15,9.14-9.02,18.54-14.04,27.69-.35.65-.22,1.86-1.68,1.72,15.04-52.57,40.14-103.39,73.81-152.44,26.91-39.18,61.8-76.97,83.2-117.44,38.64-73.07,42.47-152.27,53.97-228.37l14.51-140.61,14.51,140.61c11.5,76.1,15.33,155.3,53.97,228.37,21.4,40.47,56.29,78.26,83.2,117.44,33.67,49.05,58.77,99.87,73.81,152.44Z"/>
  </g>
</svg>
