<?xml version="1.0" encoding="UTF-8"?>
<svg xmlns="http://www.w3.org/2000/svg" xmlns:xlink="http://www.w3.org/1999/xlink" viewBox="0 0 1200 1200" width="1200" height="1200">
  <defs>
    <style>
      .cls-1 {
        fill: none;
      }

      .cls-2 {
        mask: url(#mask);
      }

      .cls-3 {
        fill: #030302;
      }

      .cls-4 {
        isolation: isolate;
      }

      .cls-5 {
        fill: #fff;
      }

      .cls-6 {
        mix-blend-mode: overlay;
      }

      .cls-7 {
        fill: #282826;
      }
    </style>
    <mask id="mask" x="14660.17" y="13707.54" width="232.64" height="232.64" maskUnits="userSpaceOnUse">
      <g id="cs_mask_1_star-8" data-name="cs mask 1 star-8">
        <path class="cls-5" d="M14776.49,13707.54c14.45,72.56,43.34,101.73,116.32,116.32-73,14.59-101.88,43.76-116.32,116.32-14.45-72.56-43.34-101.75-116.32-116.32,73-14.59,101.88-43.76,116.32-116.32Z"/>
      </g>
    </mask>
  </defs>
  <g transform="translate(-10782.664 -2337.453) scale(0.827509)">
    <g>
        <path d="M13620.5,3316.26c12.41,2.01,8.86,31.94,6.69,40.97-28.89,120.55-216.52,101.03-245.28,238.81-21.55,103.24,42.07,175.3,134.5,208.76,96.17,34.82,259.41,34.13,360.9,27.82,18.41-8.36,16.17-30.72-1.39-38.38-37.69-.76-75.32,2.49-113.01,2.39-111.62-.28-354.01-11.68-342.94-172.21,9.17-133,205.52-109.87,245.43-250.37,9.72-34.23,9.18-82.18-30.49-96.34-49.92-17.82-90.07,48.73-106.42,86.53-7.58,17.53-24.93,49.99.29,60.94,25.67,11.15,32.18-34.52,39.56-50.44,6.96-15.01,33.55-61.5,52.16-58.49Z"/>
        <path d="M14131.81,3624.86h-.11l-425.4-2.61c-10.19-.06-18.4-8.37-18.33-18.56.06-10.15,8.31-18.33,18.44-18.33h.11l425.4,2.61c10.19.06,18.4,8.37,18.33,18.56-.06,10.15-8.31,18.33-18.44,18.33Z"/>
        <path d="M14079.02,3532.34h-368.24c-10.19,0-18.45-8.26-18.45-18.45s8.26-18.45,18.45-18.45h368.24c10.19,0,18.45,8.26,18.45,18.45s-8.26,18.45-18.45,18.45Z"/>
        <path d="M14079.5,3721.38h0l-373.78-.05c-10.19,0-18.45-8.26-18.44-18.45,0-10.19,8.26-18.44,18.45-18.44h0l373.78.05c10.19,0,18.45,8.26,18.44,18.45,0,10.19-8.26,18.44-18.45,18.44Z"/>
      </g>
  </g>
</svg>
