<?xml version="1.0" encoding="UTF-8"?>
<svg xmlns="http://www.w3.org/2000/svg" xmlns:xlink="http://www.w3.org/1999/xlink" viewBox="0 0 1200 1200" width="1200" height="1200">
  <defs>
    <style>
      .cls-1 {
        fill: none;
      }

      .cls-2 {
        mask: url(#mask);
      }

      .cls-3 {
        fill: #030302;
      }

      .cls-4 {
        isolation: isolate;
      }

      .cls-5 {
        fill: #fff;
      }

      .cls-6 {
        mix-blend-mode: overlay;
      }

      .cls-7 {
        fill: #282826;
      }
    </style>
    <mask id="mask" x="14660.17" y="13707.54" width="232.64" height="232.64" maskUnits="userSpaceOnUse">
      <g id="cs_mask_1_star-8" data-name="cs mask 1 star-8">
        <path class="cls-5" d="M14776.49,13707.54c14.45,72.56,43.34,101.73,116.32,116.32-73,14.59-101.88,43.76-116.32,116.32-14.45-72.56-43.34-101.75-116.32-116.32,73-14.59,101.88-43.76,116.32-116.32Z"/>
      </g>
    </mask>
  </defs>
  <g transform="translate(-4489.625 -3052.097) scale(0.638001)">
    <path d="M7977.47,5284.16c-241.32,0-437.64,197.46-437.64,440.12s196.31,440.12,437.64,440.12c225.28,0,411.35-172.08,435.05-392.45h-29.76c-21.1,82.9-96.02,144.35-184.93,144.35-99.97,0-182.22-77.66-190.28-176.13h406.95c.26-3.68.45-7.36.53-11.1.03-1.59.05-3.18.05-4.79,0-242.67-196.31-440.12-437.61-440.12ZM8197.83,5942.79c66.89,0,126.78-30.54,166.66-78.51-57.18,159.39-209.09,273.63-387.02,273.63-226.79,0-411.3-185.56-411.3-413.63s184.51-413.64,411.3-413.64c177.93,0,329.84,114.24,387.02,273.63-39.87-47.97-99.76-78.5-166.66-78.5-119.81,0-217.28,98.02-217.28,218.51s97.47,218.51,217.28,218.51ZM8007.18,5713.68c5.48-100.97,88.89-181.43,190.65-181.43s185.15,80.46,190.62,181.43h-381.28Z"/>
  </g>
</svg>
