<?xml version="1.0" encoding="UTF-8"?>
<svg xmlns="http://www.w3.org/2000/svg" xmlns:xlink="http://www.w3.org/1999/xlink" viewBox="0 0 1200 1200" width="1200" height="1200">
  <defs>
    <style>
      .cls-1 {
        fill: none;
      }

      .cls-2 {
        mask: url(#mask);
      }

      .cls-3 {
        fill: #030302;
      }

      .cls-4 {
        isolation: isolate;
      }

      .cls-5 {
        fill: #fff;
      }

      .cls-6 {
        mix-blend-mode: overlay;
      }

      .cls-7 {
        fill: #282826;
      }
    </style>
    <mask id="mask" x="14660.17" y="13707.54" width="232.64" height="232.64" maskUnits="userSpaceOnUse">
      <g id="cs_mask_1_star-8" data-name="cs mask 1 star-8">
        <path class="cls-5" d="M14776.49,13707.54c14.45,72.56,43.34,101.73,116.32,116.32-73,14.59-101.88,43.76-116.32,116.32-14.45-72.56-43.34-101.75-116.32-116.32,73-14.59,101.88-43.76,116.32-116.32Z"/>
      </g>
    </mask>
  </defs>
  <g transform="translate(-12988.520 -142.157) scale(0.978299)">
    <path d="M14042.03,854.68l-3.17,6.39-102.98,103.18-187.11-.15-154.47-147.33c-21.13-13.82-44.09-18.08-69.24-14.67-12.35,1.68-22.05,8.63-33.48,12.19,1.94-28.69,14.47-40.86,36.24-56.19,3.6-2.53,8.45-2.83,11.64-5.36,14.96-11.83,15.83-31.41,42.95-35.69,15.15-2.39,86.89-2.9,101.02-.03,18.27,3.71,31.54,27.55,40.85,42.02l196.52-194.55c16.35-11.5,41.31-5.2,60.75-5.14,89.28.3,183.01-5.03,271.87,0,5.74.33,34.9-3.18,33.02,5.19l-87.11,85.07c-4.69,2.1-8.65,2.81-13.74,3.26-64.27,5.69-136.74-4.52-201.89.02-20.33,10.55-32.38,31.56-50.15,45.54l-8.4,11.74h238.04l-3.17,6.39-85.97,84.05-217.92.99-52.12,53.09h238.04Z"/>
  </g>
</svg>
