<?xml version="1.0" encoding="UTF-8"?>
<svg xmlns="http://www.w3.org/2000/svg" xmlns:xlink="http://www.w3.org/1999/xlink" viewBox="0 0 1200 1200" width="1200" height="1200">
  <defs>
    <style>
      .cls-1 {
        fill: none;
      }

      .cls-2 {
        mask: url(#mask);
      }

      .cls-3 {
        fill: #030302;
      }

      .cls-4 {
        isolation: isolate;
      }

      .cls-5 {
        fill: #fff;
      }

      .cls-6 {
        mix-blend-mode: overlay;
      }

      .cls-7 {
        fill: #282826;
      }
    </style>
    <mask id="mask" x="14660.17" y="13707.54" width="232.64" height="232.64" maskUnits="userSpaceOnUse">
      <g id="cs_mask_1_star-8" data-name="cs mask 1 star-8">
        <path class="cls-5" d="M14776.49,13707.54c14.45,72.56,43.34,101.73,116.32,116.32-73,14.59-101.88,43.76-116.32,116.32-14.45-72.56-43.34-101.75-116.32-116.32,73-14.59,101.88-43.76,116.32-116.32Z"/>
      </g>
    </mask>
  </defs>
  <g transform="translate(-3371.042 -5369.690) scale(0.483929)">
    <g>
        <path d="M8122.77,11828.95c437.82-49.47,684.75,488.34,346.2,771.76-348.27,291.55-864.83-67.68-699.54-493.21,55.84-143.75,198.22-261.02,353.34-278.54ZM8433.7,12368.78h-125.73c-7.92,0-54.06,43.17-80.24,48.72-83.76,17.73-151.8-19.18-178.35-99.84l7.13-13.36h386.87l8.63-10.67c12.57-209.52-196.76-365.58-391.45-268.98-189.01,93.78-199.69,372.13-13.34,475.93,143.59,79.98,323.13,17.85,386.48-131.8Z"/>
        <path d="M8304.74,12214.04h-251.46c29.76-135.28,226.17-140.93,251.46,0Z"/>
      </g>
  </g>
</svg>
