<?xml version="1.0" encoding="UTF-8"?>
<svg xmlns="http://www.w3.org/2000/svg" xmlns:xlink="http://www.w3.org/1999/xlink" viewBox="0 0 1200 1200" width="1200" height="1200">
  <defs>
    <style>
      .cls-1 {
        fill: none;
      }

      .cls-2 {
        mask: url(#mask);
      }

      .cls-3 {
        fill: #030302;
      }

      .cls-4 {
        isolation: isolate;
      }

      .cls-5 {
        fill: #fff;
      }

      .cls-6 {
        mix-blend-mode: overlay;
      }

      .cls-7 {
        fill: #282826;
      }
    </style>
    <mask id="mask" x="14660.17" y="13707.54" width="232.64" height="232.64" maskUnits="userSpaceOnUse">
      <g id="cs_mask_1_star-8" data-name="cs mask 1 star-8">
        <path class="cls-5" d="M14776.49,13707.54c14.45,72.56,43.34,101.73,116.32,116.32-73,14.59-101.88,43.76-116.32,116.32-14.45-72.56-43.34-101.75-116.32-116.32,73-14.59,101.88-43.76,116.32-116.32Z"/>
      </g>
    </mask>
  </defs>
  <g transform="translate(-12877.444 -13393.153) scale(1.159104)">
    <path d="M11459.79,11943.95c-.62-.77-.67-.94-1.66-.9-6.98.26-20.77,8.7-26.46,13.05-9.92,7.58-17.03,17.52-25.02,26.92-.4-17.57.7-35.29,4.27-52.5,12.56-60.6,61.01-112.42,125-115.82h317.72s-62.01,100.67-62.01,100.67h-227.93v90.21h181.22v100.68h-181.22v74.9c44.54-2.48,87.28,10.54,130.32,19.08,56.7,11.25,101.94,16.61,141.07-33.21l18.55-27.75c.28,30.74-4.07,60.91-17.02,88.88-17.6,38-49.93,70.71-90.9,82.26-69.68,19.65-115.06-24.94-177.82-41.25-50.24-13.05-98-6-137.47,28.79-2.73,2.41-16.48,17.7-17.74,17.7h-11.68c8.17-25.3,20.84-50,37.87-70.45,6.47-7.76,13.93-14.51,20.92-21.77v-279.48Z"/>
  </g>
</svg>
