<?xml version="1.0" encoding="UTF-8"?>
<svg xmlns="http://www.w3.org/2000/svg" xmlns:xlink="http://www.w3.org/1999/xlink" viewBox="0 0 1200 1200" width="1200" height="1200">
  <defs>
    <style>
      .cls-1 {
        fill: none;
      }

      .cls-2 {
        mask: url(#mask);
      }

      .cls-3 {
        fill: #030302;
      }

      .cls-4 {
        isolation: isolate;
      }

      .cls-5 {
        fill: #fff;
      }

      .cls-6 {
        mix-blend-mode: overlay;
      }

      .cls-7 {
        fill: #282826;
      }
    </style>
    <mask id="mask" x="14660.17" y="13707.54" width="232.64" height="232.64" maskUnits="userSpaceOnUse">
      <g id="cs_mask_1_star-8" data-name="cs mask 1 star-8">
        <path class="cls-5" d="M14776.49,13707.54c14.45,72.56,43.34,101.73,116.32,116.32-73,14.59-101.88,43.76-116.32,116.32-14.45-72.56-43.34-101.75-116.32-116.32,73-14.59,101.88-43.76,116.32-116.32Z"/>
      </g>
    </mask>
  </defs>
  <g transform="translate(-5061.688 -8506.520) scale(0.682887)">
    <g>
        <path d="M8291.38,12922.11c149.47-7.52,285.01,74.28,347.4,209.42,12.22,26.48,26.42,57.55-.75,80.52-14.45,12.22-42.46,11.79-60.69,10.16-31.38-2.79-34.71-31.54-47.27-54.63-102.32-188.18-366.23-171.72-452.2,22.15-84.01,189.47,68.57,410.23,278.54,374.24,82.49-14.14,166.97-81.32,193.68-161.64,1.79-5.38,4.59-12.22-1.79-15.51l-191.88-.07c-22.01,6.92-13.82,31.89-15.2,49.49-4.32,55.1-86.05,57.5-94.83,3.5,2.43-33.41-3.33-71.59.1-104.44,2.32-22.26,24.21-42.99,46.38-44.89h351.83c45.7,6.12,32.25,61.77,25.67,93.08-49.65,236.22-309.9,372.56-528.26,254.45-186.72-101-250.89-339.84-150.5-525.61,59.35-109.82,174.2-183.91,299.77-190.23Z"/>
        <path d="M8298.47,13135.65c79.7-8.22,88.9,109.64,12.13,115.8-77.67,6.23-87.44-108.04-12.13-115.8Z"/>
      </g>
  </g>
</svg>
