<?xml version="1.0" encoding="UTF-8"?>
<svg xmlns="http://www.w3.org/2000/svg" xmlns:xlink="http://www.w3.org/1999/xlink" viewBox="0 0 1200 1200" width="1200" height="1200">
  <defs>
    <style>
      .cls-1 {
        fill: none;
      }

      .cls-2 {
        mask: url(#mask);
      }

      .cls-3 {
        fill: #030302;
      }

      .cls-4 {
        isolation: isolate;
      }

      .cls-5 {
        fill: #fff;
      }

      .cls-6 {
        mix-blend-mode: overlay;
      }

      .cls-7 {
        fill: #282826;
      }
    </style>
    <mask id="mask" x="14660.17" y="13707.54" width="232.64" height="232.64" maskUnits="userSpaceOnUse">
      <g id="cs_mask_1_star-8" data-name="cs mask 1 star-8">
        <path class="cls-5" d="M14776.49,13707.54c14.45,72.56,43.34,101.73,116.32,116.32-73,14.59-101.88,43.76-116.32,116.32-14.45-72.56-43.34-101.75-116.32-116.32,73-14.59,101.88-43.76,116.32-116.32Z"/>
      </g>
    </mask>
  </defs>
  <g transform="translate(-611.199 -7310.355) scale(0.725947)">
    <path d="M1390.94,10660.12l52.49,15-21.98-65c5.69,2.7,12.09,3.32,17.98,5.51,15.01,5.6,29.66,15.29,45.01,20.48l-7.99-63.99c20.56,7.17,36.64,22.8,54.98,34l3.49-61.02c3.26-6.63,12.3,2.65,15.53,5.5,10.08,8.92,21.43,24.67,30.98,32.02,1,.77,1.27,1.94,3,1.49l13.25-54.76,8.05-3.13,34.69,46.9,28.51-67,27.52,66.99c2.38.55,1.61-.41,2.22-1.3,8.42-12.29,15.47-27.64,24.79-39.18,2.3-2.84,5.71-4.75,7.18-8.3,1.1-.64,4.77-.47,5.84.24,4.8,3.17,12.07,51.22,14.96,59.53l50.98-51.99,1.01,73.99,59.99-42.99-11.99,72.99,66.99-31.99-26,69.98,75-20.98-41,65.98,78-6.98-49.99,57.98,78.99,6.02-61,47.98,74,19.02-66.99,37.49,69.99,30.51-71.99,26,64,43.98-75,12.02,55,53.98-75.99-.98,45.01,63.48-75-14.48,31.99,71.99-70.98-31,20.98,79-65.98-46,4.98,78-56.99-52.99-9.01,74.99-44.98-60-22.02,76.99-34.48-71.99-35.49,72.99-22.02-78-45.51,61.01-9.49-76-56.99,51.99,6-75.98-66,42.98,19.99-76.99-70.98,31,32.98-72-76.99,15.5,46.99-64.5-77,.98,55-53.98-72.55-11.97-1.44-2.01,62.99-42.01-70.99-26,68.99-30.51-66.99-37.49,73.98-19.51-57.98-47.49,75.99-6.01-49.99-57.5,76.99,6.5-33-58.99h15.5ZM1841.44,10777.12v-81.5l-1.5-1.5h-344.5v425h346v-81.5l-1.5-1.5h-239.5v-90h241v-80.5l-1.5-1.5h-239.5v-85.5l1.5-1.5h239.5Z"/>
  </g>
</svg>
