<?xml version="1.0" encoding="UTF-8"?>
<svg xmlns="http://www.w3.org/2000/svg" xmlns:xlink="http://www.w3.org/1999/xlink" viewBox="0 0 1200 1200" width="1200" height="1200">
  <defs>
    <style>
      .cls-1 {
        fill: none;
      }

      .cls-2 {
        mask: url(#mask);
      }

      .cls-3 {
        fill: #030302;
      }

      .cls-4 {
        isolation: isolate;
      }

      .cls-5 {
        fill: #fff;
      }

      .cls-6 {
        mix-blend-mode: overlay;
      }

      .cls-7 {
        fill: #282826;
      }
    </style>
    <mask id="mask" x="14660.17" y="13707.54" width="232.64" height="232.64" maskUnits="userSpaceOnUse">
      <g id="cs_mask_1_star-8" data-name="cs mask 1 star-8">
        <path class="cls-5" d="M14776.49,13707.54c14.45,72.56,43.34,101.73,116.32,116.32-73,14.59-101.88,43.76-116.32,116.32-14.45-72.56-43.34-101.75-116.32-116.32,73-14.59,101.88-43.76,116.32-116.32Z"/>
      </g>
    </mask>
  </defs>
  <g transform="translate(-2787.560 -9195.875) scale(0.884431)">
    <path d="M4127.16,11227.15c0,15.18-8.76,25.69-21.61,33.29l-256.36,144.24c-15.18,8.76-28.61,5.26-41.46-1.75l-255.19-145.99c-11.68-7.01-19.27-19.85-19.27-33.29v-302.49c0-14.02,8.18-26.86,20.44-33.29l257.52-143.65c11.68-5.84,25.69-5.84,36.79.58l258.11,144.82c12.85,6.42,19.85,17.52,20.44,33.29l.06,44.61c-5.72,2.8-55.3,29.78-61.96,34.22l-222.49,128.47c-7.59,4.09-13.43,5.26-22.77.58l-138.98-77.67v68.91l113.4,63.07,22.07,12.26c5.66,3.04,12.26,5.43,19.15,4.03.06.06.12.06.18,0,2.74-.18,5.31-.99,7.53-2.86l284.04-160.94.12,67.62-283.57,162.81c-7.59,4.09-17.52,5.84-25.11,1.75l-137.81-82.92v72.41l135.48,75.33c10.51,6.42,19.27,5.84,26.28,1.75l284.85-166.95.12,57.75Z"/>
  </g>
</svg>
