<?xml version="1.0" encoding="UTF-8"?>
<svg xmlns="http://www.w3.org/2000/svg" xmlns:xlink="http://www.w3.org/1999/xlink" viewBox="0 0 1200 1200" width="1200" height="1200">
  <defs>
    <style>
      .cls-1 {
        fill: none;
      }

      .cls-2 {
        mask: url(#mask);
      }

      .cls-3 {
        fill: #030302;
      }

      .cls-4 {
        isolation: isolate;
      }

      .cls-5 {
        fill: #fff;
      }

      .cls-6 {
        mix-blend-mode: overlay;
      }

      .cls-7 {
        fill: #282826;
      }
    </style>
    <mask id="mask" x="14660.17" y="13707.54" width="232.64" height="232.64" maskUnits="userSpaceOnUse">
      <g id="cs_mask_1_star-8" data-name="cs mask 1 star-8">
        <path class="cls-5" d="M14776.49,13707.54c14.45,72.56,43.34,101.73,116.32,116.32-73,14.59-101.88,43.76-116.32,116.32-14.45-72.56-43.34-101.75-116.32-116.32,73-14.59,101.88-43.76,116.32-116.32Z"/>
      </g>
    </mask>
  </defs>
  <g transform="translate(-834.275 -5880.144) scale(0.691942)">
    <path d="M2048.71,9320.62h423v88.01h-421.5c-2.27,1.47-.16,5.16.48,7.52,13.65,50.59,62.45,89.36,114.47,93.52l306.55-.04v266l-375.55.04c-253.17-14.06-422.22-253.44-370.97-499.06,36.45-174.65,184.35-309.8,364.03-321.97h382.49s0,264.49,0,264.49c-.88,1.42-2,1.38-3.45,1.55-4.93.57-12.86.12-18.09,0-95.72-2.53-192.16-1.1-287.95-.03-54.31,6.86-100.47,46.62-113.51,99.98Z"/>
  </g>
</svg>
