<?xml version="1.0" encoding="UTF-8"?>
<svg xmlns="http://www.w3.org/2000/svg" xmlns:xlink="http://www.w3.org/1999/xlink" viewBox="0 0 1200 1200" width="1200" height="1200">
  <defs>
    <style>
      .cls-1 {
        fill: none;
      }

      .cls-2 {
        mask: url(#mask);
      }

      .cls-3 {
        fill: #030302;
      }

      .cls-4 {
        isolation: isolate;
      }

      .cls-5 {
        fill: #fff;
      }

      .cls-6 {
        mix-blend-mode: overlay;
      }

      .cls-7 {
        fill: #282826;
      }
    </style>
    <mask id="mask" x="14660.17" y="13707.54" width="232.64" height="232.64" maskUnits="userSpaceOnUse">
      <g id="cs_mask_1_star-8" data-name="cs mask 1 star-8">
        <path class="cls-5" d="M14776.49,13707.54c14.45,72.56,43.34,101.73,116.32,116.32-73,14.59-101.88,43.76-116.32,116.32-14.45-72.56-43.34-101.75-116.32-116.32,73-14.59,101.88-43.76,116.32-116.32Z"/>
      </g>
    </mask>
  </defs>
  <g transform="translate(-22356.283 -18015.819) scale(2.052797)">
    <path d="M11294.51,9124.58c6.59,2.06-2.32,22.99-3.98,28.07-2.53,7.75-9.67,31.89-17.18,34.09l-203.2.39c-44.07-3.78-25.32-47.95-17.19-74.98,9.38-31.2,32.53-112.95,50.88-134.98,12.84-15.42,31.16-25.18,51.23-27.27l179.19.37,5.52,8.22c-4.58,8.79-11.18,44.87-18.85,48.32l-152.67,1.22c-1.73.38-3.37.7-4.43,2.3-3.95,5.99-6.94,23.35-9.5,30.95h146.6c.62,0,3.34,3.17,3.7,4.36,1.76,5.84-10.06,41.93-15.74,44.48l-149.52,1.09c-4.17,1.42-11.07,27.68-12.27,33.39h167.43Z"/>
  </g>
</svg>
