<?xml version="1.0" encoding="UTF-8"?>
<svg xmlns="http://www.w3.org/2000/svg" xmlns:xlink="http://www.w3.org/1999/xlink" viewBox="0 0 1200 1200" width="1200" height="1200">
  <defs>
    <style>
      .cls-1 {
        fill: none;
      }

      .cls-2 {
        mask: url(#mask);
      }

      .cls-3 {
        fill: #030302;
      }

      .cls-4 {
        isolation: isolate;
      }

      .cls-5 {
        fill: #fff;
      }

      .cls-6 {
        mix-blend-mode: overlay;
      }

      .cls-7 {
        fill: #282826;
      }
    </style>
    <mask id="mask" x="14660.17" y="13707.54" width="232.64" height="232.64" maskUnits="userSpaceOnUse">
      <g id="cs_mask_1_star-8" data-name="cs mask 1 star-8">
        <path class="cls-5" d="M14776.49,13707.54c14.45,72.56,43.34,101.73,116.32,116.32-73,14.59-101.88,43.76-116.32,116.32-14.45-72.56-43.34-101.75-116.32-116.32,73-14.59,101.88-43.76,116.32-116.32Z"/>
      </g>
    </mask>
  </defs>
  <g transform="translate(-25636.906 -17653.307) scale(2.028696)">
    <path d="M13089.26,8875.74l-19.2,58.51-131.79,1.19c-15.67,2.27-30.69,15.64-30.97,31.71l4.84,1.59,143.47-1.67-17.85,59.05-128.33.64c-18.23,3.13-28.99,15.83-33.26,33.23h158.62l-18.6,59.38-208.11-.09c-18.83-2.12-31.57-20.03-27.31-38.54,27.13-61.87,33.64-204.99,125.05-204.99h183.45Z"/>
  </g>
</svg>
