<?xml version="1.0" encoding="UTF-8"?>
<svg xmlns="http://www.w3.org/2000/svg" xmlns:xlink="http://www.w3.org/1999/xlink" viewBox="0 0 1200 1200" width="1200" height="1200">
  
  <g transform="translate(-1004.176 -962.845) scale(0.880399)">
    <g>
    <path d="M2094.27,1888.04c.77.56.81.66.82,1.53.03,4.02-2.69,12.87-4,17.03-8.1,25.75-36.46,78.43-58.75,93.46-12.64,8.53-28.72,11.96-43.76,13.23l-414.28-.04,47.38-106.69c4.63-9.03,17.66-18.52,27.97-18.52h444.62Z"/>
    <path d="M2246.85,1540.14c-1.09,14.07-6.71,28.27-12.62,41-19.96,43.03-52.38,77.04-102.45,79.75l-399.29-.04,31.85-68.24c16.49-30.58,40.51-50.47,76.46-52.5l406.04.03Z"/>
    <path d="M2167.37,1714.84c-1.48,16.01-8.91,32.83-16.37,46.99-25.66,48.73-57.34,70.49-112.93,70.69-105.45.38-211.37.32-316.41,0-22.38-.07-44.77.12-67.13.03l43.62-97.71c3.48-8.02,16.84-20,25.73-20h443.49Z"/>
    <path d="M1397.35,2013.25c3.24-8.49,7.4-16.78,11.35-25.01,56.25-116.99,113.1-233.95,170.95-350.15,19.54-39.25,25.86-61.22,68.37-80.84,21.73-10.03,60.42-20.23,84.12-17.11,1.04.14,1.31-.41,1.09,1.1l-211.42,472.01h-124.46Z"/>
  </g>
  </g>
</svg>
