<?xml version="1.0" encoding="UTF-8"?>
<svg xmlns="http://www.w3.org/2000/svg" xmlns:xlink="http://www.w3.org/1999/xlink" viewBox="0 0 1200 1200" width="1200" height="1200">
  <defs>
    <style>
      .cls-1 {
        fill: none;
      }

      .cls-2 {
        mask: url(#mask);
      }

      .cls-3 {
        fill: #030302;
      }

      .cls-4 {
        isolation: isolate;
      }

      .cls-5 {
        fill: #fff;
      }

      .cls-6 {
        mix-blend-mode: overlay;
      }

      .cls-7 {
        fill: #282826;
      }
    </style>
    <mask id="mask" x="14660.17" y="13707.54" width="232.64" height="232.64" maskUnits="userSpaceOnUse">
      <g id="cs_mask_1_star-8" data-name="cs mask 1 star-8">
        <path class="cls-5" d="M14776.49,13707.54c14.45,72.56,43.34,101.73,116.32,116.32-73,14.59-101.88,43.76-116.32,116.32-14.45-72.56-43.34-101.75-116.32-116.32,73-14.59,101.88-43.76,116.32-116.32Z"/>
      </g>
    </mask>
  </defs>
  <g transform="translate(-7371.832 -3589.836) scale(0.622133)">
    <g>
        <path d="M13188.46,6683.86l7.86-34.07h277.11l31.44-117.09h-403.69l-31.44,117.09-8.96,34.07h-.19l-27.28,101.58-8.96,34.07h-.19l-31.42,117h403.69l31.42-117,9.15-34.07,27.28-101.58h-239.26l-23.46,101.58h103.42l-9.15,34.07h-138.96l1.85-6.86,29.74-128.79Z"/>
        <polygon points="12325 6649.78 12315.85 6683.85 12594.06 6683.85 12566.78 6785.44 12288.57 6785.44 12279.42 6819.51 12557.64 6819.51 12526.22 6936.51 12122.53 6936.51 12153.95 6819.51 12163.09 6785.44 12190.38 6683.85 12199.52 6649.78 12230.96 6532.7 12634.65 6532.7 12603.21 6649.78 12325 6649.78"/>
        <polygon points="12760.1 6649.82 12750.95 6683.89 13029.16 6683.89 13001.88 6785.48 12723.67 6785.48 12714.52 6819.55 12992.74 6819.55 12961.32 6936.55 12557.63 6936.55 12589.05 6819.55 12598.19 6785.48 12625.48 6683.89 12634.62 6649.82 12666.06 6532.74 13069.75 6532.74 13038.31 6649.82 12760.1 6649.82"/>
      </g>
  </g>
</svg>
