<?xml version="1.0" encoding="UTF-8"?>
<svg xmlns="http://www.w3.org/2000/svg" xmlns:xlink="http://www.w3.org/1999/xlink" viewBox="0 0 1200 1200" width="1200" height="1200">
  <defs>
    <style>
      .cls-1 {
        fill: none;
      }

      .cls-2 {
        mask: url(#mask);
      }

      .cls-3 {
        fill: #030302;
      }

      .cls-4 {
        isolation: isolate;
      }

      .cls-5 {
        fill: #fff;
      }

      .cls-6 {
        mix-blend-mode: overlay;
      }

      .cls-7 {
        fill: #282826;
      }
    </style>
    <mask id="mask" x="14660.17" y="13707.54" width="232.64" height="232.64" maskUnits="userSpaceOnUse">
      <g id="cs_mask_1_star-8" data-name="cs mask 1 star-8">
        <path class="cls-5" d="M14776.49,13707.54c14.45,72.56,43.34,101.73,116.32,116.32-73,14.59-101.88,43.76-116.32,116.32-14.45-72.56-43.34-101.75-116.32-116.32,73-14.59,101.88-43.76,116.32-116.32Z"/>
      </g>
    </mask>
  </defs>
  <g transform="translate(-5280.553 -7137.837) scale(0.635869)">
    <path d="M9695.88,12141.28h-170.99c13.53,37.33,10.83,77.87,0,115.53h170.99c-24.77,162.17-165.88,294.45-329.3,309.6-382.93,35.49-566.35-458.56-246.78-676.57,225.59-153.9,537.14-15.13,576.09,251.44ZM9522.58,12138.97c-58.06-190.14-329.61-189.85-388.19,0h388.19ZM9522.57,12256.83l-385.95,3.49c61.49,185.37,326.7,181.98,385.95-3.49Z"/>
  </g>
</svg>
