<?xml version="1.0" encoding="UTF-8"?>
<svg xmlns="http://www.w3.org/2000/svg" xmlns:xlink="http://www.w3.org/1999/xlink" viewBox="0 0 1200 1200" width="1200" height="1200">
  <defs>
    <style>
      .cls-1 {
        fill: none;
      }

      .cls-2 {
        mask: url(#mask);
      }

      .cls-3 {
        fill: #030302;
      }

      .cls-4 {
        isolation: isolate;
      }

      .cls-5 {
        fill: #fff;
      }

      .cls-6 {
        mix-blend-mode: overlay;
      }

      .cls-7 {
        fill: #282826;
      }
    </style>
    <mask id="mask" x="14660.17" y="13707.54" width="232.64" height="232.64" maskUnits="userSpaceOnUse">
      <g id="cs_mask_1_star-8" data-name="cs mask 1 star-8">
        <path class="cls-5" d="M14776.49,13707.54c14.45,72.56,43.34,101.73,116.32,116.32-73,14.59-101.88,43.76-116.32,116.32-14.45-72.56-43.34-101.75-116.32-116.32,73-14.59,101.88-43.76,116.32-116.32Z"/>
      </g>
    </mask>
  </defs>
  <g transform="translate(-3917.254 -5268.923) scale(0.717072)">
    <path d="M6246.93,8444.42c-88.84-34.21-157.35-115.39-168.31-211.25h57.44c39.41,228.17,371.68,229.62,410.35,0h-69.75c-38.56,135.99-230.28,135.34-266.73,0h174.34v-73.87h-174.34c34.36-137.03,229.26-136.07,266.73,0h69.75c-36.35-229.51-373.89-230.1-410.35,0h-57.44c11.8-111.29,103.97-203.73,212.55-224.47,149.78-28.61,293.02,73.56,312.69,224.47h72.33c-23.98-244.87-296.43-379.59-508.55-253.62-244.66,145.29-206.58,516.55,61.8,609.58,213.95,74.17,423.79-70.62,446.48-282.09h-72.06c-23.73,167.88-196.25,273.12-356.93,211.25Z"/>
  </g>
</svg>
