<?xml version="1.0" encoding="UTF-8"?>
<svg xmlns="http://www.w3.org/2000/svg" xmlns:xlink="http://www.w3.org/1999/xlink" viewBox="0 0 1200 1200" width="1200" height="1200">
  
  <g transform="translate(-370.699 -1837.598) scale(0.889709)">
    <path d="M972.94,3068.77c-3.78-61.02,17.84-120.02,59.96-163.84,28.95-30.12,67.38-50.65,90.91-86.03,20.15-30.3,25.71-64.32,15.57-99.51-1-.19-1.17,1.36-1.3,2.05-2.05,10.81-2.63,20.73-5.81,31.68-12.96,44.58-50.76,75.8-97.48,78.72-8.15.51-24.27-2.32-30.6.89-11.09,8.93-23.15,16.81-34.17,25.81-2.07,1.69-6.27,4.64-7.58,6.66-3.68,5.67-3.83,17.3-7.15,23.59l-43.63,30.59-5.46-.19-37.29-16.31-16.49-61.87.38-5.24,101.77-114.18-4.46-30.76,43.06-43.07-203.18-236.55c.49-.44,5.35,3.25,6.24,3.88,8.27,5.84,16.36,12.18,24.43,18.31,75.85,57.67,148.73,119.19,222.55,179.39,1.66.44,6.64-3.02,8.4-4.08,2.32-1.4,8.98-5.44,9.81-7.43l5.24-75.74c.12-.94-.36-1.41,1.14-1.12,3.79.71,16.78,13.44,19.88,16.86,14.85,16.36,25.02,36.82,30.16,58.31,1.63,3.61,12,1.75,15.92,2.07,59.63,4.92,94.58,59.93,162.68,63,31.48,1.42,64.04-1.13,95.63-.02l-60.75,66.33-78.96.51-26.74,41.86h164.95c-1.21,3.93-5.88,6.32-8.64,8.98-20.63,19.84-40.53,40.49-61.3,60.2l-77.77.17c-9.11,15.24-18.82,30.05-29.99,43.87h175.45c.47,1.77-.45,1.27-.96,1.71-8.2,7.25-15.58,15.4-23.39,23.05-18.14,17.77-36.8,35.2-54.91,53.06M1055.41,2685.65l-38.61,15.74c-8.27,9.99-16.37,20.27-23.92,30.82-.62.87-3.98,5.36-3.45,5.92l39.51-15.22,26.47-37.25Z"/>
  </g>
</svg>
