<?xml version="1.0" encoding="UTF-8"?>
<svg xmlns="http://www.w3.org/2000/svg" xmlns:xlink="http://www.w3.org/1999/xlink" viewBox="0 0 1200 1200" width="1200" height="1200">
  <defs>
    <style>
      .cls-1 {
        fill: none;
      }

      .cls-2 {
        mask: url(#mask);
      }

      .cls-3 {
        fill: #030302;
      }

      .cls-4 {
        isolation: isolate;
      }

      .cls-5 {
        fill: #fff;
      }

      .cls-6 {
        mix-blend-mode: overlay;
      }

      .cls-7 {
        fill: #282826;
      }
    </style>
    <mask id="mask" x="14660.17" y="13707.54" width="232.64" height="232.64" maskUnits="userSpaceOnUse">
      <g id="cs_mask_1_star-8" data-name="cs mask 1 star-8">
        <path class="cls-5" d="M14776.49,13707.54c14.45,72.56,43.34,101.73,116.32,116.32-73,14.59-101.88,43.76-116.32,116.32-14.45-72.56-43.34-101.75-116.32-116.32,73-14.59,101.88-43.76,116.32-116.32Z"/>
      </g>
    </mask>
  </defs>
  <g transform="translate(-12973.721 -9656.979) scale(0.951059)">
    <path d="M14536.5,10834.48h-370.32c10.66,46.83,45.82,79.65,92.61,89.28,12.34,2.54,23.3,2.9,35.76,3.43,68.93,2.93,138.6-.78,207.68.68l.95.96c-72.5,124.63-232.43,162.92-355.22,86.18-113.61-71-158.12-216.08-102.06-339.03,66.41-145.64,249.03-198.14,382.01-106.16,83.98,58.09,126.68,163.8,108.6,264.66ZM14396.73,10729.98c-19.92-62.56-84.23-97.75-148.26-80.66-33.43,8.92-62.9,33.69-77.18,65.2-.99,2.18-5.83,13.77-5.74,15.15.1,1.57,1.53.32,1.61.32h229.57Z"/>
  </g>
</svg>
