<?xml version="1.0" encoding="UTF-8"?>
<svg xmlns="http://www.w3.org/2000/svg" xmlns:xlink="http://www.w3.org/1999/xlink" viewBox="0 0 1200 1200" width="1200" height="1200">
  <defs>
    <style>
      .cls-1 {
        fill: none;
      }

      .cls-2 {
        mask: url(#mask);
      }

      .cls-3 {
        fill: #030302;
      }

      .cls-4 {
        isolation: isolate;
      }

      .cls-5 {
        fill: #fff;
      }

      .cls-6 {
        mix-blend-mode: overlay;
      }

      .cls-7 {
        fill: #282826;
      }
    </style>
    <mask id="mask" x="14660.17" y="13707.54" width="232.64" height="232.64" maskUnits="userSpaceOnUse">
      <g id="cs_mask_1_star-8" data-name="cs mask 1 star-8">
        <path class="cls-5" d="M14776.49,13707.54c14.45,72.56,43.34,101.73,116.32,116.32-73,14.59-101.88,43.76-116.32,116.32-14.45-72.56-43.34-101.75-116.32-116.32,73-14.59,101.88-43.76,116.32-116.32Z"/>
      </g>
    </mask>
  </defs>
  <g transform="translate(-16114.696 -15171.977) scale(1.519154)">
    <path d="M11191.47,10202.19l-21.63,96.82-181.9.1c-20.14,1.54-28.86,21.55-33.37,38.76l158.26-.02-16.22,83.92-161.33.22c-.32,12.58-8.61,23.31.84,34.49,1.16,1.37,7.85,6.32,8.75,6.32h194.91l-22.95,99.17-206.14-.37c-64.22-6.51-96.9-43.28-91.77-108.45,2.95-37.48,28.57-150.8,46.23-182.06,16.45-29.13,61.99-68.88,96.96-68.88h229.37Z"/>
  </g>
</svg>
