<?xml version="1.0" encoding="UTF-8"?>
<svg xmlns="http://www.w3.org/2000/svg" xmlns:xlink="http://www.w3.org/1999/xlink" viewBox="0 0 1200 1200" width="1200" height="1200">
  <defs>
    <style>
      .cls-1 {
        fill: none;
      }

      .cls-2 {
        mask: url(#mask);
      }

      .cls-3 {
        fill: #030302;
      }

      .cls-4 {
        isolation: isolate;
      }

      .cls-5 {
        fill: #fff;
      }

      .cls-6 {
        mix-blend-mode: overlay;
      }

      .cls-7 {
        fill: #282826;
      }
    </style>
    <mask id="mask" x="14660.17" y="13707.54" width="232.64" height="232.64" maskUnits="userSpaceOnUse">
      <g id="cs_mask_1_star-8" data-name="cs mask 1 star-8">
        <path class="cls-5" d="M14776.49,13707.54c14.45,72.56,43.34,101.73,116.32,116.32-73,14.59-101.88,43.76-116.32,116.32-14.45-72.56-43.34-101.75-116.32-116.32,73-14.59,101.88-43.76,116.32-116.32Z"/>
      </g>
    </mask>
  </defs>
  <g transform="translate(-891.382 -387.192) scale(0.804086)">
    <path d="M2101.99,1188.35c.32,1.66,2.12,2.56,3.34,3.53,22.13,17.5,52.78,31.84,74.01,49.67,8.6,7.23,11.77,14.87,12.64,26.08,2.71,34.58-2.16,72.59.01,107.54,1.27,2.6-4.14,10.56-5.68,10.56h-81.83c-.7,2.91.56,2.06,1.58,2.86,22.71,17.86,54.22,33.52,75.23,52.13,8.32,7.37,9.96,16.14,10.7,26.78,2.34,34.02-1.86,70.69-.04,105-1.05,8.44-3.23,11.15-11.81,11.93l-392.04-.37c-74.34-52.3-150.16-102.67-223.7-156.09-16.85-12.24-34.41-24.42-49.58-38.5h416.01v-140.55l-1.87-1.87h-344.8l-68.09-54.97h414.76v-140.55l-1.87-1.87h-336.06l-76.83-54.97h414.76v-123.68l4.46,1.16,248.45,175.06c5.51,7.01,7.59,15.47,8.24,24.24,2.01,26.93,2.59,78.53-.07,104.97-.37,3.63-2.32,11.89-6.85,11.89h-83.08Z"/>
  </g>
</svg>
