<?xml version="1.0" encoding="UTF-8"?>
<svg xmlns="http://www.w3.org/2000/svg" xmlns:xlink="http://www.w3.org/1999/xlink" viewBox="0 0 1200 1200" width="1200" height="1200">
  <defs>
    <style>
      .cls-1 {
        fill: none;
      }

      .cls-2 {
        mask: url(#mask);
      }

      .cls-3 {
        fill: #030302;
      }

      .cls-4 {
        isolation: isolate;
      }

      .cls-5 {
        fill: #fff;
      }

      .cls-6 {
        mix-blend-mode: overlay;
      }

      .cls-7 {
        fill: #282826;
      }
    </style>
    <mask id="mask" x="14660.17" y="13707.54" width="232.64" height="232.64" maskUnits="userSpaceOnUse">
      <g id="cs_mask_1_star-8" data-name="cs mask 1 star-8">
        <path class="cls-5" d="M14776.49,13707.54c14.45,72.56,43.34,101.73,116.32,116.32-73,14.59-101.88,43.76-116.32,116.32-14.45-72.56-43.34-101.75-116.32-116.32,73-14.59,101.88-43.76,116.32-116.32Z"/>
      </g>
    </mask>
  </defs>
  <g transform="translate(-7124.854 -3063.844) scale(0.595028)">
    <g>
        <path d="M12792.18,6097.79l-56.89,88.86-236.44-4.22c-2.38.42-3.51,3.32-4.79,5.03-11.27,15.06-20.92,34.2-30.81,50.36l237.32,4.04-62.01,96.41-378.88-4.16,155.41-243.86,377.09,7.55Z"/>
        <polygon points="13204.47 6106.39 13151.32 6193.97 12920.57 6189.71 12885.75 6244.07 13119.42 6248.01 13060.03 6343.73 12687.24 6339.46 12838.41 6098.41 13204.47 6106.39"/>
        <path d="M13623.85,6116.33l-88.67,144.58c-32.99,52.19-94.65,89.12-156.77,91.02-56.93,1.74-116.17-4.11-173.32-3.7-50.79-6.07-74.28-39.83-52.16-88.12l95.57-152.54,130.93,3.41-86.99,139.55c-.76,1.8-.53,1.79,1.29,1.89,40.77,2.14,82.93.56,123.82,1.66l29.92-49.82-76.52-2.09,57.11-90.04,195.78,4.2Z"/>
        <path d="M12875.46,5965.6l-58.72,93.7-2.75,2-376.17-7.72c33.89-54.93,98.76-91.85,163.53-92.39l274.11,4.41Z"/>
        <path d="M13704.99,5982.52l-59.83,96.68-373.09-7.81c-1.09-2.27,14.54-20.47,17.3-23.53,36.1-39.86,92.16-68.42,146.43-70.08l269.19,4.73Z"/>
        <path d="M13286.58,5973.99l-60.56,95.52-365.06-6.52c-1.12-2.27,13-20.13,15.53-23.11,31.42-37.07,83.69-65.52,132.4-69.52l277.69,3.63Z"/>
      </g>
  </g>
</svg>
