<?xml version="1.0" encoding="UTF-8"?>
<svg xmlns="http://www.w3.org/2000/svg" xmlns:xlink="http://www.w3.org/1999/xlink" viewBox="0 0 1200 1200" width="1200" height="1200">
  <defs>
    <style>
      .cls-1 {
        fill: none;
      }

      .cls-2 {
        mask: url(#mask);
      }

      .cls-3 {
        fill: #030302;
      }

      .cls-4 {
        isolation: isolate;
      }

      .cls-5 {
        fill: #fff;
      }

      .cls-6 {
        mix-blend-mode: overlay;
      }

      .cls-7 {
        fill: #282826;
      }
    </style>
    <mask id="mask" x="14660.17" y="13707.54" width="232.64" height="232.64" maskUnits="userSpaceOnUse">
      <g id="cs_mask_1_star-8" data-name="cs mask 1 star-8">
        <path class="cls-5" d="M14776.49,13707.54c14.45,72.56,43.34,101.73,116.32,116.32-73,14.59-101.88,43.76-116.32,116.32-14.45-72.56-43.34-101.75-116.32-116.32,73-14.59,101.88-43.76,116.32-116.32Z"/>
      </g>
    </mask>
  </defs>
  <g transform="translate(-19659.078 -16512.635) scale(1.744960)">
    <path d="M11799.11,9670.7l-20.28,65.76-180.02.7c-1.53.92-11.21,31.22-11.11,33.74s1.95,4.35,4.25,5.22l160.7,1.12c1.37.81,2.42,1.99,2.88,3.54,1.74,5.84-6.87,33.98-9.66,40.97-2.94,7.36-6.3,12.06-14.01,14.83l-165.62.68c-1.83.44-11.57,32.43-10.48,35.87.27.86,1.68,2.66,2.21,2.66h189.86c-5.49,13.52-11.03,53.04-20.94,61.57-.93.8-9.71,5.72-10.3,5.72h-295.6c23.29-66.42,41.13-134.83,63.66-201.5,8.94-26.46,25.25-70.87,60.51-70.87h253.94Z"/>
  </g>
</svg>
