<?xml version="1.0" encoding="UTF-8"?>
<svg xmlns="http://www.w3.org/2000/svg" xmlns:xlink="http://www.w3.org/1999/xlink" viewBox="0 0 1200 1200" width="1200" height="1200">
  <defs>
    <style>
      .cls-1 {
        fill: #fff;
      }
    </style>
  </defs>
  <g transform="translate(-3209.170 -698.484) scale(2.783728)">
    <path d="M1318.68,449.28v34.45h12.3s4.01-.01,4.01-.01l13.91-.02v-34.41h-30.22ZM1318.68,449.28v34.45h12.3s4.01-.01,4.01-.01l13.91-.02v-34.41h-30.22ZM1318.68,449.28v34.45h12.3s4.01-.01,4.01-.01l13.91-.02v-34.41h-30.22ZM1318.68,449.28v34.45h12.3s4.01-.01,4.01-.01l13.91-.02v-34.41h-30.22ZM1286.07,386.45v158.86c2.93,1.43,5.95,2.61,9.06,3.6v-165.76c-3.1.9-6.13,1.99-9.06,3.3ZM1269.77,397.18v136.41c2.38,2.42,4.87,4.55,7.44,6.41v-148.69c-2.58,1.72-5.07,3.66-7.44,5.87ZM1253.46,426.17v79.41c1.13,4.78,2.93,9.45,5.83,14.38v-109.76c-2.89,5.05-4.69,10.31-5.83,15.97ZM1302.38,381.37v169.47c3.46.75,7.02,1.33,10.68,1.77v-172.86c-3.62.38-7.18.9-10.68,1.62ZM1477.46,497.64h-58.11c-1.61.21-1.39,2.42-1.8,3.72-2.02,6.32-9.31,7.97-15.18,8.23-11.45-.45-23.12-.15-34.78.11-.25,0-.51.02-.77.02-5.19.11-10.38.21-15.54.22-.8,0-1.59,0-2.39,0-4.67,0-9.31-.1-13.91-.32-.29,0-.59-.02-.88-.04-1.03-.05-2.08-.17-3.13-.35-4.61-.75-9.22-2.7-12.3-5.95v49.89c3.99.35,8.09.57,12.3.74.38.02.77.03,1.16.05.95.04,1.9.07,2.85.1,4.63.15,9.27.25,13.91.32.8.02,1.59.03,2.39.03,5.17.08,10.36.09,15.54.08.25,0,.51,0,.77,0,9.18-.02,18.34-.15,27.47-.31,18.96-.35,35.55-.53,53.28-8.13,19.99-8.57,30.44-25.44,30.76-47.18-.14-.9-.76-1.26-1.64-1.24ZM1351.29,378.43v42.18c5.17-.06,10.36-.09,15.54-.09v-42.04c-5.17-.05-10.36-.07-15.54-.05ZM1482.44,452.48c-.31-14.93-.48-29.76-7.85-43.17-16.07-29.26-53.65-29.91-83.06-30.46-7.94-.15-16.7-.29-24.7-.36v42.04c7.95,0,16.65.09,24.48.28,7.89.19,15.49-.48,22.19,4.54,7.83,5.86,5.66,15.35,5.98,23.94h-100.8v34.45h12.3s4.01-.01,4.01-.01l13.91-.02h2.39l15.54-.02h.77l114.06-.15c.71-.12.73-.84.78-1.43.84-9.41-.67-20.07,0-29.61ZM1334.99,378.63v42.34c1.22-.09,2.48-.15,3.78-.17,3.36-.06,6.74-.12,10.13-.15v-42.2c-4.65.02-9.28.08-13.91.18ZM1327.06,378.84c-2.81.09-5.6.22-8.38.42v48.59c2.79-3.77,7.08-5.6,12.3-6.43v-42.69c-1.3.04-2.61.08-3.92.11ZM1318.68,449.28v34.45h12.3s4.01-.01,4.01-.01l13.91-.02v-34.41h-30.22ZM1318.68,449.28v34.45h12.3s4.01-.01,4.01-.01l13.91-.02v-34.41h-30.22ZM1318.68,449.28v34.45h12.3s4.01-.01,4.01-.01l13.91-.02v-34.41h-30.22ZM1318.68,449.28v34.45h12.3s4.01-.01,4.01-.01l13.91-.02v-34.41h-30.22Z"/>
  </g>
</svg>
