<?xml version="1.0" encoding="UTF-8"?>
<svg xmlns="http://www.w3.org/2000/svg" xmlns:xlink="http://www.w3.org/1999/xlink" viewBox="0 0 1200 1200" width="1200" height="1200">
  <defs>
    <style>
      .cls-1 {
        fill: none;
      }

      .cls-2 {
        mask: url(#mask);
      }

      .cls-3 {
        fill: #030302;
      }

      .cls-4 {
        isolation: isolate;
      }

      .cls-5 {
        fill: #fff;
      }

      .cls-6 {
        mix-blend-mode: overlay;
      }

      .cls-7 {
        fill: #282826;
      }
    </style>
    <mask id="mask" x="14660.17" y="13707.54" width="232.64" height="232.64" maskUnits="userSpaceOnUse">
      <g id="cs_mask_1_star-8" data-name="cs mask 1 star-8">
        <path class="cls-5" d="M14776.49,13707.54c14.45,72.56,43.34,101.73,116.32,116.32-73,14.59-101.88,43.76-116.32,116.32-14.45-72.56-43.34-101.75-116.32-116.32,73-14.59,101.88-43.76,116.32-116.32Z"/>
      </g>
    </mask>
  </defs>
  <g transform="translate(-3294.518 -5271.598) scale(0.717616)">
    <path d="M5802.71,8162.58c-21.86-246.94-295.78-383.43-508.86-256.9-244.66,145.29-206.57,516.55,61.8,609.58,201.25,69.76,398.86-54.2,440.5-245.16h-73.93c-.27.95-.54,1.89-.83,2.82-.19.64-.38,1.28-.58,1.92-.2.65-.4,1.29-.6,1.92-1.34,4.28-2.79,8.51-4.35,12.68-.21.58-.43,1.15-.65,1.73-.53,1.4-1.07,2.8-1.63,4.19-.22.57-.45,1.14-.69,1.7-.34.85-.69,1.69-1.05,2.54-.81,1.96-1.65,3.9-2.52,5.83-.25.56-.5,1.12-.76,1.68-.26.58-.52,1.16-.8,1.73-.29.64-.59,1.28-.9,1.91-.27.6-.56,1.2-.86,1.8-.36.75-.72,1.5-1.1,2.25-.11.24-.23.49-.36.73-.4.8-.8,1.6-1.21,2.39-.63,1.24-1.28,2.48-1.94,3.71-.08.16-.17.33-.26.49-.66,1.24-1.34,2.48-2.02,3.71-.61,1.1-1.23,2.2-1.86,3.29-.7,1.23-1.41,2.45-2.14,3.66-.43.72-.86,1.43-1.3,2.15-.56.93-1.13,1.85-1.71,2.76-.48.78-.97,1.56-1.48,2.34-.34.54-.69,1.08-1.03,1.61-.22.34-.44.67-.66,1.01-.57.86-1.15,1.73-1.73,2.59-.12.18-.24.36-.37.55-.12.19-.25.38-.38.56-.92,1.35-1.86,2.7-2.81,4.04-.44.62-.88,1.24-1.32,1.85-.82,1.14-1.66,2.27-2.5,3.4-.73.98-1.47,1.96-2.22,2.93-.91,1.19-1.84,2.37-2.78,3.55-.41.53-.83,1.05-1.26,1.57-1.53,1.9-3.09,3.78-4.69,5.64-.29.35-.58.69-.88,1.03-.94,1.09-1.88,2.16-2.84,3.24-.38.43-.77.86-1.16,1.28-.79.88-1.6,1.76-2.41,2.63-.55.6-1.11,1.19-1.67,1.78-.97,1.02-1.94,2.04-2.93,3.06-.02.02-.04.04-.06.06-1,1.02-2.01,2.04-3.03,3.04-.01.02-.03.03-.04.04-1.02,1.01-2.05,2.02-3.08,3.01-1.16,1.11-2.33,2.21-3.51,3.3-.43.41-.87.81-1.31,1.2-.79.72-1.58,1.44-2.38,2.15-.95.85-1.91,1.69-2.88,2.53-.66.57-1.33,1.14-2,1.71-.74.63-1.49,1.26-2.24,1.88-.6.5-1.2,1-1.81,1.49-1.07.87-2.14,1.73-3.22,2.58-.9.71-1.8,1.42-2.71,2.12-1.27.97-2.56,1.94-3.85,2.9-.88.65-1.77,1.3-2.66,1.94-1.65,1.19-3.31,2.36-4.98,3.51-.71.48-1.42.97-2.14,1.45-.4.26-.79.53-1.19.8-.52.35-1.05.7-1.58,1.04-.52.34-1.03.67-1.55,1.01-.72.47-1.45.93-2.18,1.39-1.26.8-2.52,1.58-3.8,2.36-1.24.75-2.49,1.5-3.74,2.23-1.89,1.12-3.8,2.2-5.73,3.27-.64.36-1.29.71-1.94,1.06-1.06.58-2.12,1.15-3.19,1.71-.95.5-1.91.99-2.87,1.48-.48.24-.95.48-1.43.72-.8.41-1.61.81-2.42,1.2-1.14.57-2.29,1.12-3.45,1.66-.89.42-1.79.84-2.68,1.25-.83.38-1.66.75-2.49,1.12-1.1.5-2.21.99-3.33,1.46-.59.26-1.18.51-1.77.75-.69.3-1.38.58-2.08.87-1.48.61-2.97,1.21-4.46,1.79-.9.36-1.81.7-2.72,1.04-.45.18-.9.35-1.36.51-.63.24-1.27.47-1.9.7-.89.32-1.78.64-2.68.95-1.79.63-3.58,1.24-5.38,1.82-.9.3-1.8.59-2.71.87-1.06.34-2.12.66-3.19.98-.99.3-1.97.59-2.96.87-.47.14-.94.27-1.41.4-.46.14-.93.26-1.4.39-1.05.29-2.1.58-3.16.85-1,.26-2,.52-3.01.77-1.36.34-2.73.67-4.11.99-.07.02-.14.04-.2.05-1.39.32-2.79.63-4.19.93-1.15.25-2.31.49-3.47.72-.58.12-1.16.23-1.74.34-.58.12-1.16.23-1.74.33-.67.13-1.34.25-2.01.37-.87.15-1.73.3-2.59.45-1.4.23-2.81.46-4.22.67-.38.06-.76.12-1.14.17-.88.13-1.77.25-2.65.37-3.53.48-7.07.89-10.63,1.22-.36.04-.72.07-1.07.1-.85.08-1.69.15-2.54.21-.13.02-.27.03-.41.04-.59.05-1.17.09-1.76.13-.13.01-.25.02-.37.02-.82.06-1.63.11-2.44.16-.05,0-.09,0-.14,0-.85.05-1.69.1-2.53.14-1.62.09-3.23.15-4.85.2-1,.03-2,.06-2.99.07-.65.02-1.29.03-1.94.04-2.04.02-4.09.02-6.14,0-.89-.01-1.79-.02-2.68-.05h-.39c-.5,0-1-.02-1.5-.04-.92-.03-1.83-.06-2.75-.1-1.15-.04-2.3-.1-3.45-.16-.65-.03-1.3-.07-1.96-.11-2.45-.14-4.91-.33-7.37-.55-.58-.05-1.15-.11-1.73-.16-.1-.01-.21-.02-.31-.03-1.13-.11-2.26-.23-3.39-.35-.5-.05-1-.11-1.51-.17l-1.5-.18c-.68-.08-1.35-.17-2.03-.26-1.18-.15-2.35-.31-3.53-.48-.5-.07-1-.14-1.51-.22-1.15-.17-2.29-.35-3.44-.54-1.32-.21-2.65-.44-3.97-.68-.2-.03-.4-.07-.6-.11-1.31-.23-2.62-.48-3.93-.74-1.99-.39-3.98-.81-5.97-1.25-1.62-.36-3.24-.73-4.86-1.13-.7-.16-1.4-.34-2.1-.51-1.2-.3-2.4-.61-3.6-.93-.67-.17-1.34-.35-2-.53-1.14-.31-2.27-.63-3.41-.96-.47-.13-.94-.27-1.41-.41-.48-.13-.95-.27-1.42-.42-1.21-.36-2.42-.73-3.62-1.11-1.21-.38-2.42-.76-3.62-1.16-1.27-.42-2.54-.85-3.81-1.29-1.66-.57-3.31-1.16-4.96-1.77-.52-.19-1.04-.38-1.55-.57-.81-.3-1.61-.61-2.42-.92-88.85-34.21-157.35-115.39-168.32-211.25h57.45c.31,1.79.63,3.56.98,5.32.34,1.75.7,3.5,1.08,5.23.22.97.44,1.94.66,2.9.22.97.45,1.92.69,2.88.31,1.26.63,2.52.96,3.77.1.37.2.74.3,1.11.85,3.19,1.77,6.34,2.76,9.43.34,1.07.69,2.14,1.04,3.2.04.13.08.25.13.38.35,1.02.7,2.04,1.06,3.05.31.89.62,1.77.94,2.64.06.16.12.33.19.51.26.7.52,1.4.79,2.1.21.55.42,1.11.65,1.66.28.73.57,1.46.87,2.19.19.49.39.98.6,1.47.66,1.61,1.35,3.21,2.06,4.8.34.77.68,1.53,1.03,2.29.43.93.86,1.85,1.3,2.77.44.92.88,1.83,1.33,2.74.53,1.08,1.07,2.15,1.63,3.21.27.53.55,1.06.83,1.59,1.02,1.93,2.07,3.84,3.15,5.73.79,1.37,1.58,2.72,2.39,4.06.81,1.34,1.63,2.67,2.47,3.98,1.67,2.63,3.4,5.2,5.18,7.71.55.79,1.11,1.57,1.68,2.34.79,1.08,1.59,2.16,2.4,3.23.92,1.21,1.86,2.41,2.81,3.6.71.89,1.43,1.77,2.16,2.65.72.87,1.45,1.74,2.19,2.6.74.85,1.48,1.7,2.24,2.55.37.42.75.84,1.13,1.26.37.42.76.83,1.14,1.25,2.03,2.21,4.11,4.35,6.23,6.46,4.13,4.06,8.41,7.93,12.84,11.58.42.35.84.69,1.26,1.04.69.55,1.38,1.1,2.07,1.65.75.59,1.51,1.18,2.26,1.76,1.02.78,2.04,1.55,3.08,2.3.44.33.88.65,1.32.96,1.2.88,2.41,1.73,3.63,2.57.38.27.76.53,1.14.78.38.26.76.52,1.14.77.74.5,1.49.99,2.24,1.48.01.01.02.02.03.02.86.56,1.72,1.11,2.59,1.65,1.51.95,3.04,1.88,4.58,2.79.72.43,1.45.86,2.18,1.28.82.47,1.64.93,2.47,1.39.8.45,1.6.89,2.41,1.32.72.39,1.44.78,2.17,1.15.85.45,1.71.89,2.57,1.33.77.39,1.53.77,2.3,1.14.81.4,1.62.79,2.43,1.17.82.4,1.65.78,2.49,1.16.44.21.88.41,1.32.6.88.4,1.76.79,2.65,1.17.89.39,1.78.77,2.67,1.14.89.37,1.79.74,2.69,1.1.69.28,1.39.55,2.08.82,3.41,1.33,6.85,2.57,10.33,3.71.67.23,1.34.45,2.02.66.87.28,1.74.56,2.62.82.75.23,1.5.46,2.26.68.82.24,1.64.48,2.46.71.45.13.89.25,1.34.37.74.21,1.48.41,2.23.6.74.2,1.49.39,2.24.58.96.24,1.93.48,2.89.71,1.23.29,2.45.57,3.68.84.83.18,1.66.36,2.5.53.39.09.78.17,1.17.24.71.15,1.41.29,2.12.42.71.14,1.42.27,2.13.4.7.13,1.4.25,2.11.37,1.68.29,3.36.56,5.05.81.84.13,1.68.25,2.52.36.14.02.28.04.42.06.63.08,1.25.17,1.88.24.43.06.86.11,1.29.16.81.1,1.61.19,2.41.28.93.1,1.86.2,2.8.29.54.05,1.09.1,1.63.15.75.07,1.51.13,2.27.19.85.07,1.7.13,2.55.19.3.02.6.04.91.06.44.03.89.06,1.33.08.89.05,1.78.1,2.67.14.95.04,1.91.08,2.86.11.81.03,1.62.05,2.43.07.56.01,1.11.03,1.66.03,1.15.02,2.3.03,3.45.03s2.22,0,3.33-.03c1.13-.01,2.26-.04,3.39-.07.12,0,.24-.01.36-.01.94-.03,1.88-.07,2.83-.11.06,0,.13,0,.2-.01.47-.02.94-.04,1.42-.07,1.03-.05,2.06-.11,3.09-.18.5-.03.99-.06,1.49-.1.77-.05,1.53-.11,2.3-.18,1.04-.08,2.08-.17,3.11-.27.51-.05,1.02-.1,1.52-.15.86-.09,1.71-.18,2.56-.28.85-.1,1.7-.2,2.56-.31,1.05-.13,2.1-.27,3.15-.42,1-.14,2.01-.29,3.01-.44,2.07-.32,4.13-.67,6.19-1.05.51-.09,1.02-.19,1.53-.29.78-.15,1.56-.3,2.34-.46,1.56-.31,3.12-.64,4.68-1,.78-.17,1.55-.35,2.33-.54.6-.13,1.2-.28,1.8-.43.45-.11.9-.22,1.35-.34.16-.03.31-.07.47-.12.55-.13,1.1-.27,1.65-.42.13-.03.26-.07.39-.11.61-.15,1.23-.32,1.84-.49.61-.17,1.22-.34,1.83-.51,1.24-.35,2.49-.72,3.73-1.1,2.45-.74,4.89-1.53,7.31-2.36.46-.16.92-.31,1.37-.48.16-.05.31-.1.46-.16.3-.1.6-.21.9-.32.37-.13.74-.26,1.12-.41,1.13-.41,2.25-.83,3.37-1.26,1.2-.46,2.39-.93,3.58-1.41.01,0,.02-.01.03-.01,1.1-.45,2.2-.91,3.3-1.38.24-.09.47-.19.71-.3,1.66-.71,3.31-1.45,4.96-2.21,1.64-.76,3.27-1.54,4.89-2.34.05-.02.1-.04.14-.07,1.15-.57,2.3-1.15,3.44-1.74.57-.29,1.14-.59,1.7-.9.57-.29,1.14-.6,1.7-.91.57-.3,1.13-.61,1.69-.93.56-.31,1.12-.63,1.68-.94,1.02-.58,2.03-1.17,3.04-1.76.1-.06.2-.12.3-.18,1.11-.66,2.21-1.33,3.3-2.01,1.1-.67,2.19-1.36,3.27-2.07.54-.35,1.08-.7,1.62-1.06.54-.35,1.07-.71,1.61-1.08.53-.35,1.07-.72,1.6-1.09.53-.36,1.06-.73,1.59-1.11,1.04-.73,2.08-1.48,3.1-2.23,1.18-.87,2.35-1.75,3.51-2.64,1.44-1.11,2.86-2.24,4.27-3.39.49-.4.98-.8,1.47-1.21,2.07-1.72,4.1-3.48,6.1-5.3.83-.76,1.66-1.52,2.48-2.29.74-.69,1.47-1.39,2.2-2.1,2.19-2.11,4.33-4.29,6.43-6.53.89-.96,1.78-1.93,2.66-2.91s1.75-1.97,2.62-2.97c.37-.42.73-.84,1.08-1.27.62-.72,1.22-1.44,1.81-2.17.31-.37.62-.75.92-1.13.45-.54.88-1.08,1.3-1.62.83-1.05,1.66-2.12,2.47-3.19.82-1.07,1.63-2.16,2.42-3.26.4-.55.79-1.1,1.18-1.65.4-.55.79-1.11,1.17-1.67.39-.56.78-1.12,1.16-1.69.39-.56.77-1.13,1.14-1.7.75-1.14,1.49-2.29,2.23-3.45.04-.05.07-.1.1-.15.65-1.04,1.3-2.09,1.94-3.15.77-1.26,1.52-2.53,2.25-3.82.69-1.21,1.37-2.43,2.05-3.65,1.34-2.46,2.64-4.96,3.89-7.51.32-.64.63-1.28.93-1.92.31-.64.61-1.28.92-1.93.61-1.29,1.2-2.6,1.78-3.92.44-.99.87-1.99,1.29-2.99.32-.75.63-1.5.94-2.26.3-.76.61-1.52.91-2.28.31-.77.61-1.54.9-2.31.3-.77.59-1.54.87-2.32.24-.64.47-1.28.7-1.92.05-.11.09-.22.12-.34.23-.64.46-1.28.67-1.92h-76.41c-.41.68-.83,1.35-1.25,2.01-.34.54-.69,1.07-1.03,1.6-.14.22-.27.43-.42.63-.34.52-.69,1.02-1.03,1.53-.1.16-.21.32-.33.48-.37.54-.74,1.07-1.12,1.61-.44.63-.89,1.26-1.36,1.88-.46.62-.92,1.24-1.39,1.85-.46.61-.93,1.22-1.41,1.82-.48.61-.96,1.2-1.44,1.79-1.04,1.29-2.12,2.55-3.21,3.78-.41.48-.84.94-1.26,1.41-.04.05-.09.11-.15.16-.46.5-.92,1-1.38,1.49-.52.55-1.03,1.09-1.56,1.63-.52.54-1.05,1.07-1.58,1.6-.21.22-.42.43-.63.62-.4.41-.8.8-1.21,1.18-.67.65-1.35,1.28-2.04,1.91-.68.64-1.38,1.26-2.08,1.86-.63.56-1.27,1.11-1.91,1.65-.35.29-.69.58-1.03.86-.35.29-.7.58-1.04.85-.37.31-.75.61-1.14.91-.24.2-.48.39-.72.57-.52.41-1.04.81-1.56,1.2-.65.49-1.29.97-1.94,1.45-1.15.83-2.3,1.65-3.46,2.44-.6.41-1.21.81-1.82,1.21-.48.32-.95.63-1.43.93-1.2.78-2.41,1.52-3.62,2.24-.48.28-.95.56-1.43.84-.01.01-.03.02-.04.02-.08.06-.16.1-.24.14-.24.15-.47.28-.71.4-.3.17-.59.34-.89.51-.33.19-.66.37-.99.55-.46.25-.92.5-1.38.74-.54.29-1.07.58-1.61.85-.52.27-1.04.53-1.56.79-1.05.53-2.1,1.04-3.16,1.53-.61.29-1.22.57-1.84.84-.4.19-.8.37-1.2.54-.76.34-1.52.67-2.28.98-1.54.64-3.08,1.25-4.63,1.83-.34.12-.67.25-1,.37-1.19.44-2.38.86-3.57,1.26-.53.18-1.06.35-1.59.52-.58.2-1.15.38-1.73.55-.26.08-.52.16-.78.24-.52.16-1.03.32-1.54.46-.45.13-.9.26-1.35.38-.53.16-1.06.3-1.59.44-.52.14-1.05.28-1.58.41-.64.16-1.28.32-1.92.48-.37.09-.74.18-1.11.26-.52.12-1.03.24-1.54.35-.38.09-.77.17-1.15.25-.38.09-.76.17-1.15.24-.83.17-1.65.33-2.47.48-.01.01-.02.01-.03.01-.52.1-1.02.18-1.54.27-.08.02-.16.03-.25.04-.61.11-1.21.21-1.82.3-1.16.19-2.33.36-3.49.52-.41.05-.83.11-1.25.16-1.41.18-2.81.33-4.22.46-.38.03-.75.07-1.12.1-1.29.12-2.58.22-3.87.29-.35.03-.7.05-1.05.06-1.38.08-2.76.13-4.13.16-.48.02-.96.03-1.45.03-1.45.02-2.9.02-4.35,0-.34,0-.67-.01-1.01-.02-1.32-.03-2.63-.07-3.94-.14-.55-.03-1.1-.05-1.65-.09-.22-.01-.43-.03-.64-.04-.6-.04-1.18-.08-1.77-.13-.64-.05-1.29-.1-1.93-.16-.24-.02-.48-.04-.71-.07-2.66-.25-5.32-.58-7.96-.98-.76-.12-1.51-.24-2.27-.37-.88-.14-1.76-.3-2.64-.47-.84-.16-1.68-.32-2.51-.5-.84-.17-1.68-.35-2.51-.54-.28-.06-.55-.12-.83-.19-1.71-.4-3.42-.83-5.11-1.29-.71-.19-1.42-.39-2.12-.59-.73-.21-1.45-.42-2.17-.65-.72-.22-1.44-.44-2.15-.68-.66-.21-1.32-.43-1.98-.66-.61-.2-1.21-.41-1.81-.62-.64-.23-1.27-.46-1.9-.7-.64-.24-1.28-.48-1.92-.73-.56-.22-1.12-.44-1.68-.67-.78-.31-1.55-.63-2.32-.96-1-.43-2-.87-3-1.33-.53-.23-1.06-.48-1.58-.73-.76-.35-1.52-.72-2.27-1.09-.88-.43-1.76-.87-2.63-1.33-.68-.35-1.34-.71-2.01-1.07-.8-.43-1.58-.87-2.37-1.32-1.28-.72-2.54-1.47-3.8-2.25-.36-.21-.71-.43-1.06-.66-1.12-.69-2.23-1.41-3.33-2.16-.46-.3-.92-.61-1.38-.93-.64-.44-1.27-.88-1.9-1.33-1.48-1.06-2.95-2.16-4.39-3.28-1.45-1.13-2.87-2.29-4.27-3.48-1.41-1.2-2.79-2.42-4.15-3.68-.49-.46-.99-.92-1.48-1.4-.29-.27-.59-.56-.87-.84-.07-.06-.14-.12-.2-.19-.45-.44-.89-.88-1.33-1.32-.23-.23-.46-.46-.68-.7-.39-.39-.79-.8-1.16-1.2-.12-.12-.23-.23-.33-.35-.3-.3-.58-.61-.86-.92-.48-.51-.95-1.03-1.42-1.55-.07-.06-.12-.13-.17-.19-.32-.35-.62-.7-.93-1.05-1.14-1.29-2.25-2.61-3.32-3.95-.36-.44-.72-.89-1.07-1.34-.89-1.12-1.76-2.26-2.61-3.43-.32-.43-.64-.87-.96-1.32-.72-1-1.43-2.02-2.11-3.05-.38-.55-.75-1.11-1.11-1.67-.05-.05-.08-.1-.1-.15-.27-.39-.52-.79-.77-1.19-.02-.02-.03-.03-.03-.05-1.14-1.77-2.23-3.58-3.29-5.43-.6-1.07-1.2-2.14-1.78-3.23-.37-.67-.72-1.35-1.07-2.04-.47-.89-.92-1.79-1.36-2.7-.42-.85-.82-1.7-1.22-2.56-.35-.77-.7-1.54-1.04-2.32-.19-.42-.38-.84-.55-1.26-.37-.84-.72-1.69-1.07-2.55-.31-.74-.61-1.49-.9-2.25-.45-1.15-.89-2.32-1.31-3.5-.34-.94-.67-1.88-.99-2.84-.3-.87-.58-1.75-.86-2.63-.14-.44-.28-.88-.41-1.32-.55-1.76-1.06-3.54-1.55-5.35h465.99c2.45-22.82,2.72-46.41.58-70.59ZM5336.14,8159.3c34.36-137.03,229.27-136.07,266.73,0h-266.73ZM5672.63,8159.3c-36.36-229.51-373.9-230.1-410.35,0h-57.45c11.8-111.29,103.97-203.73,212.55-224.47,149.78-28.61,293.02,73.56,312.7,224.47h-57.45Z"/>
  </g>
</svg>
