<?xml version="1.0" encoding="UTF-8"?>
<svg xmlns="http://www.w3.org/2000/svg" xmlns:xlink="http://www.w3.org/1999/xlink" viewBox="0 0 1200 1200" width="1200" height="1200">
  <defs>
    <style>
      .cls-1 {
        fill: none;
      }

      .cls-2 {
        mask: url(#mask);
      }

      .cls-3 {
        fill: #030302;
      }

      .cls-4 {
        isolation: isolate;
      }

      .cls-5 {
        fill: #fff;
      }

      .cls-6 {
        mix-blend-mode: overlay;
      }

      .cls-7 {
        fill: #282826;
      }
    </style>
    <mask id="mask" x="14660.17" y="13707.54" width="232.64" height="232.64" maskUnits="userSpaceOnUse">
      <g id="cs_mask_1_star-8" data-name="cs mask 1 star-8">
        <path class="cls-5" d="M14776.49,13707.54c14.45,72.56,43.34,101.73,116.32,116.32-73,14.59-101.88,43.76-116.32,116.32-14.45-72.56-43.34-101.75-116.32-116.32,73-14.59,101.88-43.76,116.32-116.32Z"/>
      </g>
    </mask>
  </defs>
  <g transform="translate(-15432.773 -12816.062) scale(1.112431)">
    <path d="M14611.19,12179.72l-21.05,74.9c-8.34,17.49-24.09,31.62-44.09,33.19h-336.7c-30.01-.35-53.43-15.56-64.8-43.26-10.43-25.39-5.32-44.4,1.16-69.56,22.39-86.94,49.11-172.89,72.5-259.56,18.13-47.37,64.43-81.38,115.62-82.83l315.06-.04c24.14-.12,39.64,22.52,40.93,44.87.8,13.79-5.42,34.15-9.38,47.65-.72,2.46-3.47,13.35-4.83,14.16-1.15.69-3.1.75-4.45.79l-294.13-.05c-32.78,3.31-39.69,52.83-8.85,64.57,63.47,2.19,127.36.37,190.98.93,52.6,9.83,46.43,99.04-3.38,108.67l-223.94.06c-25.75,3.34-35.75,37.99-19.28,56.66,2.47,2.8,10.49,8.86,14.06,8.86h284.58Z"/>
  </g>
</svg>
