<?xml version="1.0" encoding="UTF-8"?>
<svg xmlns="http://www.w3.org/2000/svg" xmlns:xlink="http://www.w3.org/1999/xlink" viewBox="0 0 1200 1200" width="1200" height="1200">
  <defs>
    <style>
      .cls-1 {
        fill: none;
      }

      .cls-2 {
        mask: url(#mask);
      }

      .cls-3 {
        fill: #030302;
      }

      .cls-4 {
        isolation: isolate;
      }

      .cls-5 {
        fill: #fff;
      }

      .cls-6 {
        mix-blend-mode: overlay;
      }

      .cls-7 {
        fill: #282826;
      }
    </style>
    <mask id="mask" x="14660.17" y="13707.54" width="232.64" height="232.64" maskUnits="userSpaceOnUse">
      <g id="cs_mask_1_star-8" data-name="cs mask 1 star-8">
        <path class="cls-5" d="M14776.49,13707.54c14.45,72.56,43.34,101.73,116.32,116.32-73,14.59-101.88,43.76-116.32,116.32-14.45-72.56-43.34-101.75-116.32-116.32,73-14.59,101.88-43.76,116.32-116.32Z"/>
      </g>
    </mask>
  </defs>
  <g transform="translate(-18982.384 -14423.369) scale(1.440930)">
    <path d="M13761.21,10483.91c-13.54,27.66-32.97,53.95-59.32,70.51-50.71,31.87-130.91,30.88-189.15,29.39-37.32-.95-97.18,1.93-123.6-28.09-34.85-39.61-13.45-88.01,4.28-129.52,19.49-45.62,45.34-103.04,90.01-128.61,55.13-31.55,153.97-26.17,216.62-24.23,44.37,1.37,100.23-4.4,114.25,49.05,11.62,44.3-17.27,89.99-35.38,128.34l-272.44.17c-2.86.56-4.68,6.37-5.98,9.19-3.19,6.94-6.85,15.54-9.43,22.69-3.27,9.07-9.74,24.05,2.1,29.57,4.5,2.1,14.99,2.56,20.39,2.81,26.1,1.2,64.55,2.1,90.15-.05,20.03-1.68,32.4-14.09,41.06-31.22h116.45ZM13529.65,10392.9h154.37c5.2-9.21,10.09-19,13.99-28.84,4.54-11.47,10.24-24.9-6.8-28.31-36.35,2.44-76.63-3.1-112.51.01-29.76,2.58-38.17,33.22-50,55.32l.96,1.82Z"/>
  </g>
</svg>
