<?xml version="1.0" encoding="UTF-8"?>
<svg xmlns="http://www.w3.org/2000/svg" xmlns:xlink="http://www.w3.org/1999/xlink" viewBox="0 0 1200 1200" width="1200" height="1200">
  <defs>
    <style>
      .cls-1 {
        fill: none;
      }

      .cls-2 {
        mask: url(#mask);
      }

      .cls-3 {
        fill: #030302;
      }

      .cls-4 {
        isolation: isolate;
      }

      .cls-5 {
        fill: #fff;
      }

      .cls-6 {
        mix-blend-mode: overlay;
      }

      .cls-7 {
        fill: #282826;
      }
    </style>
    <mask id="mask" x="14660.17" y="13707.54" width="232.64" height="232.64" maskUnits="userSpaceOnUse">
      <g id="cs_mask_1_star-8" data-name="cs mask 1 star-8">
        <path class="cls-5" d="M14776.49,13707.54c14.45,72.56,43.34,101.73,116.32,116.32-73,14.59-101.88,43.76-116.32,116.32-14.45-72.56-43.34-101.75-116.32-116.32,73-14.59,101.88-43.76,116.32-116.32Z"/>
      </g>
    </mask>
  </defs>
  <g transform="translate(-2230.471 -8748.426) scale(0.770174)">
    <g>
        <path d="M3337.88,11831.04l671.74-.34c55.53,3.54,93.56,44.22,95.5,99.5v410.08c-1.66,30.08-12.59,58.55-36.57,77.43-35.22,27.72-74.87,20.81-117.01,20.99-172.75.72-346.23.39-518.92,0-31.51-.07-67.15,2.21-98.08.08-51.34-3.52-88.46-47.05-89.45-97.55v-412.98c3.18-53.54,38.56-92.95,92.79-97.21ZM3344.84,11909c-10.63,1.46-18.21,9.44-18.79,20.21v412.08c1.07,12.07,10.51,20.32,22.49,20.5h654.08c11.76-.53,20.66-9.97,21.51-21.5v-410.08c-.53-11.9-10.62-21.57-22.5-21.51l-656.78.3Z"/>
        <path d="M3756.08,12186.74h73c4.12,52.13-22.53,95.35-77.46,99.04-50.73-2.64-104.75,3.37-155.08,0-110.48-7.39-69.62-147.28-77.5-219.58,3.18-43.92,28.12-75.15,72.66-81.34,50.17.22,103.91-4.08,153.87-1.11,100.51,5.97,81.2,92.95,83.47,164.53.12,3.82,2.86,8.5-.46,11.46h-235l-1.5,1.5v33c0,.75,1.33,7.12,1.68,8.32,2.46,8.39,8.49,13.3,16.91,15.09,40.34-2.45,85.14,3.57,124.95.12,17.13-1.48,21.56-15.86,20.46-31.04ZM3756.08,12111.74v-38.5c0-.66-1.78-6.62-2.22-7.78-2.85-7.41-8.55-11.56-16.39-12.61l-127.44.34c-14.88,2.95-17.19,15.94-17.99,29.01-.6,9.88.73,19.72,1.04,29.54h163Z"/>
        <path class="cls-5" d="M3756.08,12111.74h-163c-.31-9.82-1.64-19.67-1.04-29.54.79-13.07,3.1-26.06,17.99-29.01l127.44-.34c7.84,1.05,13.54,5.2,16.39,12.61.45,1.16,2.22,7.12,2.22,7.78v38.5Z"/>
      </g>
  </g>
</svg>
