<?xml version="1.0" encoding="UTF-8"?>
<svg xmlns="http://www.w3.org/2000/svg" xmlns:xlink="http://www.w3.org/1999/xlink" viewBox="0 0 1200 1200" width="1200" height="1200">
  <defs>
    <style>
      .cls-1 {
        fill: none;
      }

      .cls-2 {
        mask: url(#mask);
      }

      .cls-3 {
        fill: #030302;
      }

      .cls-4 {
        isolation: isolate;
      }

      .cls-5 {
        fill: #fff;
      }

      .cls-6 {
        mix-blend-mode: overlay;
      }

      .cls-7 {
        fill: #282826;
      }
    </style>
    <mask id="mask" x="14660.17" y="13707.54" width="232.64" height="232.64" maskUnits="userSpaceOnUse">
      <g id="cs_mask_1_star-8" data-name="cs mask 1 star-8">
        <path class="cls-5" d="M14776.49,13707.54c14.45,72.56,43.34,101.73,116.32,116.32-73,14.59-101.88,43.76-116.32,116.32-14.45-72.56-43.34-101.75-116.32-116.32,73-14.59,101.88-43.76,116.32-116.32Z"/>
      </g>
    </mask>
  </defs>
  <g transform="translate(-12527.742 -12407.923) scale(0.941045)">
    <g>
        <path d="M13850.27,13632.03v119.88h99.9v142.86h-99.9v119.88h99.9v143.86h-263.74v-671.34h262.24l1.5,1.5v141.86l-1.5,1.5h-98.4Z"/>
        <polygon points="14213.91 13631.03 14033.09 13632.03 14033.09 13488.67 14034.59 13487.17 14212.42 13487.17 14213.91 13488.67 14213.91 13631.03"/>
        <rect x="14033.09" y="14014.66" width="180.82" height="143.86"/>
        <rect x="14033.09" y="13751.92" width="180.82" height="142.86"/>
      </g>
  </g>
</svg>
