<?xml version="1.0" encoding="UTF-8"?>
<svg xmlns="http://www.w3.org/2000/svg" xmlns:xlink="http://www.w3.org/1999/xlink" viewBox="0 0 1200 1200" width="1200" height="1200">
  <defs>
    <style>
      .cls-1 {
        fill: none;
      }

      .cls-2 {
        mask: url(#mask);
      }

      .cls-3 {
        fill: #030302;
      }

      .cls-4 {
        isolation: isolate;
      }

      .cls-5 {
        fill: #fff;
      }

      .cls-6 {
        mix-blend-mode: overlay;
      }

      .cls-7 {
        fill: #282826;
      }
    </style>
    <mask id="mask" x="14660.17" y="13707.54" width="232.64" height="232.64" maskUnits="userSpaceOnUse">
      <g id="cs_mask_1_star-8" data-name="cs mask 1 star-8">
        <path class="cls-5" d="M14776.49,13707.54c14.45,72.56,43.34,101.73,116.32,116.32-73,14.59-101.88,43.76-116.32,116.32-14.45-72.56-43.34-101.75-116.32-116.32,73-14.59,101.88-43.76,116.32-116.32Z"/>
      </g>
    </mask>
  </defs>
  <g transform="translate(-4473.044 -5300.461) scale(0.717223)">
    <path d="M7449.19,8199.47c-1.22-13.76-3.22-27.18-5.95-40.22-46.24-221.12-301.7-336.17-502.9-216.68-244.66,145.29-206.58,516.54,61.79,609.58,226.2,78.4,447.81-87.92,448.5-319.03.04-11.07-.43-22.3-1.44-33.65ZM7249.35,8196.19h-266.73c33.34-132.95,217.78-136.01,262.96-11.82,1.39,3.82,2.65,7.76,3.77,11.82ZM7249.35,8270.05c-38.55,135.99-230.27,135.34-266.73,0h266.73ZM7063.86,7971.71c137.2-26.21,268.91,57.32,305.19,187.54,3.33,11.93,5.86,24.27,7.51,36.94h-57.45c-2.07-13.06-5.11-25.37-9.02-36.94-64.76-191.9-366.94-180.07-401.33,36.94h-57.45c11.81-111.3,103.98-203.74,212.55-224.48ZM7019.63,8481.3c-88.85-34.21-157.35-115.39-168.32-211.25h57.45c39.41,228.17,371.67,229.62,410.35,0h57.45c-23.73,167.88-196.25,273.12-356.93,211.25Z"/>
  </g>
</svg>
