<?xml version="1.0" encoding="UTF-8"?>
<svg xmlns="http://www.w3.org/2000/svg" xmlns:xlink="http://www.w3.org/1999/xlink" viewBox="0 0 1200 1200" width="1200" height="1200">
  
  <g transform="translate(-3679.650 -2478.694) scale(1.710447)">
    <g>
    <path d="M2384.85,1784.18l123.67,3.56-35.71-50.33-61.87-2.08,12.79-23.96,120.82-.36-36.03-50.49h-120.31l-1.44,2.56-76.92,144.05,35.96,50.55,123.7,3.11,25.96-48.62-123.79-3.32,13.17-24.66Z"/>
    <path d="M2619.28,1815.69l-123.67-3.56,35.71,50.33,61.87,2.08-12.79,23.96-120.82.36,36.03,50.49h120.31l1.44-2.56,76.92-144.05-35.96-50.55-123.7-3.11-25.96,48.62,123.79,3.32-13.17,24.66Z"/>
  </g>
  </g>
</svg>
