<?xml version="1.0" encoding="UTF-8"?>
<svg xmlns="http://www.w3.org/2000/svg" xmlns:xlink="http://www.w3.org/1999/xlink" viewBox="0 0 1200 1200" width="1200" height="1200">
  <defs>
    <style>
      .cls-1 {
        fill: none;
      }

      .cls-2 {
        mask: url(#mask);
      }

      .cls-3 {
        fill: #030302;
      }

      .cls-4 {
        isolation: isolate;
      }

      .cls-5 {
        fill: #fff;
      }

      .cls-6 {
        mix-blend-mode: overlay;
      }

      .cls-7 {
        fill: #282826;
      }
    </style>
    <mask id="mask" x="14660.17" y="13707.54" width="232.64" height="232.64" maskUnits="userSpaceOnUse">
      <g id="cs_mask_1_star-8" data-name="cs mask 1 star-8">
        <path class="cls-5" d="M14776.49,13707.54c14.45,72.56,43.34,101.73,116.32,116.32-73,14.59-101.88,43.76-116.32,116.32-14.45-72.56-43.34-101.75-116.32-116.32,73-14.59,101.88-43.76,116.32-116.32Z"/>
      </g>
    </mask>
  </defs>
  <g transform="translate(-11190.708 -2215.349) scale(0.794928)">
    <path class="cls-3" d="M15224.77,3225.46c-165.31,6.44-338.94,20.16-497.7,68.22-82.26,24.91-287.01,99.3-165,205.22,21.09,18.31,39.68,22.84,60.28,36.1,5.22,3.36,9.6-.56,6.89,11.93-55.97,20.08-135.04,71.75-92.49,138.06,61.69,96.15,340.53,142.65,449.93,156.14,78.72,9.71,159,14.31,238.09,16.72l-3.17-16.53c-91.68-16.5-184.61-31.68-271.78-65.2-67.52-25.96-194.79-84.58-132.69-172.98l7.87-2.7c131.46,25.86,265.72,42.3,399.78,43.01l-.05-15.93c-98.3-15.04-198.76-33.06-290.99-71.15-7.42-3.06-34.05-8.42-30.91-17.36,5.6-15.94,283.51-86.48,321.94-83.16v-16.02c-108.29-.11-216.85,11.59-323.74,27.62-45.31,6.8-98.43,39.88-100.58-30.28-2.68-87.23,167.2-139.48,234.28-157.73,62.22-16.92,126.59-26.85,190-38.07l.05-15.94Z"/>
  </g>
</svg>
