<?xml version="1.0" encoding="UTF-8"?>
<svg xmlns="http://www.w3.org/2000/svg" xmlns:xlink="http://www.w3.org/1999/xlink" viewBox="0 0 1200 1200" width="1200" height="1200">
  <defs>
    <style>
      .cls-1 {
        fill: none;
      }

      .cls-2 {
        mask: url(#mask);
      }

      .cls-3 {
        fill: #030302;
      }

      .cls-4 {
        isolation: isolate;
      }

      .cls-5 {
        fill: #fff;
      }

      .cls-6 {
        mix-blend-mode: overlay;
      }

      .cls-7 {
        fill: #282826;
      }
    </style>
    <mask id="mask" x="14660.17" y="13707.54" width="232.64" height="232.64" maskUnits="userSpaceOnUse">
      <g id="cs_mask_1_star-8" data-name="cs mask 1 star-8">
        <path class="cls-5" d="M14776.49,13707.54c14.45,72.56,43.34,101.73,116.32,116.32-73,14.59-101.88,43.76-116.32,116.32-14.45-72.56-43.34-101.75-116.32-116.32,73-14.59,101.88-43.76,116.32-116.32Z"/>
      </g>
    </mask>
  </defs>
  <g transform="translate(-3896.375 -8151.380) scale(0.727884)">
    <g>
        <path d="M6508.05,11884.89h-314.71v295.52h310.88c-98.03,194.33-347.15,250.21-519.89,114.98-133.58-104.57-170.07-293.62-84.29-440.9,139.22-239.02,497.78-223.04,608.01,30.4Z"/>
        <path d="M6534.92,12080.62h-251.39l-5.76-5.76v-92.11l5.76-5.76h249.47c3.76,2.41,5.01,5.29,5.77,9.58,1.62,9.17,1.56,94.04-3.85,94.04Z"/>
      </g>
  </g>
</svg>
