<?xml version="1.0" encoding="UTF-8"?>
<svg xmlns="http://www.w3.org/2000/svg" xmlns:xlink="http://www.w3.org/1999/xlink" viewBox="0 0 1200 1200" width="1200" height="1200">
  <defs>
    <style>
      .cls-1 {
        fill: none;
      }

      .cls-2 {
        mask: url(#mask);
      }

      .cls-3 {
        fill: #030302;
      }

      .cls-4 {
        isolation: isolate;
      }

      .cls-5 {
        fill: #fff;
      }

      .cls-6 {
        mix-blend-mode: overlay;
      }

      .cls-7 {
        fill: #282826;
      }
    </style>
    <mask id="mask" x="14660.17" y="13707.54" width="232.64" height="232.64" maskUnits="userSpaceOnUse">
      <g id="cs_mask_1_star-8" data-name="cs mask 1 star-8">
        <path class="cls-5" d="M14776.49,13707.54c14.45,72.56,43.34,101.73,116.32,116.32-73,14.59-101.88,43.76-116.32,116.32-14.45-72.56-43.34-101.75-116.32-116.32,73-14.59,101.88-43.76,116.32-116.32Z"/>
      </g>
    </mask>
  </defs>
  <g transform="translate(-5672.751 -8523.940) scale(0.675563)">
    <g>
        <path d="M9271.55,13087.62c139.34-7.04,270.03,58.39,344.62,175.79,12.68,19.95,37.88,64.48,38.64,87.39,1.22,37.25-39.99,62.39-71.97,41.94-18.11-11.58-26.02-42.31-36.56-61.44-90.79-164.74-310.91-200.19-450.05-73-158.87,145.22-116.92,414.71,76.17,506.88,154.85,73.92,340.96-8.81,396.11-168.61,3.55-10.28,6.1-19.29-8.21-21.29l-224.2.87c-26.71,11.34-8.54,43.12-19.46,65.54-19.6,40.27-81.38,29.49-86.87-14.89,6.53-48.35-23.71-134.55,46.45-144.53l364.02.05c49.08,7.94,35.68,65.43,28.21,100.17-45.19,210.01-261.85,348.31-471.91,290.52-196.23-53.98-315.41-253.45-286.62-453.05,26-180.22,178.71-323.13,361.63-332.37Z"/>
        <path d="M9285.55,13306.62c83.57-8.48,91.83,119.51,9.7,123.69-78.93,4.02-87.55-115.79-9.7-123.69Z"/>
      </g>
  </g>
</svg>
