<?xml version="1.0" encoding="UTF-8"?>
<svg xmlns="http://www.w3.org/2000/svg" xmlns:xlink="http://www.w3.org/1999/xlink" viewBox="0 0 1200 1200" width="1200" height="1200">
  <defs>
    <style>
      .cls-1 {
        fill: none;
      }

      .cls-2 {
        mask: url(#mask);
      }

      .cls-3 {
        fill: #030302;
      }

      .cls-4 {
        isolation: isolate;
      }

      .cls-5 {
        fill: #fff;
      }

      .cls-6 {
        mix-blend-mode: overlay;
      }

      .cls-7 {
        fill: #282826;
      }
    </style>
    <mask id="mask" x="14660.17" y="13707.54" width="232.64" height="232.64" maskUnits="userSpaceOnUse">
      <g id="cs_mask_1_star-8" data-name="cs mask 1 star-8">
        <path class="cls-5" d="M14776.49,13707.54c14.45,72.56,43.34,101.73,116.32,116.32-73,14.59-101.88,43.76-116.32,116.32-14.45-72.56-43.34-101.75-116.32-116.32,73-14.59,101.88-43.76,116.32-116.32Z"/>
      </g>
    </mask>
  </defs>
  <g transform="translate(-26405.565 -17299.181) scale(1.986684)">
    <path d="M13759.64,8890.17l-22.36,58.55-149.6.67-12.29,30.51h149c-10.16,30.23-11.11,54.77-48.81,57.74-39.14,3.08-82.06-2.6-121.61.16-2.48.85-12.52,26.97-12.23,31.83h166.63c-14.21,40.83-45.7,56.71-87.25,59.35l-193.12-.08c-1.07-1.02,2.85-11.01,3.6-13.21,17.77-51.89,39.54-111.49,60.88-161.82,14.63-34.5,43.1-63.69,83.71-63.69h183.45Z"/>
  </g>
</svg>
