<?xml version="1.0" encoding="UTF-8"?>
<svg xmlns="http://www.w3.org/2000/svg" xmlns:xlink="http://www.w3.org/1999/xlink" viewBox="0 0 1200 1200" width="1200" height="1200">
  <defs>
    <style>
      .cls-1 {
        fill: none;
      }

      .cls-2 {
        mask: url(#mask);
      }

      .cls-3 {
        fill: #030302;
      }

      .cls-4 {
        isolation: isolate;
      }

      .cls-5 {
        fill: #fff;
      }

      .cls-6 {
        mix-blend-mode: overlay;
      }

      .cls-7 {
        fill: #282826;
      }
    </style>
    <mask id="mask" x="14660.17" y="13707.54" width="232.64" height="232.64" maskUnits="userSpaceOnUse">
      <g id="cs_mask_1_star-8" data-name="cs mask 1 star-8">
        <path class="cls-5" d="M14776.49,13707.54c14.45,72.56,43.34,101.73,116.32,116.32-73,14.59-101.88,43.76-116.32,116.32-14.45-72.56-43.34-101.75-116.32-116.32,73-14.59,101.88-43.76,116.32-116.32Z"/>
      </g>
    </mask>
  </defs>
  <g transform="translate(-2161.079 -2808.144) scale(1.056648)">
    <g>
        <path d="M2324.23,3306.47v-39.98c0-25.63,44.73-70.24,70.28-70.24h507.12v37.82c0,32-47.51,72.4-78.93,72.4h-498.46Z"/>
        <path d="M2324.48,3468.55v-39.98c0-25.63,44.73-70.24,70.28-70.24h507.12v37.82c0,32-47.51,72.4-78.93,72.4h-498.46Z"/>
        <path d="M2324.23,3144.39v-37.82c0-27.1,40.62-68.04,68.68-69.67l436.25-.59c26.7-1.89,48.98-10.21,63.44-33.85l9.03-20.15v91.85c0,9.93-16.26,37.91-23.69,45.48-6.67,6.8-36.04,24.75-44.43,24.75h-509.28Z"/>
      </g>
  </g>
</svg>
