<?xml version="1.0" encoding="UTF-8"?>
<svg xmlns="http://www.w3.org/2000/svg" xmlns:xlink="http://www.w3.org/1999/xlink" viewBox="0 0 1200 1200" width="1200" height="1200">
  <defs>
    <style>
      .cls-1 {
        fill: none;
      }

      .cls-2 {
        mask: url(#mask);
      }

      .cls-3 {
        fill: #030302;
      }

      .cls-4 {
        isolation: isolate;
      }

      .cls-5 {
        fill: #fff;
      }

      .cls-6 {
        mix-blend-mode: overlay;
      }

      .cls-7 {
        fill: #282826;
      }
    </style>
    <mask id="mask" x="14660.17" y="13707.54" width="232.64" height="232.64" maskUnits="userSpaceOnUse">
      <g id="cs_mask_1_star-8" data-name="cs mask 1 star-8">
        <path class="cls-5" d="M14776.49,13707.54c14.45,72.56,43.34,101.73,116.32,116.32-73,14.59-101.88,43.76-116.32,116.32-14.45-72.56-43.34-101.75-116.32-116.32,73-14.59,101.88-43.76,116.32-116.32Z"/>
      </g>
    </mask>
  </defs>
  <g transform="translate(-4459.766 -8060.430) scale(0.604651)">
    <g>
        <path d="M8791.17,14258.96h-153.5c-15.29-32.53-31.59-63.23-56.47-89.53-110.93-117.24-300.81-104.08-397.44,23.61-106.21,140.35-56.97,344.58,100.06,421.77,118.75,58.38,268.78,21.5,336.17-94.55,8.04-13.85,12.65-26.51-8.27-30.35l-172.8.28c-27.14,7.54-6.65,41.27-18.9,59.1-3.6,5.23-10.03,8.99-16.33,9.67-14.24,1.54-42.41,1.07-57.05.04-19.57-1.37-35.45-13.9-38.33-33.67,2.24-34.91-3.44-74.51-.12-108.87,1.53-15.81,17.83-35.51,34.49-35.51h456.5c-3.66,195.51-153.96,371.36-348.64,398.86-287.67,40.63-513.57-230.6-456.05-508.05,72.55-349.87,527.55-446.16,731.5-152.13,29.8,42.96,48.39,90.05,65.18,139.32Z"/>
        <path d="M8365.96,14200.25c77.45-7.7,93.4,105.22,22.41,122.41-87.92,21.29-109.02-113.79-22.41-122.41Z"/>
      </g>
  </g>
</svg>
