<?xml version="1.0" encoding="UTF-8"?>
<svg xmlns="http://www.w3.org/2000/svg" xmlns:xlink="http://www.w3.org/1999/xlink" viewBox="0 0 1200 1200" width="1200" height="1200">
  <defs>
    <style>
      .cls-1 {
        fill: none;
      }

      .cls-2 {
        mask: url(#mask);
      }

      .cls-3 {
        fill: #030302;
      }

      .cls-4 {
        isolation: isolate;
      }

      .cls-5 {
        fill: #fff;
      }

      .cls-6 {
        mix-blend-mode: overlay;
      }

      .cls-7 {
        fill: #282826;
      }
    </style>
    <mask id="mask" x="14660.17" y="13707.54" width="232.64" height="232.64" maskUnits="userSpaceOnUse">
      <g id="cs_mask_1_star-8" data-name="cs mask 1 star-8">
        <path class="cls-5" d="M14776.49,13707.54c14.45,72.56,43.34,101.73,116.32,116.32-73,14.59-101.88,43.76-116.32,116.32-14.45-72.56-43.34-101.75-116.32-116.32,73-14.59,101.88-43.76,116.32-116.32Z"/>
      </g>
    </mask>
  </defs>
  <g transform="translate(-15173.215 -14014.883) scale(1.211505)">
    <path d="M12927.35,11831.5l265.83-.29c56.38,5.19,46.2,96.82-15.53,101.36-47.44,3.5-99.04-2.8-146.92.08-42.16,5.24-50.1,72.75-3.5,76.76,31.66,2.72,67.33-2.61,99.13-.02,57.39,4.67,49,91.59-10.02,96.85-39.43,3.52-84-3.15-123.63-.02-55.34,4.37-57.49,83.59-1.11,88.05,41.6,3.3,89.22-4.11,130.32-.03,53.59,5.32,58.14,95.92-5.52,101.37l-279.54-.06c-30.52-2.65-47.38-21.64-43.72-52.6l84.67-369.68c7.48-22.47,25.69-38.76,49.55-41.77Z"/>
  </g>
</svg>
