<?xml version="1.0" encoding="UTF-8"?>
<svg xmlns="http://www.w3.org/2000/svg" xmlns:xlink="http://www.w3.org/1999/xlink" viewBox="0 0 1200 1200" width="1200" height="1200">
  <defs>
    <style>
      .cls-1 {
        fill: #fff;
      }
    </style>
  </defs>
  <g transform="translate(-2392.084 116.331) scale(2.848125)">
    <g>
    <path d="M988.68,90.91l-46.62,163.87h-5.26l45.24-159.04c2.02-1.87,4.23-3.48,6.64-4.84Z"/>
    <path d="M1006.41,85.42l-48.16,169.37h-6.72l47.8-168.05c2.23-.57,4.59-1,7.09-1.32Z"/>
    <polygon points="1022.75 84.86 974.42 254.79 966.24 254.79 1014.57 84.86 1022.75 84.86"/>
    <polygon points="1038.93 84.86 990.59 254.79 980.96 254.79 1029.28 84.86 1038.93 84.86"/>
    <polygon points="1018.92 212.09 1006.78 254.79 995.68 254.79 1007.82 212.09 1018.92 212.09"/>
    <polygon points="1035.09 212.09 1022.95 254.79 1010.39 254.79 1022.54 212.09 1035.09 212.09"/>
    <polygon points="1128.41 212.09 1116.41 254.79 1025.11 254.79 1037.25 212.09 1128.41 212.09"/>
    <polygon points="1037.01 148.48 1024.93 190.96 1013.83 190.96 1025.91 148.48 1037.01 148.48"/>
    <polygon points="1053.19 148.48 1041.1 190.95 1028.55 190.96 1040.63 148.48 1053.19 148.48"/>
    <polygon points="1146.46 148.48 1134.55 190.94 1057.98 190.95 1043.26 190.95 1055.34 148.48 1146.46 148.48"/>
    <path d="M1055.11,84.87l-12.14,42.65c-3.26.02-6.52.04-9.77.06-.45,0-.89-.11-1.32-.12l12.11-42.61h11.11Z"/>
    <path d="M1071.28,84.87l-12.11,42.6c-4.19,0-8.39.02-12.57.04l12.13-42.64h12.56Z"/>
    <path d="M1164.29,84.87l-12.15,42.55c-1.32.18-2.7.17-4.03.17-23.93,0-48-.12-72.07-.13-.23,0-.47,0-.7,0-4.68,0-9.35,0-14.02,0l12.12-42.59h90.85Z"/>
  </g>
  </g>
</svg>
