<?xml version="1.0" encoding="UTF-8"?>
<svg xmlns="http://www.w3.org/2000/svg" xmlns:xlink="http://www.w3.org/1999/xlink" viewBox="0 0 1200 1200" width="1200" height="1200">
  <defs>
    <style>
      .cls-1 {
        fill: none;
      }

      .cls-2 {
        mask: url(#mask);
      }

      .cls-3 {
        fill: #030302;
      }

      .cls-4 {
        isolation: isolate;
      }

      .cls-5 {
        fill: #fff;
      }

      .cls-6 {
        mix-blend-mode: overlay;
      }

      .cls-7 {
        fill: #282826;
      }
    </style>
    <mask id="mask" x="14660.17" y="13707.54" width="232.64" height="232.64" maskUnits="userSpaceOnUse">
      <g id="cs_mask_1_star-8" data-name="cs mask 1 star-8">
        <path class="cls-5" d="M14776.49,13707.54c14.45,72.56,43.34,101.73,116.32,116.32-73,14.59-101.88,43.76-116.32,116.32-14.45-72.56-43.34-101.75-116.32-116.32,73-14.59,101.88-43.76,116.32-116.32Z"/>
      </g>
    </mask>
  </defs>
  <g transform="translate(-18917.556 -15748.306) scale(1.478881)">
    <path d="M13382.54,11091.52h-281.82v56.36h181.62v-29.49l.78-.78h98.64l.81,1.8c-2.86,38.01,11.97,86.44-28.2,109.11-12.14,6.85-20.27,6.87-33.65,7.01-89.94.92-179.92-.66-269.87.05-27.63-2.65-48.52-25.58-50.33-53l-.03-255.22c1.62-27.14,20.92-49.13,47.85-53.4,93.84-1.39,187.87-.17,281.77-.61,28.86,2.28,50.86,25.21,52.45,54.01l-.02,164.16ZM13282.33,10961.57h-181.62v56.36h181.62v-56.36Z"/>
  </g>
</svg>
