<?xml version="1.0" encoding="UTF-8"?>
<svg xmlns="http://www.w3.org/2000/svg" xmlns:xlink="http://www.w3.org/1999/xlink" viewBox="0 0 1200 1200" width="1200" height="1200">
  <defs>
    <style>
      .cls-1 {
        fill: none;
      }

      .cls-2 {
        mask: url(#mask);
      }

      .cls-3 {
        fill: #030302;
      }

      .cls-4 {
        isolation: isolate;
      }

      .cls-5 {
        fill: #fff;
      }

      .cls-6 {
        mix-blend-mode: overlay;
      }

      .cls-7 {
        fill: #282826;
      }
    </style>
    <mask id="mask" x="14660.17" y="13707.54" width="232.64" height="232.64" maskUnits="userSpaceOnUse">
      <g id="cs_mask_1_star-8" data-name="cs mask 1 star-8">
        <path class="cls-5" d="M14776.49,13707.54c14.45,72.56,43.34,101.73,116.32,116.32-73,14.59-101.88,43.76-116.32,116.32-14.45-72.56-43.34-101.75-116.32-116.32,73-14.59,101.88-43.76,116.32-116.32Z"/>
      </g>
    </mask>
  </defs>
  <g transform="translate(-17773.553 -10992.303) scale(1.278308)">
    <path d="M14260.28,9105.89v22.23c0,22.22,22.15,32.73,41.33,33.72,48.47,2.49,99.05-1.93,147.74,0,12.71-.55,28.48-4.11,32.85-17.81.89-2.8.42-7.59,3.91-8.04h125.75c1.91-.05,3.24.74,3.54,2.69-.69,47.05-23.29,83.55-66.57,102.1-38.37,16.44-74.28,16.83-115.3,17.58-45.25.83-91,1.18-136.18-.48-61.62-2.27-112.8-9.64-150.73-62.92-23.78-33.4-23.63-59.86-23.49-99.31.1-27.64-.9-55.69.44-83.21,1.64-33.64,7.79-60.32,30.84-85.78,34.85-38.49,82.25-46.17,131.95-47.77,46.21-1.48,93.3-.87,139.53,0,63.65,1.19,144.97,2.62,179.75,65.93,15.94,29.03,16.3,61.12,16.98,93.43-1.43,20.66,1.83,43.72,0,64.09-.11,1.28-.16,2.81-1.69,3.08l-360.63.48ZM14486.36,9031.33c-.69-18.61,4.02-39.12-12.95-51.82-14.5-10.85-30.95-9.4-48.01-9.82-37.51-.92-76.22-.71-113.72,0-27.69.52-48.64,6.65-50.92,38.46-.4,5.58-1.12,16.29-.51,21.53.08.7.06,1.23.74,1.65h225.36Z"/>
  </g>
</svg>
