<?xml version="1.0" encoding="UTF-8"?>
<svg xmlns="http://www.w3.org/2000/svg" xmlns:xlink="http://www.w3.org/1999/xlink" viewBox="0 0 1200 1200" width="1200" height="1200">
  <defs>
    <style>
      .cls-1 {
        fill: none;
      }

      .cls-2 {
        mask: url(#mask);
      }

      .cls-3 {
        fill: #030302;
      }

      .cls-4 {
        isolation: isolate;
      }

      .cls-5 {
        fill: #fff;
      }

      .cls-6 {
        mix-blend-mode: overlay;
      }

      .cls-7 {
        fill: #282826;
      }
    </style>
    <mask id="mask" x="14660.17" y="13707.54" width="232.64" height="232.64" maskUnits="userSpaceOnUse">
      <g id="cs_mask_1_star-8" data-name="cs mask 1 star-8">
        <path class="cls-5" d="M14776.49,13707.54c14.45,72.56,43.34,101.73,116.32,116.32-73,14.59-101.88,43.76-116.32,116.32-14.45-72.56-43.34-101.75-116.32-116.32,73-14.59,101.88-43.76,116.32-116.32Z"/>
      </g>
    </mask>
  </defs>
  <g transform="translate(-15920.370 -10659.994) scale(1.148258)">
    <path d="M14655.15,9914.7l-397.67.02c-48.84-7.86-44.85-65.28,5.49-69,134.21-.78,268.73,1.52,402.76-1.16,17.54-3.63,32.22-14.74,33.73-33.72-4.81-45.86,14.22-102.86-21.48-138.97-33.07-33.44-96.88-42.62-142.05-44.23-103.81,2.59-209.49-3.69-312.98.81-59.38,2.58-147.34,21.25-158.06,91.35,3.01,57.43-3.9,118.78,0,175.75,4.58,66.95,115.05,92.81,169.02,91.38h422.82c27.94-.17,51.36-22.15,39.95-51-7.29-18.43-23.99-19.61-41.52-21.23ZM14258.47,9702.42l256.16-.15c40.13,8.46,35.62,64.72-5.5,68.84l-243.03.09c-55.46-3.82-56.9-64.05-7.62-68.78Z"/>
  </g>
</svg>
