<?xml version="1.0" encoding="UTF-8"?>
<svg xmlns="http://www.w3.org/2000/svg" xmlns:xlink="http://www.w3.org/1999/xlink" viewBox="0 0 1200 1200" width="1200" height="1200">
  <defs>
    <style>
      .cls-1 {
        fill: #fff;
      }
    </style>
  </defs>
  <g transform="translate(-3585.780 -2302.801) scale(3.740844)">
    <path d="M1087.82,764.81h-9.01c-1.73-.12-3.29-.41-4.68-.85v24.76c1.13-.32,2.36-.54,3.7-.64,2.21-.02,4.42-.02,6.63-.02,1.12-.02,2.24-.02,3.36-.02,3.89-.02,7.8-.02,11.7-.02v-23.22h-11.7ZM1087.82,764.81h-9.01c-1.73-.12-3.29-.41-4.68-.85v24.76c1.13-.32,2.36-.54,3.7-.64,2.21-.02,4.42-.02,6.63-.02,1.12-.02,2.24-.02,3.36-.02,3.89-.02,7.8-.02,11.7-.02v-23.22h-11.7ZM1087.82,764.81h-9.01c-1.73-.12-3.29-.41-4.68-.85v24.76c1.13-.32,2.36-.54,3.7-.64,2.21-.02,4.42-.02,6.63-.02,1.12-.02,2.24-.02,3.36-.02,3.89-.02,7.8-.02,11.7-.02v-23.22h-11.7ZM1046.74,722.73v106.56c2.56.68,5.13,1.23,7.62,1.66v-109.68c-2.52.38-5.08.85-7.62,1.45ZM1087.82,764.81h-9.01c-1.73-.12-3.29-.41-4.68-.85v24.76c1.13-.32,2.36-.54,3.7-.64,2.21-.02,4.42-.02,6.63-.02,1.12-.02,2.24-.02,3.36-.02,3.89-.02,7.8-.02,11.7-.02v-23.22h-11.7ZM1069.4,745.81v-25.71c-1.36.05-2.71.1-4.06.16-1.58.07-3.22.17-4.91.32v111.22c3.04.31,5.87.43,8.33.36h.64v-25.24c-5.49-4.15-5.35-11.65,0-15.85v-29.55c-5.45-4.34-5.39-11.81,0-15.71ZM1076.12,809.62c-.7-.11-1.36-.25-1.99-.43v22.97h10.33v-22.54h-8.34ZM1213.21,816.23c-2.28-5.75-7.49-6.12-12.96-6.62h-85.04v22.55h85.54c8.72-.05,16.04-6.91,12.47-15.92ZM1087.82,809.62v22.54h27.39v-22.54h-27.39ZM1101.52,764.8v23.22c4.35,0,9.34.02,13.69.02v-23.24h-13.69ZM1087.82,764.81h-9.01c-1.73-.12-3.29-.41-4.68-.85v24.76c1.13-.32,2.36-.54,3.7-.64,2.21-.02,4.42-.02,6.63-.02,1.12-.02,2.24-.02,3.36-.02,3.89-.02,7.8-.02,11.7-.02v-23.22h-11.7ZM1087.82,719.74v23.59h11.7v-23.58c-3.9-.02-7.8-.03-11.7,0ZM1207.38,733.81c-10.33-10.44-30.24-13.31-44.34-13.81-15.85.39-31.84.12-47.83-.08v23.4l41.19-.02c12.53,2.64,11.12,20.2-1.72,21.49l-39.47.02v23.24c29.47.08,58.94.26,88.35-.33,5.47-1.13,10.06-4.6,10.53-10.53-1.5-14.32,4.44-32.11-6.71-43.38ZM1101.52,743.32h13.69v-23.4c-4.35-.06-9.34-.12-13.69-.15v23.56ZM1074.13,719.95v23.76c.73-.17,1.49-.3,2.31-.38h8.03v-23.57c-3.45.04-6.89.09-10.33.18ZM1087.82,764.81h-9.01c-1.73-.12-3.29-.41-4.68-.85v24.76c1.13-.32,2.36-.54,3.7-.64,2.21-.02,4.42-.02,6.63-.02,1.12-.02,2.24-.02,3.36-.02,3.89-.02,7.8-.02,11.7-.02v-23.22h-11.7ZM1087.82,764.81h-9.01c-1.73-.12-3.29-.41-4.68-.85v24.76c1.13-.32,2.36-.54,3.7-.64,2.21-.02,4.42-.02,6.63-.02,1.12-.02,2.24-.02,3.36-.02,3.89-.02,7.8-.02,11.7-.02v-23.22h-11.7ZM1033.04,727.53v96.74c2,1,4.1,1.9,6.26,2.7v-102.07c-2.16.76-4.26,1.63-6.26,2.63ZM1087.82,764.81h-9.01c-1.73-.12-3.29-.41-4.68-.85v24.76c1.13-.32,2.36-.54,3.7-.64,2.21-.02,4.42-.02,6.63-.02,1.12-.02,2.24-.02,3.36-.02,3.89-.02,7.8-.02,11.7-.02v-23.22h-11.7ZM1019.35,739.4v73.81c1.32,1.96,2.97,3.75,4.89,5.38v-85.13c-1.9,1.75-3.56,3.72-4.89,5.93ZM1087.82,764.81h-9.01c-1.73-.12-3.29-.41-4.68-.85v24.76c1.13-.32,2.36-.54,3.7-.64,2.21-.02,4.42-.02,6.63-.02,1.12-.02,2.24-.02,3.36-.02,3.89-.02,7.8-.02,11.7-.02v-23.22h-11.7Z"/>
  </g>
</svg>
