<?xml version="1.0" encoding="UTF-8"?>
<svg xmlns="http://www.w3.org/2000/svg" xmlns:xlink="http://www.w3.org/1999/xlink" viewBox="0 0 1200 1200" width="1200" height="1200">
  <defs>
    <style>
      .cls-1 {
        fill: none;
      }

      .cls-2 {
        mask: url(#mask);
      }

      .cls-3 {
        fill: #030302;
      }

      .cls-4 {
        isolation: isolate;
      }

      .cls-5 {
        fill: #fff;
      }

      .cls-6 {
        mix-blend-mode: overlay;
      }

      .cls-7 {
        fill: #282826;
      }
    </style>
    <mask id="mask" x="14660.17" y="13707.54" width="232.64" height="232.64" maskUnits="userSpaceOnUse">
      <g id="cs_mask_1_star-8" data-name="cs mask 1 star-8">
        <path class="cls-5" d="M14776.49,13707.54c14.45,72.56,43.34,101.73,116.32,116.32-73,14.59-101.88,43.76-116.32,116.32-14.45-72.56-43.34-101.75-116.32-116.32,73-14.59,101.88-43.76,116.32-116.32Z"/>
      </g>
    </mask>
  </defs>
  <g transform="translate(-21681.733 -17192.704) scale(1.814292)">
    <path d="M12474.29,9683.6c-6.8,14.14-13.33,31.69-21.76,44.73-6.31,9.77-16.6,19.54-28.67,21-39.48,4.79-88.97-3.05-129.88-.1-19.52,1.4-25.3,7.2-31.18,25.7h140.99c-16.62,29.22-20.01,61-60.02,64.14-35.03,2.76-73.56-2.21-108.97-.02-6.7,1.27-15.02,17.52-16.86,24h161.82c-10.27,19.72-17.91,48.89-37.97,60.56-2.96,1.72-13.06,6.73-15.7,6.73h-237.92l117.9-222.56c5.72-10.93,24.46-24.17,36.71-24.17h231.51Z"/>
  </g>
</svg>
