<?xml version="1.0" encoding="UTF-8"?>
<svg xmlns="http://www.w3.org/2000/svg" xmlns:xlink="http://www.w3.org/1999/xlink" viewBox="0 0 1200 1200" width="1200" height="1200">
  <defs>
    <style>
      .cls-1 {
        fill: none;
      }

      .cls-2 {
        mask: url(#mask);
      }

      .cls-3 {
        fill: #030302;
      }

      .cls-4 {
        isolation: isolate;
      }

      .cls-5 {
        fill: #fff;
      }

      .cls-6 {
        mix-blend-mode: overlay;
      }

      .cls-7 {
        fill: #282826;
      }
    </style>
    <mask id="mask" x="14660.17" y="13707.54" width="232.64" height="232.64" maskUnits="userSpaceOnUse">
      <g id="cs_mask_1_star-8" data-name="cs mask 1 star-8">
        <path class="cls-5" d="M14776.49,13707.54c14.45,72.56,43.34,101.73,116.32,116.32-73,14.59-101.88,43.76-116.32,116.32-14.45-72.56-43.34-101.75-116.32-116.32,73-14.59,101.88-43.76,116.32-116.32Z"/>
      </g>
    </mask>
  </defs>
  <g transform="translate(-8060.895 -4683.305) scale(0.679401)">
    <g>
        <path class="cls-3" d="M13380.74,7613.53l-34.49,81.22-256.37,4.95-65.54,144.84h125.97l15.36-28.82-73.71-.09,30.7-80.82h202.78c1.14,6.42-.8,11.57-2.82,17.55-7.77,22.99-46.66,111.56-59.51,128.9-10.84,14.62-40.77,31.02-58.3,37.61-51.88,19.5-239.57,20.43-289.27-3.83-16.26-7.94-36.55-25.25-32.54-43.9,31.95-58.28,51.28-143.14,84.8-198.11,14.24-23.35,70.12-59.49,96.47-59.49h316.46Z"/>
        <path class="cls-3" d="M12588.05,7613.53l-31.73,78.93c-33.15,7.22-203.75-8.65-217.13,7.19-4.82,5.7-8.22,22.46-9.22,30.75h208.93l-31.7,78.95c-33.14,7.16-203.79-8.66-217.16,7.16-4.82,5.7-8.22,22.46-9.22,30.75h208.93l-30.72,86.11h-344.11l132.12-319.85h341.04Z"/>
        <path class="cls-3" d="M12962.88,7613.53l-31.4,79.25c-7.9,6.9-175.33-4.94-205.2.69-17.7,3.33-19.56,23.71-27.63,36.93h208.93l-25.42,79.13c-33.09,6.76-204.02-8.72-217.3,6.99-4.82,5.7-8.22,22.46-9.22,30.75h208.93l-30.72,86.11h-344.11l132.12-319.85h341.04Z"/>
      </g>
  </g>
</svg>
