<?xml version="1.0" encoding="UTF-8"?>
<svg xmlns="http://www.w3.org/2000/svg" xmlns:xlink="http://www.w3.org/1999/xlink" viewBox="0 0 1200 1200" width="1200" height="1200">
  <defs>
    <style>
      .cls-1 {
        fill: none;
      }

      .cls-2 {
        mask: url(#mask);
      }

      .cls-3 {
        fill: #030302;
      }

      .cls-4 {
        isolation: isolate;
      }

      .cls-5 {
        fill: #fff;
      }

      .cls-6 {
        mix-blend-mode: overlay;
      }

      .cls-7 {
        fill: #282826;
      }
    </style>
    <mask id="mask" x="14660.17" y="13707.54" width="232.64" height="232.64" maskUnits="userSpaceOnUse">
      <g id="cs_mask_1_star-8" data-name="cs mask 1 star-8">
        <path class="cls-5" d="M14776.49,13707.54c14.45,72.56,43.34,101.73,116.32,116.32-73,14.59-101.88,43.76-116.32,116.32-14.45-72.56-43.34-101.75-116.32-116.32,73-14.59,101.88-43.76,116.32-116.32Z"/>
      </g>
    </mask>
  </defs>
  <g transform="translate(-3307.499 -8225.265) scale(0.626760)">
    <path d="M6103.09,14108.05c3.06,19.38,12.86,39.29,24.19,55.31,53.11,75.14,158.1,87.41,227.31,26.69h87.5c-11.04,21.71-29.69,42.44-48.53,57.97-114.78,94.65-290.45,48.91-346.24-87.71-64.64-158.29,48.02-333.28,222.26-322.26,105.74,6.69,197.74,100.4,203.5,206l188.57-.07,1.48,34.6c-4.58,169.93-112.42,323.25-272.52,380.48-244.17,87.28-512.57-75.79-547.38-331.66-37.47-275.42,186.38-512.18,465.22-474.22,166.91,22.72,303.23,144.8,340.48,309.39-.69,1.5-1.92,1.38-3.29,1.52-17.85,1.78-37.2-.74-55-1.09-5.86-.11-11.11,1.38-16.59.57-35.65-114.54-128.06-204.58-245.94-231.05-245.57-55.13-453.51,158.01-409.7,401.7,35.47,197.3,232.7,318.08,426.11,265.74,135.07-36.55,228.5-151.15,243.38-289.67l-1.3-2.25h-483.5ZM6405.09,14044.04c-15.15-107.8-132.42-170.3-229.3-114.79-41.72,23.91-69.67,66.73-76.44,114.35l305.74.44Z"/>
  </g>
</svg>
