<?xml version="1.0" encoding="UTF-8"?>
<svg xmlns="http://www.w3.org/2000/svg" xmlns:xlink="http://www.w3.org/1999/xlink" viewBox="0 0 1200 1200" width="1200" height="1200">
  
  <g transform="translate(-3247.623 -2786.333) scale(1.876075)">
    <g>
      <g>
    <path d="M2045.54,1817.29l30.18.87.03-.06-30.21-.81ZM2088.76,1793.61l-29.94-.8,29.98.86-.04-.06Z"/>
    <path d="M2110.57,1868.76l-12.8,23.96-120.81.36,36.02,50.49h120.31l1.44-2.56,76.92-144.04-35.96-50.55-123.7-3.11-60.77-2.04,12.79-23.96,120.82-.37-36.03-50.49h-120.31l-1.44,2.56-76.92,144.05,35.96,50.55M2136.65,1819.91l-60.93-1.75-30.18-.87-32.52-.88-61.05-1.64,13.16-24.65,60.93,1.75,32.76.94,29.94.8,61.06,1.64-13.17,24.66Z"/>
  </g>
      <path d="M2026.06,1791.87l-.03.06,32.79.88-32.76-.94ZM2012.98,1816.35l.04.06,32.52.88-32.56-.94Z"/>
    </g>
  </g>
</svg>
