<?xml version="1.0" encoding="UTF-8"?>
<svg xmlns="http://www.w3.org/2000/svg" xmlns:xlink="http://www.w3.org/1999/xlink" viewBox="0 0 1200 1200" width="1200" height="1200">
  <defs>
    <style>
      .cls-1 {
        fill: #ed1c24;
      }
    </style>
  </defs>
  <g transform="translate(-6316.501 -3805.166) scale(2.226608)">
    <path d="M3242.08,2009.7c0,6.94-4.01,11.75-9.88,15.22l-117.23,65.96c-6.94,4-13.09,2.4-18.96-.8l-116.69-66.76c-5.34-3.21-8.81-9.08-8.81-15.22v-138.33c0-2.4.52-4.73,1.48-6.85l130.02,71.34c1.37.74,2.86,1.12,4.35,1.12s3.05-.39,4.43-1.17l128.79-72.25c1.36,2.42,2.1,5.3,2.23,8.62l.02,20.4c-2.61,1.28-25.28,13.62-28.33,15.65l-101.74,58.74c-3.47,1.87-6.14,2.41-10.41.27l-63.55-35.52v31.51l51.85,28.84,10.1,5.61c2.59,1.39,5.61,2.48,8.76,1.84.02.03.05.03.08,0,1.25-.08,2.43-.45,3.44-1.31l129.89-73.59.05,30.92-129.67,74.45c-3.47,1.87-8.01,2.67-11.48.8l-63.02-37.92v33.12l61.95,34.44c4.8,2.94,8.81,2.67,12.01.8l130.26-76.34.06,26.41Z"/>
  </g>
</svg>
