<?xml version="1.0" encoding="UTF-8"?>
<svg xmlns="http://www.w3.org/2000/svg" xmlns:xlink="http://www.w3.org/1999/xlink" viewBox="0 0 1200 1200" width="1200" height="1200">
  <defs>
    <style>
      .cls-1 {
        fill: none;
      }

      .cls-2 {
        mask: url(#mask);
      }

      .cls-3 {
        fill: #030302;
      }

      .cls-4 {
        isolation: isolate;
      }

      .cls-5 {
        fill: #fff;
      }

      .cls-6 {
        mix-blend-mode: overlay;
      }

      .cls-7 {
        fill: #282826;
      }
    </style>
    <mask id="mask" x="14660.17" y="13707.54" width="232.64" height="232.64" maskUnits="userSpaceOnUse">
      <g id="cs_mask_1_star-8" data-name="cs mask 1 star-8">
        <path class="cls-5" d="M14776.49,13707.54c14.45,72.56,43.34,101.73,116.32,116.32-73,14.59-101.88,43.76-116.32,116.32-14.45-72.56-43.34-101.75-116.32-116.32,73-14.59,101.88-43.76,116.32-116.32Z"/>
      </g>
    </mask>
  </defs>
  <g transform="translate(-10478.229 -40.165) scale(0.841536)">
    <path d="M12869.34,713.51c-1.41,8.1-53.56,45.05-62.82,63.1-11.54,22.52-11.09,56.09-11.07,80.77,19.73-5.75,32.99-20.6,54.61-24.33,56.13-9.7,124.11,11.09,168.5,44.59l63.76,131.26v-104.76c2.12-6.85,22.11-6.73,27.58-1.78l169.02,158.11-112.76-174.06c41.98,22.63,83.05,47.03,124.74,70.24,2.84,1.58,8.08,7.1,10.6,2.3l-183.44-174.01c2.64-5.59,2.97-8.05,9.13-9.9,30.79-9.2,77.1-11.62,105.69-23.34,25.76-10.56,61.62-55.09,84.73-73.22-38.86-1.05-78.8,8.53-117.67,11.26-3.84.27-17.64,2.7-17.68-3.16l142.6-29.87,86.22-70.13c.57-5.72-10.9-3.42-14.41-3.12-41.95,3.51-87.4,18.09-129.43,22.1-3.6.34-11.57,2.98-10.83-2.78l169.87-47.73,107.33-94.1-366.55,89.53c-41.38,24.52-88.03,98.37-127.61,117.38"/>
  </g>
</svg>
