<?xml version="1.0" encoding="UTF-8"?>
<svg xmlns="http://www.w3.org/2000/svg" xmlns:xlink="http://www.w3.org/1999/xlink" viewBox="0 0 1200 1200" width="1200" height="1200">
  <defs>
    <style>
      .cls-1 {
        fill: #fff;
      }
    </style>
  </defs>
  <g transform="translate(-2541.484 -2541.822) scale(3.074475)">
    <g>
    <path d="M1004.16,1080.49v42.78h-7.06c-.67-.08-1.33-.15-1.98-.25v-44.91c2.16,1.2,4.78,2.38,6.15,2.38h2.89Z"/>
    <rect x="1008.92" y="1080.49" width="10.4" height="42.77"/>
    <rect x="1022.71" y="1080.49" width="11.77" height="42.77"/>
    <polygon points="1103.62 1080.49 1103.62 1123.24 1050.28 1123.25 1049.63 1123.25 1036.49 1123.26 1036.49 1080.49 1103.62 1080.49"/>
    <path d="M943.53,957.42v128.66c-1.28-2.26-2.46-4.6-3.56-7v-114.32c1.1-2.52,2.29-4.98,3.56-7.34Z"/>
    <path d="M958.7,936.94v168.82c-1.72-1.6-3.37-3.3-4.93-5.08v-158.5c1.2-1.42,2.44-2.77,3.72-4.07.38-.38.78-.77,1.21-1.17Z"/>
    <path d="M973.85,926.29v190.14c-2.18-1.11-4.29-2.34-6.3-3.67v-182.65c2.01-1.33,4.13-2.63,6.3-3.82Z"/>
    <path d="M981.34,1059.83c1.82,5.03,4.28,9.74,7.67,13.45v48.63c-2.64-.61-5.2-1.35-7.67-2.24v-59.84Z"/>
    <rect x="981.34" y="1003.28" width="7.67" height="37.23"/>
    <rect x="995.12" y="1003.28" width="9.04" height="37.23"/>
    <rect x="1008.92" y="1003.28" width="10.4" height="37.23"/>
    <rect x="1022.71" y="1003.28" width="11.77" height="37.23"/>
    <rect x="1036.49" y="1003.28" width="47.38" height="37.23"/>
    <path d="M989.01,920.67v49.11c-3.3,3.52-5.83,8.44-7.67,13.71v-60.74c2.71-1.06,5.33-1.8,7.67-2.08Z"/>
    <path d="M1004.16,920.55v42.74h-3.58c-.82,0-3.28,1.07-5.46,2.16v-44.91h9.04Z"/>
    <rect x="1008.92" y="920.55" width="10.4" height="42.74"/>
    <rect x="1022.71" y="920.55" width="11.77" height="42.74"/>
    <rect x="1036.49" y="920.55" width="67.13" height="42.74"/>
    <path class="cls-1" d="M990.93,920.55c-.61,0-1.26.04-1.92.12v-.12h1.92Z"/>
  </g>
  </g>
</svg>
