<?xml version="1.0" encoding="UTF-8"?>
<svg xmlns="http://www.w3.org/2000/svg" xmlns:xlink="http://www.w3.org/1999/xlink" viewBox="0 0 1200 1200" width="1200" height="1200">
  <defs>
    <style>
      .cls-1 {
        fill: none;
      }

      .cls-2 {
        mask: url(#mask);
      }

      .cls-3 {
        fill: #030302;
      }

      .cls-4 {
        isolation: isolate;
      }

      .cls-5 {
        fill: #fff;
      }

      .cls-6 {
        mix-blend-mode: overlay;
      }

      .cls-7 {
        fill: #282826;
      }
    </style>
    <mask id="mask" x="14660.17" y="13707.54" width="232.64" height="232.64" maskUnits="userSpaceOnUse">
      <g id="cs_mask_1_star-8" data-name="cs mask 1 star-8">
        <path class="cls-5" d="M14776.49,13707.54c14.45,72.56,43.34,101.73,116.32,116.32-73,14.59-101.88,43.76-116.32,116.32-14.45-72.56-43.34-101.75-116.32-116.32,73-14.59,101.88-43.76,116.32-116.32Z"/>
      </g>
    </mask>
  </defs>
  <g transform="translate(-13064.785 -12751.814) scale(1.107098)">
    <path d="M12045.85,12275.53c25.98-90.61,50.19-181.77,76.7-272.22,7.28-24.83,14.48-50.02,22.44-74.62,18.34-56.7,51.7-81.29,111.97-83.83l382.98.03-30.79,107.84c-3.35.45-6.85.42-10.21.42-96.67.02-194.21-.76-291.21-.02-2,.02-3.83-.87-5.83.26l-14.51,52.7h307.36s-30.18,107.61-30.18,107.61l-308.43.06-13.94,53.55h306.8s-30.4,108.22-30.4,108.22h-472.76Z"/>
  </g>
</svg>
