<?xml version="1.0" encoding="UTF-8"?>
<svg xmlns="http://www.w3.org/2000/svg" xmlns:xlink="http://www.w3.org/1999/xlink" viewBox="0 0 1200 1200" width="1200" height="1200">
  <defs>
    <style>
      .cls-1 {
        fill: none;
      }

      .cls-2 {
        mask: url(#mask);
      }

      .cls-3 {
        fill: #030302;
      }

      .cls-4 {
        isolation: isolate;
      }

      .cls-5 {
        fill: #fff;
      }

      .cls-6 {
        mix-blend-mode: overlay;
      }

      .cls-7 {
        fill: #282826;
      }
    </style>
    <mask id="mask" x="14660.17" y="13707.54" width="232.64" height="232.64" maskUnits="userSpaceOnUse">
      <g id="cs_mask_1_star-8" data-name="cs mask 1 star-8">
        <path class="cls-5" d="M14776.49,13707.54c14.45,72.56,43.34,101.73,116.32,116.32-73,14.59-101.88,43.76-116.32,116.32-14.45-72.56-43.34-101.75-116.32-116.32,73-14.59,101.88-43.76,116.32-116.32Z"/>
      </g>
    </mask>
  </defs>
  <g transform="translate(-666.677 -7222.131) scale(0.592019)">
    <g>
        <path d="M2422.31,13009.84c5.07-1.05,9.88.19,13.19,4.24,50.14,56.52,103.74,110.04,154.14,166.3,13.42,14.97,24.3,26.94,12.4,48.03l-169.39,184.23c-6.81,5.24-17.47.86-18.25-7.66-1.15-12.54,1.33-27.07-.07-39.59-.68-6.09-2.99-9.74-9.27-10.96l-363.28-.04c-42.75-5.51-45.63-65.43-3.78-75.04,122.47-2.43,245.34-.38,367.96-1.03,5.81-.69,8.28-6.38,8.51-11.72-2.13-35.52,2.74-74.15,0-109.3-.41-5.22-1.28-9.86-6.72-11.89l-365.84-.72c-45.76-7.12-44.7-70.81,1.49-75.99l362.49-.02c6.31-1.51,8.06-5.64,8.58-11.65,1.02-11.94-1.73-27.49.02-38.82.57-3.67,4.17-7.6,7.82-8.36Z"/>
        <path d="M2133.47,12742.85c16.53-1.78,24.72,8.03,35.8,17.97,56.94,51.1,111.97,104.44,168.73,155.76,5.11,6.01,2.49,14.12-3.87,18.02l-391.46.23c-7.14-2.52-9.28-10.78-5.8-17.18l183.59-170.03c4.06-2.25,8.33-4.26,13.03-4.77Z"/>
        <path d="M1847.82,13009c5.81-.78,13.04,3.69,13.17,9.92l-.66,388.63c-3.48,8.4-14.86,9.07-20.44,2.26l-166.53-180.61c-8.12-13.08-5.85-28.04,4.3-39.11,54.27-55.48,103.59-116.07,157.79-171.55,3.19-3.27,7.79-8.92,12.37-9.54Z"/>
        <path d="M1942.45,13488.86l388.26-.19c8.26.99,11.53,10.03,8.12,17.06l-179.27,167.06c-13.82,11.42-30.39,11.22-43.72-.81-55.57-54.44-116.42-103.79-171.96-158.19-8.8-8.62-15.05-16.22-1.43-24.94Z"/>
      </g>
  </g>
</svg>
