<?xml version="1.0" encoding="UTF-8"?>
<svg xmlns="http://www.w3.org/2000/svg" xmlns:xlink="http://www.w3.org/1999/xlink" viewBox="0 0 1200 1200" width="1200" height="1200">
  
  <g transform="translate(-274.276 -879.152) scale(0.867828)">
    <g>
    <path d="M610.8,1966.85l198.05-482.37c11.43-23.97,33.74-41.5,60.96-42.51l125.26.03,1.12,1.12-219.69,523.72h-165.7Z"/>
    <path d="M1253.36,1822.14l-31.36,73.24c-18.94,39.3-57,67.46-100.94,71.51l-299.57-.04,60.73-144.7h371.14Z"/>
    <path d="M1404.06,1442.01l-57.3,132.77c-2.44,1.76-13.41-.08-17.34-.09-110.53-.35-220.9.46-331.4,0-3.85-.02-7.39,1.5-11.59.03l56.61-132.71h361.02Z"/>
    <polygon points="1282.6 1631.7 1225.61 1765.16 906.21 1765.16 961.69 1631.7 1282.6 1631.7"/>
  </g>
  </g>
</svg>
