<?xml version="1.0" encoding="UTF-8"?>
<svg xmlns="http://www.w3.org/2000/svg" xmlns:xlink="http://www.w3.org/1999/xlink" viewBox="0 0 1200 1200" width="1200" height="1200">
  
  <g transform="translate(-179.527 -369.111) scale(0.882093)">
    <g>
    <path d="M902.09,844.85c.49.44-5.22,10.57-5.87,11.75-28.58,51.79-58.32,103.12-87.72,154.45-64.98,113.47-131.36,226.14-196.69,339.4l-1.75,2h-123.34l298.41-507.6h116.97Z"/>
    <path d="M1051.29,1232.49l-70.85,119.96h-331.78c22.67-38.01,44.21-76.74,67.33-114.49,1-1.64,2.03-3.58,2.4-5.48h332.9Z"/>
    <polygon points="1165.26 1036.8 1095.16 1156.01 762.63 1156.01 831.98 1036.8 1165.26 1036.8"/>
    <polygon points="1280.73 844.85 1210.62 961.07 875.1 961.07 941.45 844.85 1280.73 844.85"/>
  </g>
  </g>
</svg>
