<?xml version="1.0" encoding="UTF-8"?>
<svg xmlns="http://www.w3.org/2000/svg" xmlns:xlink="http://www.w3.org/1999/xlink" viewBox="0 0 1200 1200" width="1200" height="1200">
  <defs>
    <style>
      .cls-1 {
        fill: none;
      }

      .cls-2 {
        mask: url(#mask);
      }

      .cls-3 {
        fill: #030302;
      }

      .cls-4 {
        isolation: isolate;
      }

      .cls-5 {
        fill: #fff;
      }

      .cls-6 {
        mix-blend-mode: overlay;
      }

      .cls-7 {
        fill: #282826;
      }
    </style>
    <mask id="mask" x="14660.17" y="13707.54" width="232.64" height="232.64" maskUnits="userSpaceOnUse">
      <g id="cs_mask_1_star-8" data-name="cs mask 1 star-8">
        <path class="cls-5" d="M14776.49,13707.54c14.45,72.56,43.34,101.73,116.32,116.32-73,14.59-101.88,43.76-116.32,116.32-14.45-72.56-43.34-101.75-116.32-116.32,73-14.59,101.88-43.76,116.32-116.32Z"/>
      </g>
    </mask>
  </defs>
  <g transform="translate(84.271 -7108.429) scale(0.707243)">
    <g>
        <path fill-rule="evenodd" d="M722.52,10475.04c25.27-.79,50.47,5.34,73.07,16.35,72.91,46.42,150.43,86.08,223.26,132.54,46.77,29.84,72.24,72.47,74.78,128.53,4.37,96.22-3.36,195.74-.06,292.3-2.65,48.62-26.78,92.93-67.09,120.05-77.12,41.54-151.69,95.77-229.01,136.03-42.01,21.88-91.04,23.43-133.87,2.94l-239.24-141.97c-31.78-22.77-53.52-58.05-60.54-96.56-3.4-108.62-.54-217.77-1.46-326.59,4.83-41.83,26.49-79.96,59.67-105.52,77.43-43.08,152.84-96.19,230.65-137.86,21.84-11.69,44.74-19.47,69.84-20.25ZM985.85,10746.44c-4.7.79-11.11,5.21-15.49,7.61-66.86,36.69-130.04,80.65-197.14,117.08-16,10.71-26.34,28.64-28.55,47.7v313.14c1.64,18.98,17.38,30.39,35.9,25.42,5.58-1.5,11.75-5.66,16.9-8.51,69.95-38.74,137.06-83.14,206.61-122.62,36.59-22.13,30.81-96.71-22.17-73l-126.66,75.57c-2.98,1.69-7.11.17-7.73-3.17,1.45-14.37-1.93-32.38-.05-46.26.39-2.87,1.7-4.76,3.6-6.79l151.62-89.82c35.51-20.2,35.5-92.78-17.33-76.25l-129.53,77.32c-3.38,2.24-7.56-.12-8.28-3.78,1.2-14.24-1.69-31.18-.05-45.05.37-3.1,1.17-4.81,3.44-6.96l151.29-90.15c37.18-19.71,36-100.3-16.38-91.47Z"/>
      </g>
  </g>
</svg>
