<?xml version="1.0" encoding="UTF-8"?>
<svg xmlns="http://www.w3.org/2000/svg" xmlns:xlink="http://www.w3.org/1999/xlink" viewBox="0 0 1200 1200" width="1200" height="1200">
  <defs>
    <style>
      .cls-1 {
        fill: none;
      }

      .cls-2 {
        mask: url(#mask);
      }

      .cls-3 {
        fill: #030302;
      }

      .cls-4 {
        isolation: isolate;
      }

      .cls-5 {
        fill: #fff;
      }

      .cls-6 {
        mix-blend-mode: overlay;
      }

      .cls-7 {
        fill: #282826;
      }
    </style>
    <mask id="mask" x="14660.17" y="13707.54" width="232.64" height="232.64" maskUnits="userSpaceOnUse">
      <g id="cs_mask_1_star-8" data-name="cs mask 1 star-8">
        <path class="cls-5" d="M14776.49,13707.54c14.45,72.56,43.34,101.73,116.32,116.32-73,14.59-101.88,43.76-116.32,116.32-14.45-72.56-43.34-101.75-116.32-116.32,73-14.59,101.88-43.76,116.32-116.32Z"/>
      </g>
    </mask>
  </defs>
  <g transform="translate(-231.588 -5895.981) scale(0.691938)">
    <path d="M1600.71,8977.58v264.5c-.88,1.43-1.99,1.38-3.45,1.55-4.93.58-12.85.13-18.09,0-95.72-2.53-192.15-1.09-287.94-.03-54.31,6.85-100.47,46.62-113.52,99.97h423v88.01h-421.5c-2.27,1.48-.16,5.16.48,7.52,13.65,50.59,62.45,89.36,114.47,93.52l306.55-.05v266l-375.55.05c-253.17-14.06-422.22-253.45-370.97-499.06,36.45-174.65,184.35-309.8,364.02-321.98h382.49ZM1504.71,9073.58c-23.5-.09-47.03.11-70.54.04-30.62-.09-61.17-.08-92,0-84.54.22-151.56-7.02-229.48,33.44-273.05,141.77-189.66,576.57,120.53,595.51h271.49s0-89.99,0-89.99c-84.81-.58-169.74,1.22-254.49-1.01-261.43-28.94-254.31-427.85,8-447.98h246.49v-90.01Z"/>
  </g>
</svg>
