<?xml version="1.0" encoding="UTF-8"?>
<svg xmlns="http://www.w3.org/2000/svg" xmlns:xlink="http://www.w3.org/1999/xlink" viewBox="0 0 1200 1200" width="1200" height="1200">
  <defs>
    <style>
      .cls-1 {
        fill: none;
      }

      .cls-2 {
        mask: url(#mask);
      }

      .cls-3 {
        fill: #030302;
      }

      .cls-4 {
        isolation: isolate;
      }

      .cls-5 {
        fill: #fff;
      }

      .cls-6 {
        mix-blend-mode: overlay;
      }

      .cls-7 {
        fill: #282826;
      }
    </style>
    <mask id="mask" x="14660.17" y="13707.54" width="232.64" height="232.64" maskUnits="userSpaceOnUse">
      <g id="cs_mask_1_star-8" data-name="cs mask 1 star-8">
        <path class="cls-5" d="M14776.49,13707.54c14.45,72.56,43.34,101.73,116.32,116.32-73,14.59-101.88,43.76-116.32,116.32-14.45-72.56-43.34-101.75-116.32-116.32,73-14.59,101.88-43.76,116.32-116.32Z"/>
      </g>
    </mask>
  </defs>
  <g transform="translate(-17186.796 -15201.138) scale(1.610964)">
    <path d="M11269.78,9677.7l2.27,2.63c-7.9,30.13-29.1,61.79-63.09,64.72-57.12,4.92-120.21-4.89-177.9,1.55-11.53,1.29-29.39,20.78-18.04,26.05l208.36,1.51c8.24,2.46.3,15.7-2.36,21.02-10.29,20.59-26.66,37.05-50.17,41.15l-182.27,1.98c-15.71,2.64-29.76,28.45-11.6,28.45h210.69c.2,3.34.15,6.4-.75,9.67-2.93,10.59-20.11,43.09-28.03,50.47-13.3,12.4-42.46,8.9-60.21,8.82-84.88-.4-171.13-.33-256.22-1.74-9.36-.15-18.77.26-28.11.07-2.22-2.28,4.72-16.97,6.13-20.31,29.41-69.32,68.06-135.46,98.3-204.51,11.35-17.42,46.04-31.53,66.2-31.53h286.79Z"/>
  </g>
</svg>
