<?xml version="1.0" encoding="UTF-8"?>
<svg xmlns="http://www.w3.org/2000/svg" xmlns:xlink="http://www.w3.org/1999/xlink" viewBox="0 0 1200 1200" width="1200" height="1200">
  <defs>
    <style>
      .cls-1 {
        fill: none;
      }

      .cls-2 {
        mask: url(#mask);
      }

      .cls-3 {
        fill: #030302;
      }

      .cls-4 {
        isolation: isolate;
      }

      .cls-5 {
        fill: #fff;
      }

      .cls-6 {
        mix-blend-mode: overlay;
      }

      .cls-7 {
        fill: #282826;
      }
    </style>
    <mask id="mask" x="14660.17" y="13707.54" width="232.64" height="232.64" maskUnits="userSpaceOnUse">
      <g id="cs_mask_1_star-8" data-name="cs mask 1 star-8">
        <path class="cls-5" d="M14776.49,13707.54c14.45,72.56,43.34,101.73,116.32,116.32-73,14.59-101.88,43.76-116.32,116.32-14.45-72.56-43.34-101.75-116.32-116.32,73-14.59,101.88-43.76,116.32-116.32Z"/>
      </g>
    </mask>
  </defs>
  <g transform="translate(-20174.344 -18550.747) scale(1.732409)">
    <path d="M12017.29,10893.11c-19.97-.47-41.92-.69-60.97.25-71.27,3.53-121.03,61.2-124.46,130.54-1.24,25.01-1.54,55.22.02,80.16,4.07,65.07,52.89,109.36,117.18,112.32h203.79s0-62.94,0-62.94l-1.4-.63-174.49.04c-37.99-1.54-58.97-24.74-60.07-62.16-.02-.69-.91-3.42.18-3.42h235.77l.02-69.03v-125.13h-135.58ZM11916.88,11023.72c-.14-15.66,3.88-31.65,13.6-44.08,18-23.01,42.82-23.71,70-22.73,22.01.79,40.65,7.03,54.58,24.75,9.57,12.18,13.62,26.63,14,42.05h-152.19Z"/>
  </g>
</svg>
